<svg id="svg" viewBox="0, 0, 400,392.156862745098" version="1.1" xmlns="http://www.w3.org/2000/svg" height="392.156862745098" xmlns:xlink="http://www.w3.org/1999/xlink" width="400">
 <g id="svgg">
  <path id="path0" d="M151.961 143.815 C 151.529 143.922,151.035 144.254,150.863 144.554 C 150.690 144.853,150.283 145.098,149.956 145.098 C 149.342 145.098,149.549 148.566,150.190 149.020 C 150.343 149.127,150.579 150.050,150.715 151.070 C 151.029 153.417,151.586 154.300,153.309 155.180 C 156.098 156.605,157.516 158.027,158.962 160.853 C 159.382 161.675,160.286 162.578,161.108 162.999 C 162.806 163.868,163.336 164.241,164.449 165.355 C 165.562 166.468,165.936 166.998,166.805 168.696 C 167.226 169.518,168.129 170.422,168.951 170.842 C 171.790 172.295,173.195 173.700,174.648 176.539 C 175.069 177.361,175.972 178.265,176.794 178.685 C 179.634 180.138,181.038 181.543,182.491 184.382 C 182.912 185.205,183.815 186.108,184.637 186.528 C 186.335 187.397,186.865 187.771,187.979 188.884 C 189.998 190.903,190.000 190.912,190.000 196.275 C 190.000 201.637,189.998 201.646,187.979 203.665 C 186.865 204.778,186.335 205.152,184.637 206.021 C 183.815 206.441,182.912 207.344,182.491 208.167 C 181.038 211.006,179.634 212.411,176.794 213.864 C 175.972 214.284,175.069 215.188,174.648 216.010 C 173.195 218.849,171.790 220.254,168.951 221.707 C 168.129 222.128,167.226 223.031,166.805 223.853 C 165.352 226.692,163.947 228.097,161.108 229.550 C 160.286 229.971,159.382 230.874,158.962 231.696 C 157.516 234.522,156.098 235.945,153.309 237.369 C 151.586 238.249,151.029 239.132,150.715 241.479 C 150.579 242.499,150.343 243.422,150.190 243.529 C 149.549 243.983,149.342 247.451,149.956 247.451 C 150.283 247.451,150.690 247.694,150.863 247.991 C 151.864 249.716,154.816 248.792,155.534 246.530 C 156.079 244.811,158.178 242.799,160.853 241.430 C 161.675 241.010,162.578 240.107,162.999 239.284 C 164.452 236.445,165.857 235.040,168.696 233.587 C 169.518 233.167,170.422 232.263,170.842 231.441 C 172.295 228.602,173.700 227.197,176.539 225.744 C 177.361 225.323,178.265 224.420,178.685 223.598 C 180.138 220.759,181.543 219.354,184.382 217.901 C 185.205 217.480,186.108 216.577,186.528 215.755 C 187.397 214.057,187.771 213.527,188.884 212.414 C 190.210 211.088,190.659 210.806,192.647 210.053 C 193.672 209.665,194.510 209.181,194.510 208.977 C 194.510 208.774,194.951 208.440,195.490 208.235 C 196.029 208.030,196.471 207.664,196.471 207.421 C 196.471 206.578,199.216 204.216,200.196 204.216 C 201.176 204.216,203.922 206.578,203.922 207.421 C 203.922 207.664,204.363 208.030,204.902 208.235 C 205.441 208.440,205.882 208.774,205.882 208.977 C 205.882 209.181,206.721 209.665,207.745 210.053 C 209.733 210.806,210.182 211.088,211.508 212.414 C 212.621 213.527,212.995 214.057,213.864 215.755 C 214.284 216.577,215.188 217.480,216.010 217.901 C 218.849 219.354,220.254 220.759,221.707 223.598 C 222.128 224.420,223.031 225.323,223.853 225.744 C 226.692 227.197,228.097 228.602,229.550 231.441 C 229.971 232.263,230.874 233.167,231.696 233.587 C 234.535 235.040,235.940 236.445,237.393 239.284 C 237.814 240.107,238.717 241.010,239.539 241.430 C 242.214 242.799,244.313 244.811,244.858 246.530 C 245.586 248.821,248.101 249.602,249.677 248.026 C 249.955 247.748,250.362 247.461,250.581 247.388 C 251.053 247.230,250.217 240.784,249.724 240.784 C 249.552 240.784,249.412 240.455,249.412 240.053 C 249.412 239.191,247.717 237.392,246.559 237.025 C 244.810 236.470,242.809 234.391,241.430 231.696 C 241.010 230.874,240.107 229.971,239.284 229.550 C 236.445 228.097,235.040 226.692,233.587 223.853 C 233.167 223.031,232.263 222.128,231.441 221.707 C 228.602 220.254,227.197 218.849,225.744 216.010 C 225.323 215.188,224.420 214.284,223.598 213.864 C 220.759 212.411,219.354 211.006,217.901 208.167 C 217.480 207.344,216.577 206.441,215.755 206.021 C 214.057 205.152,213.527 204.778,212.414 203.665 C 210.395 201.646,210.392 201.637,210.392 196.275 C 210.392 190.912,210.395 190.903,212.414 188.884 C 213.527 187.771,214.057 187.397,215.755 186.528 C 216.577 186.108,217.480 185.205,217.901 184.382 C 219.354 181.543,220.759 180.138,223.598 178.685 C 224.420 178.265,225.323 177.361,225.744 176.539 C 227.197 173.700,228.602 172.295,231.441 170.842 C 232.263 170.422,233.167 169.518,233.587 168.696 C 235.040 165.857,236.445 164.452,239.284 162.999 C 240.107 162.578,241.010 161.675,241.430 160.853 C 242.809 158.159,244.810 156.079,246.559 155.524 C 247.717 155.157,249.412 153.358,249.412 152.496 C 249.412 152.094,249.552 151.765,249.724 151.765 C 250.217 151.765,251.053 145.319,250.581 145.161 C 250.362 145.088,249.955 144.801,249.677 144.523 C 248.101 142.947,245.586 143.728,244.858 146.019 C 244.313 147.738,242.214 149.750,239.539 151.119 C 238.717 151.539,237.814 152.442,237.393 153.265 C 235.940 156.104,234.535 157.509,231.696 158.962 C 230.874 159.382,229.971 160.286,229.550 161.108 C 228.097 163.947,226.692 165.352,223.853 166.805 C 223.031 167.226,222.128 168.129,221.707 168.951 C 220.254 171.790,218.849 173.195,216.010 174.648 C 215.188 175.069,214.284 175.972,213.864 176.794 C 212.995 178.492,212.621 179.022,211.508 180.135 C 210.182 181.461,209.733 181.743,207.745 182.496 C 206.721 182.884,205.882 183.368,205.882 183.572 C 205.882 183.775,205.441 184.109,204.902 184.314 C 204.363 184.519,203.922 184.885,203.922 185.128 C 203.922 185.971,201.176 188.333,200.196 188.333 C 199.216 188.333,196.471 185.971,196.471 185.128 C 196.471 184.885,196.029 184.519,195.490 184.314 C 194.951 184.109,194.510 183.775,194.510 183.572 C 194.510 183.368,193.672 182.884,192.647 182.496 C 190.659 181.743,190.210 181.461,188.884 180.135 C 187.771 179.022,187.397 178.492,186.528 176.794 C 186.108 175.972,185.205 175.069,184.382 174.648 C 181.543 173.195,180.138 171.790,178.685 168.951 C 178.265 168.129,177.361 167.226,176.539 166.805 C 173.700 165.352,172.295 163.947,170.842 161.108 C 170.422 160.286,169.518 159.382,168.696 158.962 C 165.857 157.509,164.452 156.104,162.999 153.265 C 162.578 152.442,161.675 151.539,160.853 151.119 C 158.178 149.750,156.079 147.738,155.534 146.019 C 155.205 144.984,153.818 143.518,153.220 143.575 C 152.959 143.600,152.392 143.708,151.961 143.815 " fill="#fcfcfc" stroke="none" fill-rule="evenodd"/>
  <path id="path1" d="M125.201 4.203 C 125.798 4.293,126.680 4.291,127.162 4.198 C 127.645 4.105,127.157 4.031,126.078 4.034 C 125.000 4.037,124.605 4.113,125.201 4.203 M273.045 4.203 C 273.641 4.293,274.523 4.291,275.005 4.198 C 275.488 4.105,275.000 4.031,273.922 4.034 C 272.843 4.037,272.449 4.113,273.045 4.203 M108.534 12.042 C 109.022 12.136,109.728 12.132,110.103 12.034 C 110.478 11.936,110.078 11.859,109.216 11.864 C 108.353 11.868,108.046 11.948,108.534 12.042 M290.103 12.042 C 290.590 12.136,291.296 12.132,291.671 12.034 C 292.046 11.936,291.647 11.859,290.784 11.864 C 289.922 11.868,289.615 11.948,290.103 12.042 M93.824 19.878 C 94.201 19.977,94.819 19.977,95.196 19.878 C 95.574 19.780,95.265 19.699,94.510 19.699 C 93.755 19.699,93.446 19.780,93.824 19.878 M304.804 19.878 C 305.181 19.977,305.799 19.977,306.176 19.878 C 306.554 19.780,306.245 19.699,305.490 19.699 C 304.735 19.699,304.426 19.780,304.804 19.878 M72.456 35.571 C 72.943 35.665,73.649 35.662,74.024 35.564 C 74.399 35.465,74.000 35.389,73.137 35.393 C 72.275 35.397,71.968 35.478,72.456 35.571 M326.181 35.571 C 326.669 35.665,327.375 35.662,327.750 35.564 C 328.125 35.465,327.725 35.389,326.863 35.393 C 326.000 35.397,325.693 35.478,326.181 35.571 M66.766 41.765 C 66.770 42.627,66.850 42.934,66.944 42.446 C 67.038 41.959,67.034 41.253,66.936 40.878 C 66.838 40.503,66.761 40.902,66.766 41.765 M47.157 59.094 C 47.534 59.192,48.152 59.192,48.529 59.094 C 48.907 58.995,48.598 58.915,47.843 58.915 C 47.088 58.915,46.779 58.995,47.157 59.094 M350.887 59.101 C 351.375 59.195,352.081 59.191,352.456 59.093 C 352.830 58.995,352.431 58.918,351.569 58.922 C 350.706 58.927,350.399 59.007,350.887 59.101 M43.228 63.529 C 43.228 64.284,43.309 64.593,43.408 64.216 C 43.506 63.838,43.506 63.221,43.408 62.843 C 43.309 62.466,43.228 62.775,43.228 63.529 M41.083 66.944 C 41.571 67.038,42.277 67.034,42.652 66.936 C 43.027 66.838,42.627 66.761,41.765 66.766 C 40.902 66.770,40.595 66.850,41.083 66.944 M357.554 66.944 C 358.041 67.038,358.747 67.034,359.122 66.936 C 359.497 66.838,359.098 66.761,358.235 66.766 C 357.373 66.770,357.066 66.850,357.554 66.944 M35.393 73.137 C 35.397 74.000,35.478 74.307,35.571 73.819 C 35.665 73.331,35.662 72.625,35.564 72.250 C 35.465 71.875,35.389 72.275,35.393 73.137 M25.397 90.473 C 25.885 90.567,26.590 90.564,26.965 90.466 C 27.340 90.367,26.941 90.291,26.078 90.295 C 25.216 90.299,24.909 90.380,25.397 90.473 M373.240 90.473 C 373.728 90.567,374.434 90.564,374.808 90.466 C 375.183 90.367,374.784 90.291,373.922 90.295 C 373.059 90.299,372.752 90.380,373.240 90.473 M19.720 97.059 C 19.723 98.137,19.799 98.532,19.889 97.936 C 19.979 97.340,19.977 96.457,19.884 95.975 C 19.791 95.493,19.717 95.980,19.720 97.059 M17.554 106.160 C 18.041 106.254,18.747 106.250,19.122 106.152 C 19.497 106.054,19.098 105.977,18.235 105.981 C 17.373 105.986,17.066 106.066,17.554 106.160 M381.083 106.160 C 381.571 106.254,382.277 106.250,382.652 106.152 C 383.027 106.054,382.627 105.977,381.765 105.981 C 380.902 105.986,380.595 106.066,381.083 106.160 M11.877 112.745 C 11.880 113.824,11.956 114.218,12.046 113.622 C 12.136 113.026,12.134 112.144,12.041 111.661 C 11.948 111.179,11.874 111.667,11.877 112.745 M4.034 132.353 C 4.037 133.431,4.113 133.826,4.203 133.230 C 4.293 132.634,4.291 131.751,4.198 131.269 C 4.105 130.787,4.031 131.275,4.034 132.353 M152.244 136.656 C 151.766 137.153,150.756 137.675,150.001 137.817 C 149.246 137.959,148.627 138.224,148.627 138.407 C 148.627 138.589,147.569 139.056,146.275 139.444 C 144.980 139.831,143.922 140.274,143.922 140.428 C 143.922 140.582,143.391 140.892,142.743 141.118 C 142.027 141.368,141.401 141.957,141.150 142.619 C 140.922 143.219,140.542 143.829,140.306 143.975 C 139.809 144.282,139.854 148.683,140.357 149.004 C 140.539 149.121,140.819 150.010,140.978 150.980 C 141.352 153.262,141.774 154.035,143.491 155.594 C 144.267 156.298,145.036 157.004,145.200 157.162 C 145.819 157.764,148.745 160.700,149.110 161.087 C 149.603 161.610,152.373 164.380,152.972 164.949 C 153.572 165.519,156.459 168.406,156.953 168.930 C 157.446 169.453,160.351 172.358,160.874 172.851 C 161.398 173.345,164.302 176.249,164.796 176.773 C 165.289 177.296,168.194 180.201,168.717 180.694 C 169.241 181.188,172.145 184.092,172.639 184.616 C 173.133 185.139,176.037 188.044,176.561 188.537 C 176.783 188.747,177.668 189.647,178.528 190.537 C 179.388 191.428,180.248 192.157,180.438 192.157 C 180.629 192.157,180.784 194.010,180.784 196.275 C 180.784 198.539,180.629 200.392,180.438 200.392 C 180.248 200.392,179.388 201.121,178.528 202.012 C 177.668 202.902,176.783 203.802,176.561 204.012 C 176.037 204.505,173.146 207.396,172.592 207.980 C 172.037 208.565,169.132 211.470,168.670 211.902 C 168.208 212.334,165.290 215.252,164.796 215.776 C 164.302 216.300,161.398 219.204,160.874 219.698 C 160.350 220.192,157.433 223.110,157.000 223.572 C 156.567 224.035,153.447 227.155,152.984 227.588 C 152.521 228.021,149.469 231.073,149.051 231.521 C 148.743 231.851,145.823 234.782,145.200 235.387 C 145.036 235.546,144.267 236.251,143.491 236.955 C 141.774 238.514,141.352 239.287,140.978 241.569 C 140.819 242.539,140.539 243.428,140.357 243.545 C 139.854 243.866,139.809 248.267,140.306 248.574 C 140.542 248.720,140.922 249.330,141.150 249.930 C 141.401 250.592,142.027 251.181,142.743 251.431 C 143.391 251.657,143.922 251.967,143.922 252.121 C 143.922 252.275,144.980 252.718,146.275 253.105 C 147.569 253.493,148.627 253.960,148.627 254.142 C 148.627 254.325,149.240 254.589,149.988 254.729 C 150.736 254.870,151.756 255.392,152.254 255.891 L 153.161 256.797 154.072 255.849 C 154.574 255.328,155.320 254.902,155.731 254.902 C 156.142 254.902,156.780 254.549,157.150 254.118 C 157.519 253.686,158.037 253.333,158.300 253.333 C 158.564 253.333,159.010 253.010,159.291 252.616 C 159.573 252.221,160.333 251.565,160.980 251.158 C 161.627 250.751,162.733 249.795,163.437 249.033 C 164.141 248.271,164.889 247.471,165.100 247.255 C 165.877 246.460,168.539 243.808,168.930 243.439 C 169.453 242.946,172.344 240.055,172.899 239.471 C 173.453 238.886,176.358 235.981,176.820 235.549 C 177.283 235.116,180.214 232.185,180.647 231.722 C 181.080 231.259,184.200 228.139,184.663 227.706 C 185.126 227.273,188.165 224.235,188.644 223.725 C 189.123 223.216,192.061 220.278,192.448 219.922 C 194.785 217.765,196.078 216.399,196.078 216.086 C 196.078 215.874,196.520 215.590,197.059 215.455 C 197.598 215.320,198.039 215.065,198.039 214.888 C 198.039 214.712,198.525 214.328,199.118 214.036 C 200.220 213.493,202.353 214.050,202.353 214.881 C 202.353 215.061,202.794 215.320,203.333 215.455 C 203.873 215.590,204.314 215.874,204.314 216.086 C 204.314 216.411,205.070 217.211,207.933 219.910 C 208.457 220.404,211.361 223.308,211.855 223.832 C 212.348 224.355,215.253 227.260,215.776 227.753 C 216.300 228.247,219.221 231.168,219.639 231.616 C 220.057 232.063,222.974 234.981,223.513 235.490 C 224.051 235.998,226.922 238.869,227.552 239.529 C 227.820 239.810,228.745 240.745,229.608 241.608 C 230.471 242.471,231.353 243.343,231.569 243.546 C 231.944 243.899,234.787 246.731,235.387 247.349 C 235.546 247.513,236.251 248.271,236.955 249.033 C 237.659 249.795,238.765 250.751,239.412 251.158 C 240.059 251.565,240.819 252.221,241.101 252.616 C 241.383 253.010,241.829 253.333,242.092 253.333 C 242.355 253.333,242.873 253.686,243.242 254.118 C 243.612 254.549,244.244 254.902,244.649 254.902 C 245.053 254.902,245.810 255.328,246.331 255.849 L 247.278 256.797 248.158 255.882 C 248.643 255.379,249.740 254.849,250.598 254.704 C 251.455 254.559,252.157 254.289,252.157 254.103 C 252.157 253.918,253.127 253.460,254.314 253.086 C 255.500 252.712,256.471 252.279,256.471 252.124 C 256.471 251.968,257.016 251.651,257.682 251.419 C 258.348 251.187,258.986 250.640,259.100 250.204 C 259.214 249.768,259.448 249.412,259.621 249.412 C 260.644 249.412,260.615 241.990,259.591 241.634 C 259.385 241.562,259.216 241.171,259.216 240.765 C 259.216 239.608,257.969 237.285,257.220 237.048 C 256.848 236.930,256.444 236.575,256.323 236.260 C 256.202 235.944,255.833 235.686,255.503 235.686 C 255.172 235.686,254.902 235.524,254.902 235.326 C 254.902 234.839,251.923 231.765,251.451 231.765 C 251.244 231.765,250.856 231.235,250.588 230.588 C 250.320 229.941,249.973 229.412,249.816 229.412 C 249.542 229.412,248.068 228.291,247.255 227.464 C 247.039 227.245,246.157 226.360,245.294 225.497 C 244.431 224.634,243.549 223.742,243.333 223.513 C 242.825 222.975,239.920 220.070,239.412 219.592 C 238.904 219.114,236.215 216.425,235.585 215.765 C 235.317 215.484,234.392 214.549,233.529 213.686 C 232.667 212.824,231.784 211.952,231.569 211.749 C 231.353 211.546,230.513 210.716,229.702 209.905 C 228.892 209.095,228.062 208.255,227.859 208.039 C 227.380 207.530,224.221 204.371,223.773 203.953 C 223.583 203.776,222.724 202.902,221.864 202.012 C 221.004 201.121,220.144 200.392,219.954 200.392 C 219.764 200.392,219.608 198.539,219.608 196.275 C 219.608 194.010,219.764 192.157,219.954 192.157 C 220.144 192.157,220.982 191.449,221.817 190.585 C 222.651 189.720,223.563 188.794,223.843 188.526 C 224.504 187.895,227.381 185.018,227.859 184.510 C 228.338 184.001,231.242 181.097,231.781 180.588 C 232.318 180.081,234.955 177.444,235.585 176.784 C 236.215 176.124,239.086 173.253,239.624 172.745 C 240.163 172.236,243.067 169.332,243.546 168.824 C 243.749 168.608,244.621 167.725,245.483 166.863 C 246.346 166.000,247.186 165.157,247.349 164.990 C 248.071 164.253,249.557 163.137,249.816 163.137 C 249.973 163.137,250.320 162.608,250.588 161.961 C 250.856 161.314,251.244 160.784,251.451 160.784 C 251.923 160.784,254.902 157.710,254.902 157.223 C 254.902 157.025,255.172 156.863,255.503 156.863 C 255.833 156.863,256.202 156.605,256.323 156.289 C 256.444 155.974,256.848 155.619,257.220 155.501 C 257.969 155.264,259.216 152.941,259.216 151.784 C 259.216 151.378,259.385 150.987,259.591 150.915 C 260.615 150.559,260.644 143.137,259.621 143.137 C 259.448 143.137,259.214 142.781,259.100 142.345 C 258.986 141.909,258.348 141.362,257.682 141.130 C 257.016 140.898,256.471 140.581,256.471 140.425 C 256.471 140.270,255.500 139.837,254.314 139.463 C 253.127 139.089,252.157 138.632,252.157 138.446 C 252.157 138.260,251.461 137.991,250.611 137.847 C 249.761 137.703,248.653 137.173,248.149 136.669 L 247.232 135.752 246.320 136.700 C 245.818 137.221,245.072 137.647,244.661 137.647 C 244.250 137.647,243.612 138.000,243.242 138.431 C 242.873 138.863,242.355 139.216,242.092 139.216 C 241.829 139.216,241.383 139.539,241.101 139.933 C 240.819 140.328,240.059 140.984,239.412 141.391 C 238.765 141.798,237.659 142.754,236.955 143.516 C 236.251 144.278,235.524 145.057,235.339 145.247 C 234.644 145.961,231.757 148.837,231.415 149.157 C 230.953 149.589,228.049 152.494,227.494 153.078 C 226.939 153.663,224.034 156.568,223.572 157.000 C 223.110 157.433,220.192 160.350,219.698 160.874 C 219.204 161.398,216.300 164.302,215.776 164.796 C 215.253 165.289,212.348 168.194,211.855 168.717 C 211.645 168.939,210.768 169.827,209.905 170.690 C 209.043 171.552,208.155 172.430,207.933 172.639 C 205.070 175.338,204.314 176.138,204.314 176.463 C 204.314 176.675,203.873 176.959,203.333 177.094 C 202.794 177.229,202.353 177.484,202.353 177.661 C 202.353 177.837,201.868 178.221,201.275 178.513 C 200.172 179.056,198.039 178.499,198.039 177.668 C 198.039 177.488,197.598 177.229,197.059 177.094 C 196.520 176.959,196.078 176.675,196.078 176.463 C 196.078 176.138,195.322 175.338,192.459 172.639 C 192.237 172.430,191.349 171.552,190.487 170.690 C 189.624 169.827,188.747 168.939,188.537 168.717 C 188.328 168.495,187.477 167.634,186.647 166.804 C 185.817 165.974,184.950 165.118,184.722 164.902 C 184.183 164.393,181.062 161.272,180.706 160.886 C 180.349 160.499,177.176 157.326,176.667 156.847 C 176.451 156.644,175.611 155.814,174.800 155.003 C 173.990 154.193,173.160 153.353,172.957 153.137 C 172.478 152.628,169.453 149.603,168.930 149.110 C 168.541 148.743,165.743 145.956,165.053 145.247 C 164.868 145.057,164.141 144.278,163.437 143.516 C 162.733 142.754,161.627 141.798,160.980 141.391 C 160.333 140.984,159.573 140.328,159.291 139.933 C 159.010 139.539,158.564 139.216,158.300 139.216 C 158.037 139.216,157.519 138.863,157.150 138.431 C 156.780 138.000,156.148 137.647,155.744 137.647 C 155.340 137.647,154.583 137.221,154.061 136.700 L 153.114 135.752 152.244 136.656 M154.383 140.945 C 154.853 141.091,156.706 142.701,158.501 144.522 C 160.296 146.342,161.889 147.835,162.040 147.838 C 162.382 147.844,166.275 151.711,166.275 152.044 C 166.275 152.381,169.546 155.680,169.883 155.683 C 170.224 155.687,174.118 159.553,174.118 159.887 C 174.118 160.224,177.389 163.523,177.726 163.526 C 178.067 163.530,181.961 167.396,181.961 167.730 C 181.961 168.067,185.232 171.366,185.570 171.370 C 185.930 171.373,189.804 175.249,189.804 175.607 C 189.805 176.045,192.792 178.824,193.262 178.824 C 193.495 178.824,193.828 179.063,194.000 179.355 C 194.173 179.648,195.020 180.212,195.882 180.609 C 196.745 181.007,197.543 181.463,197.656 181.623 C 198.618 182.991,200.938 183.188,202.220 182.009 C 202.617 181.645,203.647 181.018,204.510 180.617 C 205.373 180.215,206.220 179.648,206.392 179.355 C 206.565 179.063,206.897 178.824,207.131 178.824 C 207.601 178.824,210.587 176.045,210.588 175.607 C 210.588 175.249,214.462 171.373,214.823 171.370 C 215.160 171.366,218.431 168.067,218.431 167.730 C 218.431 167.396,222.325 163.530,222.666 163.526 C 223.004 163.523,226.275 160.224,226.275 159.887 C 226.275 159.553,230.168 155.687,230.509 155.683 C 230.847 155.680,234.118 152.381,234.118 152.044 C 234.118 151.711,238.010 147.844,238.352 147.838 C 238.504 147.835,240.106 146.332,241.914 144.499 C 243.721 142.666,245.618 141.061,246.130 140.933 C 246.641 140.804,247.062 140.498,247.065 140.252 C 247.069 139.965,247.174 139.945,247.359 140.198 C 247.517 140.414,248.662 140.928,249.902 141.340 C 251.142 141.751,252.157 142.219,252.157 142.378 C 252.157 142.538,252.709 142.861,253.384 143.096 C 255.806 143.941,257.726 147.843,255.719 147.843 C 255.555 147.843,255.084 148.858,254.672 150.098 C 254.259 151.338,253.613 152.695,253.235 153.113 C 252.858 153.531,252.549 154.034,252.549 154.230 C 252.549 154.651,248.758 158.430,248.331 158.434 C 247.982 158.438,244.706 161.727,244.706 162.074 C 244.706 162.408,240.812 166.274,240.472 166.277 C 240.134 166.281,236.863 169.580,236.863 169.917 C 236.863 170.251,232.969 174.117,232.628 174.121 C 232.291 174.124,229.020 177.423,229.020 177.760 C 229.020 178.094,225.126 181.960,224.785 181.964 C 224.447 181.967,221.176 185.266,221.176 185.603 C 221.176 185.946,217.277 189.804,216.930 189.804 C 216.772 189.804,216.075 190.406,215.380 191.143 C 212.870 193.805,214.064 202.745,216.930 202.745 C 217.277 202.745,221.176 206.603,221.176 206.946 C 221.176 207.283,224.447 210.582,224.785 210.585 C 225.126 210.589,229.020 214.455,229.020 214.789 C 229.020 215.126,232.291 218.425,232.628 218.428 C 232.969 218.432,236.863 222.298,236.863 222.632 C 236.863 222.969,240.134 226.268,240.472 226.272 C 240.812 226.275,244.706 230.141,244.706 230.475 C 244.706 230.822,247.982 234.111,248.331 234.115 C 248.758 234.119,252.549 237.898,252.549 238.319 C 252.549 238.515,252.858 239.018,253.235 239.436 C 253.613 239.854,254.259 241.211,254.672 242.451 C 255.084 243.691,255.555 244.706,255.719 244.706 C 257.726 244.706,255.806 248.608,253.384 249.453 C 252.709 249.688,252.157 250.011,252.157 250.171 C 252.157 250.330,251.142 250.798,249.902 251.209 C 248.662 251.621,247.517 252.135,247.359 252.351 C 247.174 252.604,247.069 252.584,247.065 252.297 C 247.062 252.051,246.641 251.745,246.130 251.616 C 245.618 251.488,243.721 249.883,241.914 248.050 C 240.106 246.217,238.504 244.714,238.352 244.711 C 238.010 244.705,234.118 240.838,234.118 240.505 C 234.118 240.168,230.847 236.869,230.509 236.866 C 230.168 236.862,226.275 232.996,226.275 232.662 C 226.275 232.325,223.004 229.026,222.666 229.023 C 222.306 229.019,218.432 225.145,218.428 224.785 C 218.425 224.447,215.126 221.176,214.789 221.176 C 214.453 221.176,210.588 217.281,210.588 216.942 C 210.587 216.504,207.601 213.725,207.131 213.725 C 206.897 213.725,206.565 213.486,206.392 213.194 C 206.220 212.901,205.373 212.337,204.510 211.940 C 203.647 211.542,202.849 211.086,202.736 210.926 C 201.774 209.558,199.454 209.361,198.172 210.540 C 197.775 210.904,196.745 211.531,195.882 211.932 C 195.020 212.334,194.173 212.901,194.000 213.194 C 193.828 213.486,193.495 213.725,193.262 213.725 C 192.792 213.725,189.805 216.504,189.804 216.942 C 189.804 217.281,185.939 221.176,185.603 221.176 C 185.266 221.176,181.967 224.447,181.964 224.785 C 181.960 225.126,178.094 229.020,177.760 229.020 C 177.423 229.020,174.124 232.291,174.121 232.628 C 174.117 232.969,170.251 236.863,169.917 236.863 C 169.580 236.863,166.281 240.134,166.277 240.472 C 166.274 240.829,162.401 244.704,162.040 244.711 C 161.889 244.714,160.286 246.217,158.478 248.050 C 156.671 249.883,154.774 251.488,154.263 251.616 C 153.752 251.745,153.331 252.051,153.327 252.297 C 153.323 252.598,153.226 252.610,153.033 252.336 C 152.875 252.112,151.972 251.679,151.027 251.374 C 150.081 251.070,149.111 250.629,148.870 250.394 C 148.629 250.159,147.814 249.720,147.059 249.419 C 144.998 248.597,142.829 245.882,144.233 245.882 C 144.404 245.882,144.873 244.912,145.277 243.725 C 145.680 242.539,146.158 241.569,146.338 241.569 C 146.519 241.569,146.667 241.287,146.667 240.943 C 146.667 239.662,151.035 234.118,152.044 234.118 C 152.381 234.118,155.680 230.847,155.683 230.509 C 155.687 230.168,159.553 226.275,159.887 226.275 C 160.224 226.275,163.523 223.004,163.526 222.666 C 163.530 222.325,167.396 218.431,167.730 218.431 C 168.067 218.431,171.366 215.160,171.370 214.823 C 171.373 214.482,175.239 210.588,175.573 210.588 C 175.910 210.588,179.209 207.317,179.213 206.979 C 179.217 206.611,183.096 202.745,183.462 202.745 C 183.620 202.745,184.317 202.143,185.012 201.406 C 187.522 198.745,186.328 189.804,183.462 189.804 C 183.115 189.804,179.216 185.946,179.216 185.603 C 179.216 185.266,175.945 181.967,175.607 181.964 C 175.266 181.960,171.373 178.094,171.373 177.760 C 171.373 177.423,168.102 174.124,167.764 174.121 C 167.423 174.117,163.529 170.251,163.529 169.917 C 163.529 169.580,160.258 166.281,159.921 166.277 C 159.580 166.274,155.686 162.408,155.686 162.074 C 155.686 161.737,152.415 158.438,152.077 158.434 C 151.034 158.423,146.667 152.911,146.667 151.606 C 146.667 151.262,146.519 150.980,146.338 150.980 C 146.158 150.980,145.680 150.010,145.277 148.824 C 144.873 147.637,144.404 146.667,144.233 146.667 C 142.829 146.667,144.998 143.952,147.059 143.130 C 147.814 142.829,148.642 142.376,148.900 142.125 C 149.158 141.874,150.172 141.431,151.155 141.141 C 152.137 140.850,152.944 140.431,152.947 140.209 C 152.951 139.959,153.064 139.972,153.241 140.241 C 153.400 140.482,153.914 140.798,154.383 140.945 M4.034 259.804 C 4.037 260.882,4.113 261.277,4.203 260.681 C 4.293 260.085,4.291 259.202,4.198 258.720 C 4.105 258.238,4.031 258.725,4.034 259.804 M11.877 279.412 C 11.880 280.490,11.956 280.885,12.046 280.289 C 12.136 279.693,12.134 278.810,12.041 278.328 C 11.948 277.846,11.874 278.333,11.877 279.412 M19.720 295.098 C 19.723 296.176,19.799 296.571,19.889 295.975 C 19.979 295.379,19.977 294.497,19.884 294.014 C 19.791 293.532,19.717 294.020,19.720 295.098 M35.393 319.020 C 35.397 319.882,35.478 320.189,35.571 319.701 C 35.665 319.214,35.662 318.508,35.564 318.133 C 35.465 317.758,35.389 318.157,35.393 319.020 M43.236 328.039 C 43.241 328.902,43.321 329.209,43.415 328.721 C 43.508 328.233,43.505 327.527,43.407 327.152 C 43.309 326.777,43.232 327.176,43.236 328.039 M66.766 350.392 C 66.770 351.255,66.850 351.562,66.944 351.074 C 67.038 350.586,67.034 349.880,66.936 349.505 C 66.838 349.130,66.761 349.529,66.766 350.392 " fill="#94949c" stroke="none" fill-rule="evenodd"/>
  <path id="path2" d="M152.947 140.209 C 152.944 140.431,152.137 140.850,151.155 141.141 C 150.172 141.431,149.158 141.874,148.900 142.125 C 148.642 142.376,147.814 142.829,147.059 143.130 C 144.998 143.952,142.829 146.667,144.233 146.667 C 144.404 146.667,144.873 147.637,145.277 148.824 C 145.680 150.010,146.158 150.980,146.338 150.980 C 146.519 150.980,146.667 151.262,146.667 151.606 C 146.667 152.911,151.034 158.423,152.077 158.434 C 152.415 158.438,155.686 161.737,155.686 162.074 C 155.686 162.408,159.580 166.274,159.921 166.277 C 160.258 166.281,163.529 169.580,163.529 169.917 C 163.529 170.251,167.423 174.117,167.764 174.121 C 168.102 174.124,171.373 177.423,171.373 177.760 C 171.373 178.094,175.266 181.960,175.607 181.964 C 175.945 181.967,179.216 185.266,179.216 185.603 C 179.216 185.946,183.115 189.804,183.462 189.804 C 183.620 189.804,184.317 190.406,185.012 191.143 C 187.522 193.805,186.328 202.745,183.462 202.745 C 183.096 202.745,179.217 206.611,179.213 206.979 C 179.209 207.317,175.910 210.588,175.573 210.588 C 175.239 210.588,171.373 214.482,171.370 214.823 C 171.366 215.160,168.067 218.431,167.730 218.431 C 167.396 218.431,163.530 222.325,163.526 222.666 C 163.523 223.004,160.224 226.275,159.887 226.275 C 159.553 226.275,155.687 230.168,155.683 230.509 C 155.680 230.847,152.381 234.118,152.044 234.118 C 151.035 234.118,146.667 239.662,146.667 240.943 C 146.667 241.287,146.519 241.569,146.338 241.569 C 146.158 241.569,145.680 242.539,145.277 243.725 C 144.873 244.912,144.404 245.882,144.233 245.882 C 142.829 245.882,144.998 248.597,147.059 249.419 C 147.814 249.720,148.629 250.159,148.870 250.394 C 149.111 250.629,150.081 251.070,151.027 251.374 C 151.972 251.679,152.875 252.112,153.033 252.336 C 153.226 252.610,153.323 252.598,153.327 252.297 C 153.331 252.051,153.752 251.745,154.263 251.616 C 154.774 251.488,156.671 249.883,158.478 248.050 C 160.286 246.217,161.889 244.714,162.040 244.711 C 162.401 244.704,166.274 240.829,166.277 240.472 C 166.281 240.134,169.580 236.863,169.917 236.863 C 170.251 236.863,174.117 232.969,174.121 232.628 C 174.124 232.291,177.423 229.020,177.760 229.020 C 178.094 229.020,181.960 225.126,181.964 224.785 C 181.967 224.447,185.266 221.176,185.603 221.176 C 185.939 221.176,189.804 217.281,189.804 216.942 C 189.805 216.504,192.792 213.725,193.262 213.725 C 193.495 213.725,193.828 213.486,194.000 213.194 C 194.173 212.901,195.020 212.334,195.882 211.932 C 196.745 211.531,197.775 210.904,198.172 210.540 C 199.454 209.361,201.774 209.558,202.736 210.926 C 202.849 211.086,203.647 211.542,204.510 211.940 C 205.373 212.337,206.220 212.901,206.392 213.194 C 206.565 213.486,206.897 213.725,207.131 213.725 C 207.601 213.725,210.587 216.504,210.588 216.942 C 210.588 217.281,214.453 221.176,214.789 221.176 C 215.126 221.176,218.425 224.447,218.428 224.785 C 218.432 225.145,222.306 229.019,222.666 229.023 C 223.004 229.026,226.275 232.325,226.275 232.662 C 226.275 232.996,230.168 236.862,230.509 236.866 C 230.847 236.869,234.118 240.168,234.118 240.505 C 234.118 240.838,238.010 244.705,238.352 244.711 C 238.504 244.714,240.106 246.217,241.914 248.050 C 243.721 249.883,245.618 251.488,246.130 251.616 C 246.641 251.745,247.062 252.051,247.065 252.297 C 247.069 252.584,247.174 252.604,247.359 252.351 C 247.517 252.135,248.662 251.621,249.902 251.209 C 251.142 250.798,252.157 250.330,252.157 250.171 C 252.157 250.011,252.709 249.688,253.384 249.453 C 255.806 248.608,257.726 244.706,255.719 244.706 C 255.555 244.706,255.084 243.691,254.672 242.451 C 254.259 241.211,253.613 239.854,253.235 239.436 C 252.858 239.018,252.549 238.515,252.549 238.319 C 252.549 237.898,248.758 234.119,248.331 234.115 C 247.982 234.111,244.706 230.822,244.706 230.475 C 244.706 230.141,240.812 226.275,240.472 226.272 C 240.134 226.268,236.863 222.969,236.863 222.632 C 236.863 222.298,232.969 218.432,232.628 218.428 C 232.291 218.425,229.020 215.126,229.020 214.789 C 229.020 214.455,225.126 210.589,224.785 210.585 C 224.447 210.582,221.176 207.283,221.176 206.946 C 221.176 206.603,217.277 202.745,216.930 202.745 C 216.772 202.745,216.075 202.143,215.380 201.406 C 212.870 198.745,214.064 189.804,216.930 189.804 C 217.277 189.804,221.176 185.946,221.176 185.603 C 221.176 185.266,224.447 181.967,224.785 181.964 C 225.126 181.960,229.020 178.094,229.020 177.760 C 229.020 177.423,232.291 174.124,232.628 174.121 C 232.969 174.117,236.863 170.251,236.863 169.917 C 236.863 169.580,240.134 166.281,240.472 166.277 C 240.812 166.274,244.706 162.408,244.706 162.074 C 244.706 161.727,247.982 158.438,248.331 158.434 C 248.758 158.430,252.549 154.651,252.549 154.230 C 252.549 154.034,252.858 153.531,253.235 153.113 C 253.613 152.695,254.259 151.338,254.672 150.098 C 255.084 148.858,255.555 147.843,255.719 147.843 C 257.726 147.843,255.806 143.941,253.384 143.096 C 252.709 142.861,252.157 142.538,252.157 142.378 C 252.157 142.219,251.142 141.751,249.902 141.340 C 248.662 140.928,247.517 140.414,247.359 140.198 C 247.174 139.945,247.069 139.965,247.065 140.252 C 247.062 140.498,246.641 140.804,246.130 140.933 C 245.618 141.061,243.721 142.666,241.914 144.499 C 240.106 146.332,238.504 147.835,238.352 147.838 C 238.010 147.844,234.118 151.711,234.118 152.044 C 234.118 152.381,230.847 155.680,230.509 155.683 C 230.168 155.687,226.275 159.553,226.275 159.887 C 226.275 160.224,223.004 163.523,222.666 163.526 C 222.325 163.530,218.431 167.396,218.431 167.730 C 218.431 168.067,215.160 171.366,214.823 171.370 C 214.462 171.373,210.588 175.249,210.588 175.607 C 210.587 176.045,207.601 178.824,207.131 178.824 C 206.897 178.824,206.565 179.063,206.392 179.355 C 206.220 179.648,205.373 180.215,204.510 180.617 C 203.647 181.018,202.617 181.645,202.220 182.009 C 200.938 183.188,198.618 182.991,197.656 181.623 C 197.543 181.463,196.745 181.007,195.882 180.609 C 195.020 180.212,194.173 179.648,194.000 179.355 C 193.828 179.063,193.495 178.824,193.262 178.824 C 192.792 178.824,189.805 176.045,189.804 175.607 C 189.804 175.249,185.930 171.373,185.570 171.370 C 185.232 171.366,181.961 168.067,181.961 167.730 C 181.961 167.396,178.067 163.530,177.726 163.526 C 177.389 163.523,174.118 160.224,174.118 159.887 C 174.118 159.553,170.224 155.687,169.883 155.683 C 169.546 155.680,166.275 152.381,166.275 152.044 C 166.275 151.711,162.382 147.844,162.040 147.838 C 161.889 147.835,160.296 146.342,158.501 144.522 C 156.706 142.701,154.853 141.091,154.383 140.945 C 153.914 140.798,153.400 140.482,153.241 140.241 C 153.064 139.972,152.951 139.959,152.947 140.209 M154.490 144.383 C 154.927 144.852,155.397 145.589,155.534 146.019 C 156.079 147.738,158.178 149.750,160.853 151.119 C 161.675 151.539,162.578 152.442,162.999 153.265 C 164.452 156.104,165.857 157.509,168.696 158.962 C 169.518 159.382,170.422 160.286,170.842 161.108 C 172.295 163.947,173.700 165.352,176.539 166.805 C 177.361 167.226,178.265 168.129,178.685 168.951 C 180.138 171.790,181.543 173.195,184.382 174.648 C 185.205 175.069,186.108 175.972,186.528 176.794 C 187.397 178.492,187.771 179.022,188.884 180.135 C 190.210 181.461,190.659 181.743,192.647 182.496 C 193.672 182.884,194.510 183.368,194.510 183.572 C 194.510 183.775,194.951 184.109,195.490 184.314 C 196.029 184.519,196.471 184.885,196.471 185.128 C 196.471 185.971,199.216 188.333,200.196 188.333 C 201.176 188.333,203.922 185.971,203.922 185.128 C 203.922 184.885,204.363 184.519,204.902 184.314 C 205.441 184.109,205.882 183.775,205.882 183.572 C 205.882 183.368,206.721 182.884,207.745 182.496 C 209.733 181.743,210.182 181.461,211.508 180.135 C 212.621 179.022,212.995 178.492,213.864 176.794 C 214.284 175.972,215.188 175.069,216.010 174.648 C 218.849 173.195,220.254 171.790,221.707 168.951 C 222.128 168.129,223.031 167.226,223.853 166.805 C 226.692 165.352,228.097 163.947,229.550 161.108 C 229.971 160.286,230.874 159.382,231.696 158.962 C 234.535 157.509,235.940 156.104,237.393 153.265 C 237.814 152.442,238.717 151.539,239.539 151.119 C 242.214 149.750,244.313 147.738,244.858 146.019 C 245.586 143.728,248.101 142.947,249.677 144.523 C 249.955 144.801,250.362 145.088,250.581 145.161 C 251.053 145.319,250.217 151.765,249.724 151.765 C 249.552 151.765,249.412 152.094,249.412 152.496 C 249.412 153.358,247.717 155.157,246.559 155.524 C 244.810 156.079,242.809 158.159,241.430 160.853 C 241.010 161.675,240.107 162.578,239.284 162.999 C 236.445 164.452,235.040 165.857,233.587 168.696 C 233.167 169.518,232.263 170.422,231.441 170.842 C 228.602 172.295,227.197 173.700,225.744 176.539 C 225.323 177.361,224.420 178.265,223.598 178.685 C 220.759 180.138,219.354 181.543,217.901 184.382 C 217.480 185.205,216.577 186.108,215.755 186.528 C 214.057 187.397,213.527 187.771,212.414 188.884 C 210.395 190.903,210.392 190.912,210.392 196.275 C 210.392 201.637,210.395 201.646,212.414 203.665 C 213.527 204.778,214.057 205.152,215.755 206.021 C 216.577 206.441,217.480 207.344,217.901 208.167 C 219.354 211.006,220.759 212.411,223.598 213.864 C 224.420 214.284,225.323 215.188,225.744 216.010 C 227.197 218.849,228.602 220.254,231.441 221.707 C 232.263 222.128,233.167 223.031,233.587 223.853 C 235.040 226.692,236.445 228.097,239.284 229.550 C 240.107 229.971,241.010 230.874,241.430 231.696 C 242.809 234.391,244.810 236.470,246.559 237.025 C 247.717 237.392,249.412 239.191,249.412 240.053 C 249.412 240.455,249.552 240.784,249.724 240.784 C 250.217 240.784,251.053 247.230,250.581 247.388 C 250.362 247.461,249.955 247.748,249.677 248.026 C 248.101 249.602,245.586 248.821,244.858 246.530 C 244.313 244.811,242.214 242.799,239.539 241.430 C 238.717 241.010,237.814 240.107,237.393 239.284 C 235.940 236.445,234.535 235.040,231.696 233.587 C 230.874 233.167,229.971 232.263,229.550 231.441 C 228.097 228.602,226.692 227.197,223.853 225.744 C 223.031 225.323,222.128 224.420,221.707 223.598 C 220.254 220.759,218.849 219.354,216.010 217.901 C 215.188 217.480,214.284 216.577,213.864 215.755 C 212.995 214.057,212.621 213.527,211.508 212.414 C 210.182 211.088,209.733 210.806,207.745 210.053 C 206.721 209.665,205.882 209.181,205.882 208.977 C 205.882 208.774,205.441 208.440,204.902 208.235 C 204.363 208.030,203.922 207.664,203.922 207.421 C 203.922 206.578,201.176 204.216,200.196 204.216 C 199.216 204.216,196.471 206.578,196.471 207.421 C 196.471 207.664,196.029 208.030,195.490 208.235 C 194.951 208.440,194.510 208.774,194.510 208.977 C 194.510 209.181,193.672 209.665,192.647 210.053 C 190.659 210.806,190.210 211.088,188.884 212.414 C 187.771 213.527,187.397 214.057,186.528 215.755 C 186.108 216.577,185.205 217.480,184.382 217.901 C 181.543 219.354,180.138 220.759,178.685 223.598 C 178.265 224.420,177.361 225.323,176.539 225.744 C 173.700 227.197,172.295 228.602,170.842 231.441 C 170.422 232.263,169.518 233.167,168.696 233.587 C 165.857 235.040,164.452 236.445,162.999 239.284 C 162.578 240.107,161.675 241.010,160.853 241.430 C 158.178 242.799,156.079 244.811,155.534 246.530 C 154.816 248.792,151.864 249.716,150.863 247.991 C 150.690 247.694,150.283 247.451,149.956 247.451 C 149.342 247.451,149.549 243.983,150.190 243.529 C 150.343 243.422,150.579 242.499,150.715 241.479 C 151.029 239.132,151.586 238.249,153.309 237.369 C 156.098 235.945,157.516 234.522,158.962 231.696 C 159.382 230.874,160.286 229.971,161.108 229.550 C 163.947 228.097,165.352 226.692,166.805 223.853 C 167.226 223.031,168.129 222.128,168.951 221.707 C 171.790 220.254,173.195 218.849,174.648 216.010 C 175.069 215.188,175.972 214.284,176.794 213.864 C 179.634 212.411,181.038 211.006,182.491 208.167 C 182.912 207.344,183.815 206.441,184.637 206.021 C 186.335 205.152,186.865 204.778,187.979 203.665 C 189.998 201.646,190.000 201.637,190.000 196.275 C 190.000 190.912,189.998 190.903,187.979 188.884 C 186.865 187.771,186.335 187.397,184.637 186.528 C 183.815 186.108,182.912 185.205,182.491 184.382 C 181.038 181.543,179.634 180.138,176.794 178.685 C 175.972 178.265,175.069 177.361,174.648 176.539 C 173.195 173.700,171.790 172.295,168.951 170.842 C 168.129 170.422,167.226 169.518,166.805 168.696 C 165.352 165.857,163.947 164.452,161.108 162.999 C 160.286 162.578,159.382 161.675,158.962 160.853 C 157.516 158.027,156.098 156.605,153.309 155.180 C 151.586 154.300,151.029 153.417,150.715 151.070 C 150.579 150.050,150.343 149.127,150.190 149.020 C 149.549 148.566,149.342 145.098,149.956 145.098 C 150.283 145.098,150.690 144.853,150.863 144.554 C 151.151 144.053,152.028 143.689,153.220 143.575 C 153.481 143.550,154.053 143.913,154.490 144.383 " fill="#c4c4c4" stroke="none" fill-rule="evenodd"/>
  <path id="path3" d="M137.255 1.961 L 137.255 3.922 132.451 3.980 C 129.809 4.012,124.970 4.060,121.697 4.087 C 114.335 4.149,114.336 4.148,113.944 8.644 L 113.672 11.765 112.228 11.810 C 111.434 11.835,108.363 11.891,105.403 11.935 C 98.705 12.035,98.642 12.075,98.258 16.487 C 98.037 19.018,97.861 19.615,97.326 19.645 C 96.963 19.666,94.222 19.753,91.234 19.839 C 83.685 20.057,82.763 20.649,82.750 25.294 L 82.743 27.647 79.225 27.656 C 74.847 27.668,74.786 27.727,74.643 32.053 L 74.530 35.490 71.026 35.490 C 66.733 35.490,66.847 35.375,66.934 39.645 L 67.005 43.137 65.365 43.208 C 64.463 43.246,62.815 43.291,61.702 43.306 C 59.082 43.341,59.063 43.370,58.968 47.306 C 58.871 51.361,59.204 51.028,55.149 51.125 C 51.060 51.224,51.224 51.060,51.125 55.149 C 51.027 59.224,51.283 58.971,47.222 59.010 C 43.402 59.046,42.984 59.335,43.329 61.697 C 43.450 62.522,43.435 64.054,43.296 65.100 L 43.044 67.001 39.598 66.932 C 35.377 66.847,35.475 66.750,35.560 70.984 L 35.630 74.444 32.345 74.718 C 27.404 75.129,27.702 74.297,27.485 88.306 L 27.451 90.534 23.958 90.463 C 19.668 90.376,19.808 90.229,19.785 94.839 C 19.775 96.923,19.731 100.336,19.687 102.424 L 19.608 106.220 16.115 106.149 C 11.825 106.062,11.965 105.916,11.942 110.526 C 11.932 112.609,11.887 115.920,11.844 117.883 L 11.765 121.452 8.550 121.700 C 4.088 122.044,4.126 121.987,4.080 128.544 C 4.060 131.502,4.016 136.525,3.982 139.706 L 3.922 145.490 1.961 145.490 L 0.000 145.490 0.000 192.353 L 0.000 239.216 1.961 239.216 L 3.922 239.216 3.982 248.725 C 4.136 272.851,3.577 270.215,8.607 270.506 L 11.765 270.689 11.844 274.266 C 11.887 276.233,11.932 279.548,11.942 281.631 C 11.965 286.223,11.804 286.047,16.111 286.215 L 19.608 286.353 19.687 289.941 C 19.731 291.915,19.775 295.234,19.785 297.318 C 19.808 301.909,19.648 301.733,23.954 301.902 L 27.451 302.039 27.485 304.059 C 27.722 317.931,27.426 317.126,32.439 317.513 L 35.628 317.759 35.559 321.196 C 35.475 325.388,35.355 325.263,39.617 325.430 L 43.092 325.567 43.345 326.721 C 43.485 327.355,43.480 328.735,43.336 329.786 C 42.898 332.969,43.316 333.333,47.410 333.333 L 50.871 333.333 51.107 335.321 C 51.236 336.415,51.243 337.805,51.122 338.411 C 50.666 340.688,51.396 341.176,55.253 341.176 L 58.714 341.176 58.950 343.164 C 59.079 344.258,59.086 345.648,58.965 346.254 C 58.503 348.565,59.218 349.020,63.320 349.020 L 67.005 349.020 66.934 352.512 C 66.847 356.771,66.705 356.622,71.111 356.863 L 74.706 357.059 74.748 360.317 C 74.801 364.386,74.895 364.477,79.193 364.645 L 82.661 364.781 82.814 367.490 C 83.062 371.880,84.396 372.451,94.581 372.524 L 97.985 372.549 98.258 375.670 C 98.654 380.210,98.542 380.150,106.874 380.332 L 113.679 380.480 113.948 383.557 C 114.357 388.255,113.702 388.014,126.511 388.170 L 137.255 388.301 137.255 390.229 L 137.255 392.157 200.000 392.157 L 262.745 392.157 262.745 390.224 L 262.745 388.291 273.519 388.165 C 286.371 388.015,285.795 388.231,286.158 383.433 L 286.382 380.468 293.180 380.332 C 301.501 380.166,301.498 380.168,301.847 375.552 L 302.074 372.549 305.645 372.528 C 315.486 372.470,316.851 371.885,317.222 367.571 L 317.451 364.902 321.050 364.702 C 325.442 364.457,325.264 364.634,325.431 360.360 L 325.568 356.863 328.835 356.863 C 333.128 356.863,333.333 356.656,333.333 352.339 L 333.333 349.048 337.157 348.936 L 340.980 348.824 341.092 345.014 L 341.205 341.205 345.014 341.092 L 348.824 340.980 348.936 337.171 L 349.048 333.361 352.857 333.249 L 356.667 333.137 356.779 329.314 L 356.891 325.490 360.182 325.490 C 364.496 325.490,364.706 325.282,364.706 321.009 L 364.706 317.760 367.709 317.533 C 372.328 317.184,372.322 317.195,372.490 308.813 L 372.627 301.961 375.893 301.961 C 380.558 301.961,380.392 302.273,380.392 293.501 L 380.392 286.275 383.697 286.275 C 388.405 286.275,388.235 286.589,388.235 277.857 L 388.235 270.671 391.361 270.529 C 396.230 270.308,395.863 271.612,395.994 254.104 L 396.105 239.216 398.053 239.216 L 400.000 239.216 400.000 196.275 L 400.000 153.333 398.057 153.333 L 396.113 153.333 395.998 138.249 C 395.863 120.681,396.243 122.070,391.474 121.702 L 388.282 121.456 388.160 114.093 C 388.019 105.501,388.318 106.059,383.908 106.149 L 380.438 106.219 380.317 98.631 C 380.176 89.792,380.477 90.373,376.085 90.462 L 372.635 90.531 372.490 83.538 C 372.313 74.999,372.379 75.125,367.865 74.731 L 364.782 74.463 364.646 70.989 C 364.479 66.723,364.610 66.847,360.355 66.934 L 356.863 67.005 356.863 63.320 C 356.863 58.976,356.535 58.579,353.315 59.022 C 352.264 59.167,350.868 59.167,350.212 59.023 L 349.020 58.761 349.020 55.277 C 349.020 51.394,348.535 50.666,346.254 51.122 C 345.648 51.243,344.258 51.236,343.164 51.107 L 341.176 50.871 341.176 47.410 C 341.176 43.553,340.688 42.823,338.411 43.279 C 337.805 43.400,336.431 43.395,335.358 43.268 L 333.408 43.037 333.272 39.590 C 333.106 35.357,333.231 35.475,329.021 35.560 L 325.566 35.629 325.430 32.148 C 325.261 27.806,325.180 27.725,320.888 27.587 L 317.451 27.477 317.229 24.703 C 316.914 20.776,316.427 20.372,311.502 19.953 C 309.382 19.772,307.336 19.721,306.957 19.840 C 306.577 19.958,305.322 19.937,304.168 19.793 L 302.069 19.531 301.816 16.539 C 301.443 12.120,301.309 12.035,294.624 11.935 C 291.650 11.891,288.580 11.835,287.803 11.810 L 286.390 11.765 286.133 8.734 C 285.749 4.184,285.689 4.148,278.332 4.087 C 275.044 4.060,270.191 4.012,267.549 3.980 L 262.745 3.922 262.745 1.961 L 262.745 0.000 200.000 0.000 L 137.255 0.000 137.255 1.961 M155.744 137.647 C 156.148 137.647,156.780 138.000,157.150 138.431 C 157.519 138.863,158.037 139.216,158.300 139.216 C 158.564 139.216,159.010 139.539,159.291 139.933 C 159.573 140.328,160.333 140.984,160.980 141.391 C 161.627 141.798,162.733 142.754,163.437 143.516 C 164.141 144.278,164.868 145.057,165.053 145.247 C 165.743 145.956,168.541 148.743,168.930 149.110 C 169.453 149.603,172.478 152.628,172.957 153.137 C 173.160 153.353,173.990 154.193,174.800 155.003 C 175.611 155.814,176.451 156.644,176.667 156.847 C 177.176 157.326,180.349 160.499,180.706 160.886 C 181.062 161.272,184.183 164.393,184.722 164.902 C 184.950 165.118,185.817 165.974,186.647 166.804 C 187.477 167.634,188.328 168.495,188.537 168.717 C 188.747 168.939,189.624 169.827,190.487 170.690 C 191.349 171.552,192.237 172.430,192.459 172.639 C 195.322 175.338,196.078 176.138,196.078 176.463 C 196.078 176.675,196.520 176.959,197.059 177.094 C 197.598 177.229,198.039 177.488,198.039 177.668 C 198.039 178.499,200.172 179.056,201.275 178.513 C 201.868 178.221,202.353 177.837,202.353 177.661 C 202.353 177.484,202.794 177.229,203.333 177.094 C 203.873 176.959,204.314 176.675,204.314 176.463 C 204.314 176.138,205.070 175.338,207.933 172.639 C 208.155 172.430,209.043 171.552,209.905 170.690 C 210.768 169.827,211.645 168.939,211.855 168.717 C 212.348 168.194,215.253 165.289,215.776 164.796 C 216.300 164.302,219.204 161.398,219.698 160.874 C 220.192 160.350,223.110 157.433,223.572 157.000 C 224.034 156.568,226.939 153.663,227.494 153.078 C 228.049 152.494,230.953 149.589,231.415 149.157 C 231.757 148.837,234.644 145.961,235.339 145.247 C 235.524 145.057,236.251 144.278,236.955 143.516 C 237.659 142.754,238.765 141.798,239.412 141.391 C 240.059 140.984,240.819 140.328,241.101 139.933 C 241.383 139.539,241.829 139.216,242.092 139.216 C 242.355 139.216,242.873 138.863,243.242 138.431 C 243.612 138.000,244.250 137.647,244.661 137.647 C 245.072 137.647,245.818 137.221,246.320 136.700 L 247.232 135.752 248.149 136.669 C 248.653 137.173,249.761 137.703,250.611 137.847 C 251.461 137.991,252.157 138.260,252.157 138.446 C 252.157 138.632,253.127 139.089,254.314 139.463 C 255.500 139.837,256.471 140.270,256.471 140.425 C 256.471 140.581,257.016 140.898,257.682 141.130 C 258.348 141.362,258.986 141.909,259.100 142.345 C 259.214 142.781,259.448 143.137,259.621 143.137 C 260.644 143.137,260.615 150.559,259.591 150.915 C 259.385 150.987,259.216 151.378,259.216 151.784 C 259.216 152.941,257.969 155.264,257.220 155.501 C 256.848 155.619,256.444 155.974,256.323 156.289 C 256.202 156.605,255.833 156.863,255.503 156.863 C 255.172 156.863,254.902 157.025,254.902 157.223 C 254.902 157.710,251.923 160.784,251.451 160.784 C 251.244 160.784,250.856 161.314,250.588 161.961 C 250.320 162.608,249.973 163.137,249.816 163.137 C 249.557 163.137,248.071 164.253,247.349 164.990 C 247.186 165.157,246.346 166.000,245.483 166.863 C 244.621 167.725,243.749 168.608,243.546 168.824 C 243.067 169.332,240.163 172.236,239.624 172.745 C 239.086 173.253,236.215 176.124,235.585 176.784 C 234.955 177.444,232.318 180.081,231.781 180.588 C 231.242 181.097,228.338 184.001,227.859 184.510 C 227.381 185.018,224.504 187.895,223.843 188.526 C 223.563 188.794,222.651 189.720,221.817 190.585 C 220.982 191.449,220.144 192.157,219.954 192.157 C 219.764 192.157,219.608 194.010,219.608 196.275 C 219.608 198.539,219.764 200.392,219.954 200.392 C 220.144 200.392,221.004 201.121,221.864 202.012 C 222.724 202.902,223.583 203.776,223.773 203.953 C 224.221 204.371,227.380 207.530,227.859 208.039 C 228.062 208.255,228.892 209.095,229.702 209.905 C 230.513 210.716,231.353 211.546,231.569 211.749 C 232.077 212.227,234.954 215.104,235.585 215.765 C 235.852 216.045,236.735 216.938,237.546 217.749 C 238.356 218.559,239.196 219.389,239.412 219.592 C 239.920 220.070,242.825 222.975,243.333 223.513 C 243.549 223.742,244.431 224.634,245.294 225.497 C 246.157 226.360,247.039 227.245,247.255 227.464 C 248.068 228.291,249.542 229.412,249.816 229.412 C 249.973 229.412,250.320 229.941,250.588 230.588 C 250.856 231.235,251.244 231.765,251.451 231.765 C 251.923 231.765,254.902 234.839,254.902 235.326 C 254.902 235.524,255.172 235.686,255.503 235.686 C 255.833 235.686,256.202 235.944,256.323 236.260 C 256.444 236.575,256.848 236.930,257.220 237.048 C 257.969 237.285,259.216 239.608,259.216 240.765 C 259.216 241.171,259.385 241.562,259.591 241.634 C 260.615 241.990,260.644 249.412,259.621 249.412 C 259.448 249.412,259.214 249.768,259.100 250.204 C 258.986 250.640,258.348 251.187,257.682 251.419 C 257.016 251.651,256.471 251.968,256.471 252.124 C 256.471 252.279,255.500 252.712,254.314 253.086 C 253.127 253.460,252.157 253.918,252.157 254.103 C 252.157 254.289,251.455 254.559,250.598 254.704 C 249.740 254.849,248.643 255.379,248.158 255.882 L 247.278 256.797 246.331 255.849 C 245.810 255.328,245.053 254.902,244.649 254.902 C 244.244 254.902,243.612 254.549,243.242 254.118 C 242.873 253.686,242.355 253.333,242.092 253.333 C 241.829 253.333,241.383 253.010,241.101 252.616 C 240.819 252.221,240.059 251.565,239.412 251.158 C 238.765 250.751,237.659 249.795,236.955 249.033 C 236.251 248.271,235.546 247.513,235.387 247.349 C 234.787 246.731,231.944 243.899,231.569 243.546 C 231.353 243.343,230.471 242.471,229.608 241.608 C 228.745 240.745,227.820 239.810,227.552 239.529 C 226.922 238.869,224.051 235.998,223.513 235.490 C 222.974 234.981,220.057 232.063,219.639 231.616 C 219.221 231.168,216.300 228.247,215.776 227.753 C 215.253 227.260,212.348 224.355,211.855 223.832 C 211.361 223.308,208.457 220.404,207.933 219.910 C 205.070 217.211,204.314 216.411,204.314 216.086 C 204.314 215.874,203.873 215.590,203.333 215.455 C 202.794 215.320,202.353 215.061,202.353 214.881 C 202.353 214.050,200.220 213.493,199.118 214.036 C 198.525 214.328,198.039 214.712,198.039 214.888 C 198.039 215.065,197.598 215.320,197.059 215.455 C 196.520 215.590,196.078 215.874,196.078 216.086 C 196.078 216.399,194.785 217.765,192.448 219.922 C 192.061 220.278,189.123 223.216,188.644 223.725 C 188.165 224.235,185.126 227.273,184.663 227.706 C 184.200 228.139,181.080 231.259,180.647 231.722 C 180.214 232.185,177.283 235.116,176.820 235.549 C 176.358 235.981,173.453 238.886,172.899 239.471 C 172.344 240.055,169.453 242.946,168.930 243.439 C 168.539 243.808,165.877 246.460,165.100 247.255 C 164.889 247.471,164.141 248.271,163.437 249.033 C 162.733 249.795,161.627 250.751,160.980 251.158 C 160.333 251.565,159.573 252.221,159.291 252.616 C 159.010 253.010,158.564 253.333,158.300 253.333 C 158.037 253.333,157.519 253.686,157.150 254.118 C 156.780 254.549,156.142 254.902,155.731 254.902 C 155.320 254.902,154.574 255.328,154.072 255.849 L 153.161 256.797 152.254 255.891 C 151.756 255.392,150.736 254.870,149.988 254.729 C 149.240 254.589,148.627 254.325,148.627 254.142 C 148.627 253.960,147.569 253.493,146.275 253.105 C 144.980 252.718,143.922 252.275,143.922 252.121 C 143.922 251.967,143.391 251.657,142.743 251.431 C 142.027 251.181,141.401 250.592,141.150 249.930 C 140.922 249.330,140.542 248.720,140.306 248.574 C 139.809 248.267,139.854 243.866,140.357 243.545 C 140.539 243.428,140.819 242.539,140.978 241.569 C 141.352 239.287,141.774 238.514,143.491 236.955 C 144.267 236.251,145.036 235.546,145.200 235.387 C 145.823 234.782,148.743 231.851,149.051 231.521 C 149.469 231.073,152.521 228.021,152.984 227.588 C 153.447 227.155,156.567 224.035,157.000 223.572 C 157.433 223.110,160.350 220.192,160.874 219.698 C 161.398 219.204,164.302 216.300,164.796 215.776 C 165.290 215.252,168.208 212.334,168.670 211.902 C 169.132 211.470,172.037 208.565,172.592 207.980 C 173.146 207.396,176.037 204.505,176.561 204.012 C 176.783 203.802,177.668 202.902,178.528 202.012 C 179.388 201.121,180.248 200.392,180.438 200.392 C 180.629 200.392,180.784 198.539,180.784 196.275 C 180.784 194.010,180.629 192.157,180.438 192.157 C 180.248 192.157,179.388 191.428,178.528 190.537 C 177.668 189.647,176.783 188.747,176.561 188.537 C 176.037 188.044,173.133 185.139,172.639 184.616 C 172.145 184.092,169.241 181.188,168.717 180.694 C 168.194 180.201,165.289 177.296,164.796 176.773 C 164.302 176.249,161.398 173.345,160.874 172.851 C 160.351 172.358,157.446 169.453,156.953 168.930 C 156.459 168.406,153.572 165.519,152.972 164.949 C 152.373 164.380,149.603 161.610,149.110 161.087 C 148.745 160.700,145.819 157.764,145.200 157.162 C 145.036 157.004,144.267 156.298,143.491 155.594 C 141.774 154.035,141.352 153.262,140.978 150.980 C 140.819 150.010,140.539 149.121,140.357 149.004 C 139.854 148.683,139.809 144.282,140.306 143.975 C 140.542 143.829,140.922 143.219,141.150 142.619 C 141.401 141.957,142.027 141.368,142.743 141.118 C 143.391 140.892,143.922 140.582,143.922 140.428 C 143.922 140.274,144.980 139.831,146.275 139.444 C 147.569 139.056,148.627 138.589,148.627 138.407 C 148.627 138.224,149.246 137.959,150.001 137.817 C 150.756 137.675,151.766 137.153,152.244 136.656 L 153.114 135.752 154.061 136.700 C 154.583 137.221,155.340 137.647,155.744 137.647 " fill="#54545c" stroke="none" fill-rule="evenodd"/>
  <path id="path4" d="M396.961 153.222 C 397.554 153.312,398.525 153.312,399.118 153.222 C 399.711 153.132,399.225 153.059,398.039 153.059 C 396.853 153.059,396.368 153.132,396.961 153.222 " fill="#7c70b0" stroke="none" fill-rule="evenodd"/>
 </g>
</svg>
