<svg id="svg" xmlns="http://www.w3.org/2000/svg" version="1.1" xmlns:xlink="http://www.w3.org/1999/xlink" width="400" viewBox="0, 0, 400,400" height="400">
 <g id="svgg">
  <path fill="#b41d2c" fill-rule="evenodd" stroke="none" id="path0" d="M181.000 47.491 C 180.340 47.585,179.629 47.828,179.420 48.031 C 179.211 48.234,177.670 48.400,175.996 48.400 C 173.940 48.400,172.701 48.590,172.176 48.987 C 171.709 49.341,170.485 49.580,169.100 49.587 C 167.835 49.594,166.800 49.780,166.800 50.000 C 166.800 50.222,165.743 50.400,164.429 50.400 C 162.854 50.400,161.856 50.602,161.457 51.000 C 161.127 51.330,160.304 51.600,159.629 51.600 C 158.953 51.600,158.400 51.780,158.400 52.000 C 158.400 52.220,157.511 52.400,156.424 52.400 C 155.337 52.400,154.336 52.580,154.200 52.800 C 154.064 53.020,153.648 53.201,153.276 53.202 C 152.904 53.204,152.084 53.474,151.454 53.802 C 150.824 54.131,149.800 54.400,149.178 54.400 C 148.556 54.400,147.936 54.580,147.800 54.800 C 147.664 55.020,147.045 55.200,146.425 55.200 C 145.805 55.200,145.074 55.470,144.800 55.800 C 144.526 56.130,143.975 56.400,143.575 56.400 C 143.175 56.400,142.736 56.580,142.600 56.800 C 142.464 57.020,142.002 57.200,141.573 57.200 C 140.920 57.200,138.664 58.184,136.000 59.630 C 135.237 60.044,127.454 63.870,125.600 64.742 C 124.830 65.104,124.140 65.535,124.067 65.700 C 123.993 65.865,123.697 66.000,123.409 66.000 C 123.120 66.000,122.460 66.447,121.942 66.993 C 121.424 67.539,120.771 67.989,120.492 67.993 C 119.799 68.003,117.172 69.704,116.238 70.748 C 115.819 71.217,115.189 71.603,114.838 71.607 C 114.487 71.611,113.776 72.061,113.258 72.607 C 112.740 73.153,112.082 73.600,111.796 73.600 C 111.509 73.600,110.341 74.500,109.200 75.600 C 108.059 76.700,106.827 77.601,106.462 77.603 C 106.098 77.605,105.086 78.415,104.213 79.403 C 103.340 80.391,102.375 81.200,102.069 81.200 C 101.364 81.200,101.196 81.356,91.276 91.276 C 81.356 101.196,81.200 101.364,81.200 102.069 C 81.200 102.375,80.391 103.340,79.403 104.213 C 78.415 105.086,77.605 106.112,77.603 106.493 C 77.601 106.874,76.970 107.834,76.200 108.627 C 75.430 109.420,74.800 110.283,74.800 110.545 C 74.800 110.807,74.086 111.737,73.213 112.611 C 72.340 113.485,71.620 114.487,71.613 114.838 C 71.606 115.189,71.240 115.802,70.800 116.200 C 70.360 116.598,70.000 117.135,70.000 117.392 C 70.000 117.650,69.550 118.283,69.000 118.800 C 68.450 119.317,67.997 120.023,67.993 120.370 C 67.989 120.716,67.539 121.424,66.993 121.942 C 66.447 122.460,66.000 123.120,66.000 123.409 C 66.000 123.697,65.865 123.993,65.700 124.067 C 65.535 124.140,65.104 124.830,64.742 125.600 C 63.870 127.454,60.044 135.237,59.630 136.000 C 58.184 138.664,57.200 140.920,57.200 141.573 C 57.200 142.002,57.020 142.464,56.800 142.600 C 56.580 142.736,56.400 143.380,56.400 144.032 C 56.400 144.683,55.950 145.929,55.400 146.800 C 54.850 147.671,54.400 148.817,54.400 149.346 C 54.400 149.876,54.131 150.824,53.802 151.454 C 53.474 152.084,53.204 152.904,53.202 153.276 C 53.201 153.648,53.020 154.064,52.800 154.200 C 52.580 154.336,52.400 155.337,52.400 156.424 C 52.400 157.511,52.220 158.400,52.000 158.400 C 51.780 158.400,51.600 159.223,51.600 160.229 C 51.600 161.321,51.358 162.299,51.000 162.657 C 50.647 163.010,50.400 163.987,50.400 165.029 C 50.400 166.003,50.220 166.800,50.000 166.800 C 49.780 166.800,49.594 167.835,49.587 169.100 C 49.580 170.485,49.341 171.709,48.987 172.176 C 48.590 172.701,48.400 173.940,48.400 175.996 C 48.400 177.670,48.217 179.223,47.993 179.447 C 47.418 180.022,47.039 185.770,47.372 188.879 C 47.759 192.494,47.479 192.417,59.919 192.318 C 65.573 192.273,68.625 192.175,66.700 192.102 L 63.200 191.969 63.208 190.284 C 63.216 188.826,64.071 182.130,65.186 174.800 C 65.370 173.590,65.820 171.430,66.187 170.000 C 66.554 168.570,66.951 166.724,67.069 165.897 C 67.188 165.071,67.445 164.295,67.642 164.174 C 67.839 164.052,68.000 163.580,68.000 163.125 C 68.000 162.412,69.466 157.447,70.399 155.000 C 71.781 151.377,72.127 150.513,72.441 149.905 C 72.638 149.523,72.800 149.033,72.800 148.816 C 72.800 148.254,74.493 144.560,77.298 139.000 C 78.630 136.360,80.000 133.615,80.343 132.900 C 80.686 132.185,81.109 131.600,81.283 131.600 C 81.458 131.600,81.600 131.415,81.600 131.189 C 81.600 130.652,87.308 121.663,88.377 120.517 C 88.830 120.031,89.200 119.489,89.200 119.313 C 89.200 119.136,89.605 118.544,90.100 117.996 C 90.595 117.448,91.530 116.280,92.179 115.400 C 92.827 114.520,93.465 113.710,93.596 113.600 C 93.727 113.490,95.112 111.870,96.673 110.000 C 99.683 106.394,107.685 98.431,110.959 95.784 C 112.037 94.913,113.117 94.013,113.359 93.786 C 113.602 93.558,114.520 92.838,115.400 92.186 C 116.280 91.533,117.448 90.595,117.996 90.100 C 118.544 89.605,119.136 89.200,119.313 89.200 C 119.489 89.200,120.031 88.830,120.517 88.377 C 121.623 87.346,130.643 81.600,131.155 81.600 C 131.363 81.600,131.593 81.456,131.667 81.281 C 131.957 80.586,147.701 72.800,148.816 72.800 C 149.033 72.800,149.523 72.635,149.905 72.434 C 151.480 71.603,153.560 70.800,154.137 70.800 C 154.476 70.800,154.864 70.620,155.000 70.400 C 155.136 70.180,155.741 70.000,156.344 70.000 C 156.947 70.000,157.611 69.846,157.820 69.658 C 158.340 69.189,162.165 68.000,163.152 68.000 C 163.592 68.000,164.052 67.839,164.174 67.642 C 164.295 67.445,165.071 67.188,165.897 67.069 C 166.724 66.951,168.570 66.554,170.000 66.187 C 171.430 65.820,173.590 65.366,174.800 65.177 C 176.010 64.988,178.710 64.561,180.800 64.228 C 182.890 63.896,186.258 63.502,188.284 63.354 L 191.967 63.084 192.101 66.642 C 192.175 68.599,192.273 65.573,192.318 59.919 C 192.413 48.014,192.371 47.814,189.702 47.449 C 187.772 47.184,182.992 47.207,181.000 47.491 M209.755 47.460 C 207.720 47.758,207.592 48.525,207.675 59.919 C 207.718 65.971,207.842 68.801,207.975 66.800 L 208.200 63.400 211.400 63.456 C 214.230 63.505,216.567 63.799,225.200 65.194 C 229.989 65.967,232.217 66.459,232.580 66.821 C 232.789 67.029,233.456 67.200,234.061 67.200 C 234.667 67.200,235.576 67.362,236.081 67.560 C 236.587 67.758,238.170 68.238,239.600 68.627 C 241.030 69.017,242.371 69.485,242.580 69.668 C 242.789 69.850,243.363 70.000,243.856 70.000 C 244.349 70.000,244.864 70.180,245.000 70.400 C 245.136 70.620,245.524 70.800,245.863 70.800 C 246.202 70.800,247.046 71.050,247.740 71.356 C 248.433 71.662,249.757 72.198,250.683 72.546 C 254.979 74.164,269.083 81.069,270.000 82.004 C 270.110 82.116,270.875 82.562,271.700 82.995 C 272.525 83.428,273.200 83.921,273.200 84.091 C 273.200 84.261,273.395 84.400,273.633 84.400 C 273.989 84.400,282.274 90.150,284.400 91.872 C 294.000 99.651,301.024 106.672,308.136 115.600 C 310.009 117.950,315.600 126.016,315.600 126.367 C 315.600 126.605,315.739 126.800,315.909 126.800 C 316.079 126.800,316.572 127.475,317.005 128.300 C 317.438 129.125,317.884 129.890,317.996 130.000 C 318.108 130.110,318.396 130.560,318.637 131.000 C 318.877 131.440,319.622 132.790,320.292 134.000 C 321.790 136.703,323.676 140.465,324.603 142.600 C 324.985 143.480,325.714 145.100,326.223 146.200 C 326.732 147.300,327.379 148.920,327.661 149.800 C 327.943 150.680,328.404 151.755,328.687 152.189 C 328.969 152.623,329.200 153.388,329.200 153.889 C 329.200 154.390,329.380 154.800,329.600 154.800 C 329.820 154.800,330.000 155.075,330.000 155.411 C 330.000 155.747,330.465 157.502,331.034 159.311 C 332.662 164.492,332.800 165.006,332.800 165.883 C 332.800 166.337,333.069 167.224,333.398 167.854 C 333.726 168.484,333.996 169.664,333.998 170.476 C 333.999 171.288,334.180 172.064,334.400 172.200 C 334.620 172.336,334.800 173.258,334.800 174.250 C 334.800 175.241,334.986 176.400,335.213 176.824 C 335.671 177.680,336.353 183.135,336.671 188.484 L 336.878 191.968 333.339 192.102 C 331.393 192.175,334.427 192.273,340.081 192.318 C 352.491 192.417,352.242 192.484,352.621 188.940 C 353.013 185.286,352.670 178.690,352.078 178.493 C 351.770 178.390,351.600 177.375,351.600 175.643 C 351.600 173.897,351.394 172.680,351.013 172.176 C 350.659 171.709,350.420 170.485,350.413 169.100 C 350.406 167.835,350.220 166.800,350.000 166.800 C 349.780 166.800,349.600 166.003,349.600 165.029 C 349.600 163.987,349.353 163.010,349.000 162.657 C 348.642 162.299,348.400 161.321,348.400 160.229 C 348.400 159.223,348.220 158.400,348.000 158.400 C 347.780 158.400,347.600 157.511,347.600 156.424 C 347.600 155.337,347.420 154.336,347.200 154.200 C 346.980 154.064,346.799 153.648,346.798 153.276 C 346.796 152.904,346.526 152.084,346.198 151.454 C 345.869 150.824,345.600 149.800,345.600 149.178 C 345.600 148.556,345.420 147.936,345.200 147.800 C 344.980 147.664,344.800 147.045,344.800 146.425 C 344.800 145.805,344.530 145.074,344.200 144.800 C 343.870 144.526,343.600 143.975,343.600 143.575 C 343.600 143.175,343.420 142.736,343.200 142.600 C 342.980 142.464,342.800 142.002,342.800 141.573 C 342.800 140.920,341.816 138.664,340.370 136.000 C 339.956 135.237,336.130 127.454,335.258 125.600 C 334.896 124.830,334.465 124.140,334.300 124.067 C 334.135 123.993,334.000 123.697,334.000 123.409 C 334.000 123.120,333.553 122.460,333.007 121.942 C 332.461 121.424,332.011 120.771,332.007 120.492 C 331.997 119.799,330.296 117.172,329.252 116.238 C 328.783 115.819,328.397 115.189,328.393 114.838 C 328.389 114.487,327.939 113.776,327.393 113.258 C 326.847 112.740,326.400 112.082,326.400 111.796 C 326.400 111.509,325.500 110.341,324.400 109.200 C 323.300 108.059,322.399 106.827,322.397 106.462 C 322.395 106.098,321.585 105.086,320.597 104.213 C 319.609 103.340,318.800 102.375,318.800 102.069 C 318.800 101.364,318.644 101.196,308.724 91.276 C 298.804 81.356,298.636 81.200,297.931 81.200 C 297.625 81.200,296.660 80.391,295.787 79.403 C 294.914 78.415,293.902 77.605,293.538 77.603 C 293.173 77.601,291.941 76.700,290.800 75.600 C 289.659 74.500,288.491 73.600,288.204 73.600 C 287.918 73.600,287.260 73.153,286.742 72.607 C 286.224 72.061,285.513 71.611,285.162 71.607 C 284.811 71.603,284.181 71.217,283.762 70.748 C 282.828 69.704,280.201 68.003,279.508 67.993 C 279.229 67.989,278.576 67.539,278.058 66.993 C 277.540 66.447,276.880 66.000,276.591 66.000 C 276.303 66.000,276.007 65.865,275.933 65.700 C 275.860 65.535,275.170 65.104,274.400 64.742 C 272.546 63.870,264.763 60.044,264.000 59.630 C 261.336 58.184,259.080 57.200,258.427 57.200 C 257.998 57.200,257.536 57.020,257.400 56.800 C 257.264 56.580,256.825 56.400,256.425 56.400 C 256.025 56.400,255.474 56.130,255.200 55.800 C 254.926 55.470,254.195 55.200,253.575 55.200 C 252.955 55.200,252.336 55.020,252.200 54.800 C 252.064 54.580,251.444 54.400,250.822 54.400 C 250.200 54.400,249.176 54.131,248.546 53.802 C 247.916 53.474,247.096 53.204,246.724 53.202 C 246.352 53.201,245.936 53.020,245.800 52.800 C 245.664 52.580,244.663 52.400,243.576 52.400 C 242.489 52.400,241.600 52.220,241.600 52.000 C 241.600 51.780,241.047 51.600,240.371 51.600 C 239.696 51.600,238.873 51.330,238.543 51.000 C 238.144 50.602,237.146 50.400,235.571 50.400 C 234.257 50.400,233.200 50.222,233.200 50.000 C 233.200 49.780,232.165 49.594,230.900 49.587 C 229.515 49.580,228.291 49.341,227.824 48.987 C 227.299 48.590,226.060 48.400,224.004 48.400 C 222.276 48.400,220.765 48.205,220.508 47.948 C 220.043 47.483,212.065 47.120,209.755 47.460 M48.527 208.076 C 47.108 208.762,46.661 219.221,47.993 220.553 C 48.217 220.777,48.400 222.330,48.400 224.004 C 48.400 226.060,48.590 227.299,48.987 227.824 C 49.341 228.291,49.580 229.515,49.587 230.900 C 49.594 232.165,49.780 233.200,50.000 233.200 C 50.220 233.200,50.400 233.997,50.400 234.971 C 50.400 236.013,50.647 236.990,51.000 237.343 C 51.358 237.701,51.600 238.679,51.600 239.771 C 51.600 240.777,51.780 241.600,52.000 241.600 C 52.220 241.600,52.400 242.489,52.400 243.576 C 52.400 244.663,52.580 245.664,52.800 245.800 C 53.020 245.936,53.201 246.352,53.202 246.724 C 53.204 247.096,53.474 247.916,53.802 248.546 C 54.131 249.176,54.400 250.124,54.400 250.654 C 54.400 251.183,54.850 252.329,55.400 253.200 C 55.950 254.071,56.400 255.317,56.400 255.968 C 56.400 256.620,56.580 257.264,56.800 257.400 C 57.020 257.536,57.200 257.998,57.200 258.427 C 57.200 259.080,58.184 261.336,59.630 264.000 C 60.044 264.763,63.870 272.546,64.742 274.400 C 65.104 275.170,65.535 275.860,65.700 275.933 C 65.865 276.007,66.000 276.303,66.000 276.591 C 66.000 276.880,66.447 277.540,66.993 278.058 C 67.539 278.576,67.989 279.284,67.993 279.630 C 67.997 279.977,68.450 280.683,69.000 281.200 C 69.550 281.717,70.000 282.350,70.000 282.608 C 70.000 282.865,70.360 283.402,70.800 283.800 C 71.240 284.198,71.606 284.811,71.613 285.162 C 71.620 285.513,72.340 286.515,73.213 287.389 C 74.086 288.263,74.800 289.193,74.800 289.455 C 74.800 289.717,75.430 290.580,76.200 291.373 C 76.970 292.166,77.601 293.126,77.603 293.507 C 77.605 293.888,78.415 294.914,79.403 295.787 C 80.391 296.660,81.200 297.625,81.200 297.931 C 81.200 298.636,81.356 298.804,91.276 308.724 C 101.196 318.644,101.364 318.800,102.069 318.800 C 102.375 318.800,103.340 319.609,104.213 320.597 C 105.086 321.585,106.112 322.395,106.493 322.397 C 106.874 322.399,107.834 323.030,108.627 323.800 C 109.420 324.570,110.283 325.200,110.545 325.200 C 110.807 325.200,111.737 325.914,112.611 326.787 C 113.485 327.660,114.487 328.380,114.838 328.387 C 115.189 328.394,115.819 328.783,116.238 329.252 C 117.172 330.296,119.799 331.997,120.492 332.007 C 120.771 332.011,121.424 332.461,121.942 333.007 C 122.460 333.553,123.120 334.000,123.409 334.000 C 123.697 334.000,123.993 334.135,124.067 334.300 C 124.140 334.465,124.830 334.896,125.600 335.258 C 127.454 336.130,135.237 339.956,136.000 340.370 C 138.664 341.816,140.920 342.800,141.573 342.800 C 142.002 342.800,142.464 342.980,142.600 343.200 C 142.736 343.420,143.175 343.600,143.575 343.600 C 143.975 343.600,144.526 343.870,144.800 344.200 C 145.074 344.530,145.805 344.800,146.425 344.800 C 147.045 344.800,147.664 344.980,147.800 345.200 C 147.936 345.420,148.556 345.600,149.178 345.600 C 149.800 345.600,150.824 345.869,151.454 346.198 C 152.084 346.526,152.904 346.796,153.276 346.798 C 153.648 346.799,154.064 346.980,154.200 347.200 C 154.336 347.420,155.337 347.600,156.424 347.600 C 157.511 347.600,158.400 347.780,158.400 348.000 C 158.400 348.220,158.953 348.400,159.629 348.400 C 160.304 348.400,161.127 348.670,161.457 349.000 C 161.856 349.398,162.854 349.600,164.429 349.600 C 165.743 349.600,166.800 349.778,166.800 350.000 C 166.800 350.220,167.835 350.406,169.100 350.413 C 170.485 350.420,171.709 350.659,172.176 351.013 C 172.701 351.410,173.940 351.600,175.996 351.600 C 177.670 351.600,179.223 351.783,179.447 352.007 C 180.022 352.582,185.770 352.961,188.879 352.628 C 192.494 352.241,192.417 352.521,192.318 340.081 C 192.273 334.427,192.175 331.393,192.102 333.339 L 191.968 336.878 188.484 336.674 C 183.516 336.383,178.089 335.676,177.207 335.204 C 176.792 334.982,175.551 334.800,174.450 334.800 C 173.348 334.800,172.336 334.620,172.200 334.400 C 172.064 334.180,171.322 334.000,170.550 334.000 C 169.779 334.000,168.802 333.815,168.379 333.589 C 167.683 333.216,166.499 332.908,163.000 332.187 C 162.340 332.051,161.440 331.800,161.000 331.630 C 158.786 330.772,157.295 330.290,156.295 330.108 C 155.687 329.998,155.092 329.749,154.971 329.554 C 154.851 329.359,154.353 329.200,153.865 329.200 C 153.377 329.200,152.623 328.969,152.189 328.687 C 151.755 328.404,150.680 327.943,149.800 327.661 C 148.920 327.379,147.300 326.736,146.200 326.231 C 142.263 324.425,133.796 320.259,133.600 320.032 C 133.490 319.904,132.770 319.462,132.000 319.049 C 128.527 317.185,126.990 316.254,126.867 315.939 C 126.793 315.753,126.551 315.600,126.329 315.600 C 125.662 315.600,116.537 308.954,111.800 305.018 C 108.218 302.041,99.722 293.772,97.330 290.934 C 93.561 286.461,90.583 282.677,87.864 278.903 C 86.399 276.870,85.200 275.102,85.200 274.975 C 85.200 274.848,84.615 273.902,83.901 272.872 C 83.186 271.842,82.398 270.640,82.150 270.200 C 80.035 266.445,78.956 264.407,77.067 260.600 C 74.363 255.149,72.800 251.701,72.800 251.184 C 72.800 250.967,72.635 250.477,72.434 250.095 C 71.698 248.700,70.800 246.468,70.800 246.034 C 70.800 245.789,70.638 245.277,70.440 244.895 C 69.807 243.671,68.000 237.733,68.000 236.875 C 68.000 236.420,67.839 235.948,67.642 235.826 C 67.445 235.705,67.188 234.929,67.069 234.103 C 66.951 233.276,66.554 231.430,66.187 230.000 C 65.467 227.193,65.288 226.119,64.012 217.000 C 63.550 213.700,63.224 210.370,63.286 209.600 L 63.400 208.200 66.800 207.975 C 68.702 207.848,65.619 207.728,59.800 207.702 C 53.222 207.672,49.079 207.809,48.527 208.076 M333.200 207.975 L 336.600 208.200 336.564 211.400 C 336.518 215.458,335.745 222.182,335.209 223.182 C 334.984 223.603,334.800 224.759,334.800 225.750 C 334.800 226.742,334.620 227.664,334.400 227.800 C 334.180 227.936,334.001 228.622,334.002 229.324 C 334.003 230.026,333.745 231.410,333.430 232.400 C 333.114 233.390,332.649 235.010,332.398 236.000 C 331.141 240.946,329.613 245.621,328.563 247.732 C 328.253 248.355,328.000 249.123,328.000 249.438 C 328.000 249.753,327.840 250.323,327.645 250.705 C 327.268 251.443,325.704 254.872,324.683 257.200 C 323.318 260.312,321.909 263.143,320.403 265.800 C 319.530 267.340,318.690 268.870,318.537 269.200 C 318.384 269.530,318.155 269.890,318.029 270.000 C 317.903 270.110,317.457 270.830,317.038 271.600 C 316.285 272.982,308.915 283.613,308.440 284.000 C 308.306 284.110,307.661 284.920,307.008 285.800 C 302.695 291.613,291.613 302.695,285.800 307.008 C 284.920 307.661,284.110 308.306,284.000 308.440 C 283.613 308.915,272.982 316.285,271.600 317.038 C 270.830 317.457,270.110 317.890,270.000 318.000 C 269.890 318.110,269.440 318.396,269.000 318.637 C 268.560 318.877,267.120 319.670,265.800 320.400 C 264.480 321.130,263.130 321.872,262.800 322.048 C 262.050 322.450,253.753 326.296,252.400 326.870 C 251.850 327.103,251.087 327.452,250.705 327.647 C 250.323 327.841,249.693 328.006,249.305 328.013 C 248.917 328.020,248.251 328.290,247.824 328.613 C 247.396 328.936,246.631 329.200,246.124 329.200 C 245.616 329.200,245.200 329.380,245.200 329.600 C 245.200 329.820,244.696 330.000,244.080 330.000 C 243.464 330.000,242.789 330.157,242.580 330.349 C 242.221 330.678,239.372 331.563,235.800 332.455 C 234.920 332.675,233.390 333.114,232.400 333.430 C 231.410 333.745,230.026 334.003,229.324 334.002 C 228.622 334.001,227.936 334.180,227.800 334.400 C 227.664 334.620,226.652 334.800,225.550 334.800 C 224.449 334.800,223.211 334.980,222.799 335.201 C 221.772 335.750,215.288 336.527,211.400 336.567 L 208.200 336.600 207.975 333.200 C 207.842 331.199,207.718 334.029,207.675 340.081 C 207.584 352.520,207.508 352.241,211.121 352.628 C 214.230 352.961,219.978 352.582,220.553 352.007 C 220.777 351.783,222.330 351.600,224.004 351.600 C 226.060 351.600,227.299 351.410,227.824 351.013 C 228.291 350.659,229.515 350.420,230.900 350.413 C 232.165 350.406,233.200 350.220,233.200 350.000 C 233.200 349.778,234.257 349.600,235.571 349.600 C 237.146 349.600,238.144 349.398,238.543 349.000 C 238.873 348.670,239.696 348.400,240.371 348.400 C 241.047 348.400,241.600 348.220,241.600 348.000 C 241.600 347.780,242.489 347.600,243.576 347.600 C 244.663 347.600,245.664 347.420,245.800 347.200 C 245.936 346.980,246.352 346.799,246.724 346.798 C 247.096 346.796,247.916 346.526,248.546 346.198 C 249.176 345.869,250.200 345.600,250.822 345.600 C 251.444 345.600,252.064 345.420,252.200 345.200 C 252.336 344.980,252.955 344.800,253.575 344.800 C 254.195 344.800,254.926 344.530,255.200 344.200 C 255.474 343.870,256.025 343.600,256.425 343.600 C 256.825 343.600,257.264 343.420,257.400 343.200 C 257.536 342.980,257.998 342.800,258.427 342.800 C 259.080 342.800,261.336 341.816,264.000 340.370 C 264.763 339.956,272.546 336.130,274.400 335.258 C 275.170 334.896,275.860 334.465,275.933 334.300 C 276.007 334.135,276.303 334.000,276.591 334.000 C 276.880 334.000,277.540 333.553,278.058 333.007 C 278.576 332.461,279.229 332.011,279.508 332.007 C 280.201 331.997,282.828 330.296,283.762 329.252 C 284.181 328.783,284.811 328.397,285.162 328.393 C 285.513 328.389,286.224 327.939,286.742 327.393 C 287.260 326.847,287.918 326.400,288.204 326.400 C 288.491 326.400,289.659 325.500,290.800 324.400 C 291.941 323.300,293.173 322.399,293.538 322.397 C 293.902 322.395,294.914 321.585,295.787 320.597 C 296.660 319.609,297.625 318.800,297.931 318.800 C 298.636 318.800,298.804 318.644,308.724 308.724 C 318.644 298.804,318.800 298.636,318.800 297.931 C 318.800 297.625,319.609 296.660,320.597 295.787 C 321.585 294.914,322.395 293.902,322.397 293.538 C 322.399 293.173,323.300 291.941,324.400 290.800 C 325.500 289.659,326.400 288.491,326.400 288.204 C 326.400 287.918,326.847 287.260,327.393 286.742 C 327.939 286.224,328.389 285.513,328.393 285.162 C 328.397 284.811,328.783 284.181,329.252 283.762 C 330.296 282.828,331.997 280.201,332.007 279.508 C 332.011 279.229,332.461 278.576,333.007 278.058 C 333.553 277.540,334.000 276.880,334.000 276.591 C 334.000 276.303,334.135 276.007,334.300 275.933 C 334.465 275.860,334.896 275.170,335.258 274.400 C 336.130 272.546,339.956 264.763,340.370 264.000 C 341.816 261.336,342.800 259.080,342.800 258.427 C 342.800 257.998,342.980 257.536,343.200 257.400 C 343.420 257.264,343.600 256.825,343.600 256.425 C 343.600 256.025,343.870 255.474,344.200 255.200 C 344.530 254.926,344.800 254.195,344.800 253.575 C 344.800 252.955,344.980 252.336,345.200 252.200 C 345.420 252.064,345.600 251.444,345.600 250.822 C 345.600 250.200,345.869 249.176,346.198 248.546 C 346.526 247.916,346.796 247.096,346.798 246.724 C 346.799 246.352,346.980 245.936,347.200 245.800 C 347.420 245.664,347.600 244.663,347.600 243.576 C 347.600 242.489,347.780 241.600,348.000 241.600 C 348.220 241.600,348.400 240.777,348.400 239.771 C 348.400 238.679,348.642 237.701,349.000 237.343 C 349.353 236.990,349.600 236.013,349.600 234.971 C 349.600 233.997,349.780 233.200,350.000 233.200 C 350.220 233.200,350.406 232.165,350.413 230.900 C 350.420 229.515,350.659 228.291,351.013 227.824 C 351.394 227.320,351.600 226.103,351.600 224.357 C 351.600 222.625,351.770 221.610,352.078 221.507 C 352.670 221.310,353.013 214.714,352.621 211.060 C 352.242 207.517,352.490 207.585,340.081 207.675 C 334.029 207.718,331.199 207.842,333.200 207.975 "/>
  <path fill="#fbfbfb" fill-rule="evenodd" stroke="none" id="path1" d="M187.800 64.257 C 186.040 64.527,183.891 64.760,183.024 64.774 C 181.342 64.802,178.885 65.218,172.800 66.504 C 170.710 66.946,168.460 67.386,167.800 67.481 C 167.140 67.577,166.240 67.802,165.800 67.983 C 165.360 68.164,163.830 68.625,162.400 69.008 C 160.970 69.391,158.270 70.242,156.400 70.899 C 154.530 71.556,152.592 72.184,152.094 72.295 C 151.596 72.405,151.090 72.654,150.970 72.848 C 150.851 73.041,150.498 73.200,150.187 73.200 C 148.936 73.200,134.963 80.036,129.800 83.174 C 124.891 86.158,116.534 92.044,114.152 94.196 C 113.906 94.418,112.736 95.400,111.552 96.378 C 108.769 98.678,98.678 108.769,96.378 111.552 C 95.400 112.736,94.420 113.906,94.200 114.152 C 93.980 114.399,92.990 115.680,92.001 117.000 C 91.012 118.320,90.106 119.490,89.989 119.600 C 86.967 122.443,73.200 147.383,73.200 150.016 C 73.200 150.233,73.027 150.723,72.815 151.105 C 72.401 151.853,69.856 159.153,69.436 160.800 C 69.295 161.350,68.897 162.790,68.551 164.000 C 66.309 171.848,63.402 190.309,64.205 191.608 C 64.468 192.034,81.485 192.173,82.567 191.757 C 83.078 191.561,83.200 190.834,83.200 187.981 C 83.200 186.037,83.380 184.336,83.600 184.200 C 83.820 184.064,84.000 182.815,84.000 181.425 C 84.000 179.667,84.183 178.746,84.600 178.400 C 84.981 178.083,85.200 177.200,85.200 175.975 C 85.200 174.915,85.380 173.936,85.600 173.800 C 85.820 173.664,86.000 172.683,86.000 171.619 C 86.000 170.269,86.181 169.616,86.600 169.455 C 86.947 169.322,87.200 168.724,87.200 168.036 C 87.200 167.382,87.380 166.736,87.600 166.600 C 87.820 166.464,88.000 165.834,88.000 165.200 C 88.000 164.566,88.180 163.936,88.400 163.800 C 88.620 163.664,88.800 162.953,88.800 162.219 C 88.800 161.403,89.033 160.796,89.400 160.655 C 89.751 160.521,90.000 159.921,90.000 159.213 C 90.000 158.546,90.180 158.000,90.400 158.000 C 90.620 158.000,90.800 157.572,90.800 157.049 C 90.800 156.526,91.070 155.874,91.400 155.600 C 91.730 155.326,92.000 154.674,92.000 154.151 C 92.000 153.628,92.180 153.200,92.400 153.200 C 92.620 153.200,92.800 152.851,92.800 152.424 C 92.800 151.997,92.980 151.536,93.200 151.400 C 93.420 151.264,93.600 150.823,93.600 150.419 C 93.600 150.016,93.870 149.582,94.200 149.455 C 94.530 149.329,94.800 148.859,94.800 148.413 C 94.800 147.966,94.980 147.600,95.200 147.600 C 95.420 147.600,95.600 147.150,95.600 146.600 C 95.600 146.050,95.777 145.600,95.992 145.600 C 96.208 145.600,96.498 145.150,96.636 144.600 C 96.774 144.050,97.047 143.600,97.243 143.600 C 97.440 143.600,97.600 143.240,97.600 142.800 C 97.600 142.360,97.737 142.000,97.905 142.000 C 98.211 142.000,98.933 140.815,99.429 139.500 C 99.574 139.115,99.852 138.800,100.047 138.800 C 100.241 138.800,100.400 138.573,100.400 138.296 C 100.400 138.019,100.850 137.307,101.400 136.713 C 101.950 136.120,102.400 135.310,102.400 134.912 C 102.400 134.515,102.850 133.852,103.400 133.439 C 103.950 133.026,104.400 132.471,104.400 132.205 C 104.400 131.940,104.995 131.110,105.722 130.361 C 106.450 129.612,107.303 128.415,107.620 127.700 C 107.936 126.985,108.344 126.400,108.526 126.400 C 108.883 126.400,110.000 125.384,110.000 125.059 C 110.000 124.951,110.495 124.334,111.100 123.689 C 112.592 122.099,114.000 120.374,114.000 120.137 C 114.000 119.772,115.142 118.800,115.571 118.800 C 115.807 118.800,116.000 118.612,116.000 118.382 C 116.000 117.839,117.839 116.000,118.382 116.000 C 118.612 116.000,118.800 115.807,118.800 115.571 C 118.800 115.336,119.057 114.886,119.371 114.571 C 119.686 114.257,120.136 114.000,120.371 114.000 C 120.607 114.000,120.800 113.751,120.800 113.446 C 120.800 113.141,121.435 112.590,122.212 112.221 C 122.988 111.853,123.842 111.202,124.108 110.776 C 124.374 110.349,124.742 110.000,124.925 110.000 C 125.401 110.000,126.400 108.935,126.400 108.429 C 126.400 108.193,126.670 108.000,127.000 108.000 C 127.330 108.000,127.600 107.820,127.600 107.600 C 127.600 107.380,127.879 107.200,128.220 107.200 C 128.561 107.200,129.488 106.570,130.281 105.800 C 131.074 105.030,131.940 104.400,132.205 104.400 C 132.471 104.400,133.026 103.950,133.439 103.400 C 133.852 102.850,134.532 102.400,134.949 102.400 C 135.367 102.400,136.125 101.950,136.635 101.400 C 137.145 100.850,137.840 100.400,138.181 100.400 C 138.521 100.400,138.800 100.240,138.800 100.043 C 138.800 99.847,139.250 99.574,139.800 99.436 C 140.350 99.298,140.800 99.008,140.800 98.792 C 140.800 98.577,141.070 98.400,141.400 98.400 C 141.730 98.400,142.000 98.220,142.000 98.000 C 142.000 97.780,142.360 97.600,142.800 97.600 C 143.240 97.600,143.600 97.440,143.600 97.243 C 143.600 97.047,144.050 96.774,144.600 96.636 C 145.150 96.498,145.600 96.208,145.600 95.992 C 145.600 95.777,146.050 95.600,146.600 95.600 C 147.150 95.600,147.600 95.420,147.600 95.200 C 147.600 94.980,147.966 94.800,148.413 94.800 C 148.859 94.800,149.329 94.530,149.455 94.200 C 149.582 93.870,150.016 93.600,150.419 93.600 C 150.823 93.600,151.264 93.420,151.400 93.200 C 151.536 92.980,151.997 92.800,152.424 92.800 C 152.851 92.800,153.200 92.620,153.200 92.400 C 153.200 92.180,153.637 92.000,154.171 92.000 C 154.706 92.000,155.413 91.730,155.743 91.400 C 156.073 91.070,156.716 90.800,157.171 90.800 C 157.627 90.800,158.000 90.620,158.000 90.400 C 158.000 90.180,158.437 90.000,158.971 90.000 C 159.506 90.000,160.213 89.730,160.543 89.400 C 160.873 89.070,161.696 88.800,162.371 88.800 C 163.047 88.800,163.600 88.620,163.600 88.400 C 163.600 88.180,164.219 88.000,164.976 88.000 C 165.733 88.000,166.464 87.820,166.600 87.600 C 166.736 87.380,167.355 87.200,167.975 87.200 C 168.595 87.200,169.326 86.930,169.600 86.600 C 169.904 86.234,170.780 86.000,171.849 86.000 C 172.812 86.000,173.600 85.820,173.600 85.600 C 173.600 85.380,174.487 85.200,175.571 85.200 C 176.790 85.200,177.772 84.971,178.143 84.600 C 178.531 84.212,179.521 84.000,180.948 84.000 C 182.161 84.000,183.264 83.820,183.400 83.600 C 183.538 83.377,185.390 83.200,187.581 83.200 C 192.410 83.200,192.000 84.126,192.000 73.216 C 192.000 63.026,192.256 63.573,187.800 64.257 M208.261 68.262 C 207.936 73.569,207.931 81.103,208.252 82.300 C 208.481 83.156,208.686 83.200,212.423 83.200 C 214.611 83.200,216.462 83.377,216.600 83.600 C 216.736 83.820,217.839 84.000,219.052 84.000 C 220.479 84.000,221.469 84.212,221.857 84.600 C 222.228 84.971,223.210 85.200,224.429 85.200 C 225.513 85.200,226.400 85.380,226.400 85.600 C 226.400 85.820,227.188 86.000,228.151 86.000 C 229.220 86.000,230.096 86.234,230.400 86.600 C 230.674 86.930,231.405 87.200,232.025 87.200 C 232.645 87.200,233.264 87.380,233.400 87.600 C 233.536 87.820,234.267 88.000,235.024 88.000 C 235.781 88.000,236.400 88.180,236.400 88.400 C 236.400 88.620,236.953 88.800,237.629 88.800 C 238.304 88.800,239.127 89.070,239.457 89.400 C 239.787 89.730,240.494 90.000,241.029 90.000 C 241.563 90.000,242.000 90.180,242.000 90.400 C 242.000 90.620,242.428 90.800,242.951 90.800 C 243.474 90.800,244.126 91.070,244.400 91.400 C 244.674 91.730,245.326 92.000,245.849 92.000 C 246.372 92.000,246.800 92.180,246.800 92.400 C 246.800 92.620,247.149 92.800,247.576 92.800 C 248.003 92.800,248.464 92.980,248.600 93.200 C 248.736 93.420,249.177 93.600,249.581 93.600 C 249.984 93.600,250.418 93.870,250.545 94.200 C 250.671 94.530,251.141 94.800,251.587 94.800 C 252.034 94.800,252.400 94.980,252.400 95.200 C 252.400 95.420,252.850 95.600,253.400 95.600 C 253.950 95.600,254.400 95.777,254.400 95.992 C 254.400 96.208,254.850 96.498,255.400 96.636 C 255.950 96.774,256.400 97.047,256.400 97.243 C 256.400 97.440,256.698 97.600,257.062 97.600 C 257.426 97.600,258.314 98.050,259.036 98.600 C 259.757 99.150,260.539 99.600,260.773 99.600 C 261.008 99.600,261.200 99.780,261.200 100.000 C 261.200 100.220,261.479 100.400,261.819 100.400 C 262.160 100.400,262.855 100.850,263.365 101.400 C 263.875 101.950,264.633 102.400,265.051 102.400 C 265.468 102.400,266.148 102.850,266.561 103.400 C 266.974 103.950,267.529 104.400,267.795 104.400 C 268.060 104.400,268.926 105.030,269.719 105.800 C 270.512 106.570,271.439 107.200,271.780 107.200 C 272.121 107.200,272.400 107.380,272.400 107.600 C 272.400 107.820,272.670 108.000,273.000 108.000 C 273.330 108.000,273.600 108.193,273.600 108.429 C 273.600 108.889,274.583 110.000,274.991 110.000 C 275.127 110.000,275.635 110.408,276.119 110.906 C 276.604 111.404,277.495 112.064,278.100 112.373 C 278.705 112.682,279.200 113.175,279.200 113.468 C 279.200 113.760,279.393 114.000,279.629 114.000 C 280.182 114.000,281.200 115.018,281.200 115.571 C 281.200 115.807,281.388 116.000,281.618 116.000 C 282.161 116.000,284.000 117.839,284.000 118.382 C 284.000 118.612,284.193 118.800,284.429 118.800 C 284.878 118.800,286.000 119.779,286.000 120.171 C 286.000 120.297,286.315 120.742,286.700 121.160 C 289.228 123.904,290.000 124.807,290.000 125.018 C 290.000 125.419,291.115 126.400,291.571 126.400 C 291.807 126.400,292.000 126.670,292.000 127.000 C 292.000 127.330,292.180 127.600,292.400 127.600 C 292.620 127.600,292.800 127.894,292.800 128.253 C 292.800 128.612,293.430 129.500,294.200 130.226 C 294.970 130.952,295.600 131.803,295.600 132.117 C 295.600 132.431,296.050 133.026,296.600 133.439 C 297.150 133.852,297.600 134.532,297.600 134.949 C 297.600 135.367,298.050 136.125,298.600 136.635 C 299.150 137.145,299.600 137.840,299.600 138.181 C 299.600 138.521,299.780 138.800,300.000 138.800 C 300.220 138.800,300.400 139.070,300.400 139.400 C 300.400 139.730,300.567 140.000,300.771 140.000 C 301.198 140.000,302.400 142.259,302.400 143.061 C 302.400 143.358,302.560 143.600,302.757 143.600 C 302.953 143.600,303.226 144.050,303.364 144.600 C 303.502 145.150,303.792 145.600,304.008 145.600 C 304.223 145.600,304.400 146.050,304.400 146.600 C 304.400 147.150,304.580 147.600,304.800 147.600 C 305.020 147.600,305.200 147.966,305.200 148.413 C 305.200 148.859,305.470 149.329,305.800 149.455 C 306.130 149.582,306.400 150.016,306.400 150.419 C 306.400 150.823,306.580 151.264,306.800 151.400 C 307.020 151.536,307.200 151.997,307.200 152.424 C 307.200 152.851,307.380 153.200,307.600 153.200 C 307.820 153.200,308.000 153.526,308.000 153.924 C 308.000 154.321,308.264 154.996,308.587 155.424 C 308.910 155.851,309.180 156.605,309.187 157.100 C 309.194 157.595,309.380 158.000,309.600 158.000 C 309.820 158.000,310.000 158.546,310.000 159.213 C 310.000 159.921,310.249 160.521,310.600 160.655 C 310.970 160.797,311.200 161.405,311.200 162.243 C 311.200 162.989,311.360 163.600,311.556 163.600 C 311.752 163.600,312.005 164.185,312.119 164.900 C 312.503 167.318,313.156 169.385,313.579 169.526 C 313.810 169.603,314.000 170.541,314.000 171.610 C 314.000 172.678,314.180 173.664,314.400 173.800 C 314.620 173.936,314.800 174.834,314.800 175.795 C 314.800 176.815,315.050 177.793,315.400 178.143 C 315.812 178.554,316.000 179.568,316.000 181.371 C 316.000 182.857,316.174 184.000,316.400 184.000 C 316.638 184.000,316.800 185.519,316.800 187.757 C 316.800 192.381,315.911 192.002,326.733 191.994 C 334.924 191.988,336.804 191.777,336.277 190.924 C 336.152 190.723,335.855 188.588,335.615 186.179 C 334.026 170.205,329.611 154.706,322.460 140.000 C 321.444 137.910,320.475 136.140,320.306 136.067 C 320.138 135.993,319.996 135.723,319.992 135.467 C 319.988 135.210,318.908 133.216,317.592 131.036 C 316.276 128.855,315.200 126.920,315.200 126.736 C 315.200 126.551,315.049 126.400,314.864 126.400 C 314.680 126.400,314.342 125.995,314.113 125.500 C 311.697 120.261,297.379 103.793,289.400 97.075 C 284.499 92.950,282.442 91.349,278.400 88.519 C 269.149 82.042,255.355 74.722,248.000 72.386 C 247.450 72.211,245.650 71.580,244.000 70.982 C 242.350 70.385,240.460 69.753,239.800 69.576 C 239.140 69.400,237.610 68.957,236.400 68.592 C 235.190 68.228,233.480 67.788,232.600 67.616 C 231.720 67.443,229.290 66.938,227.200 66.493 C 222.668 65.527,219.152 64.978,213.923 64.416 C 207.943 63.774,208.561 63.355,208.261 68.262 M66.900 208.297 C 65.255 208.375,64.000 208.614,64.000 208.849 C 64.000 211.504,65.511 222.687,66.480 227.200 C 67.722 232.986,67.870 233.615,68.604 236.200 C 68.979 237.520,69.423 239.140,69.591 239.800 C 69.759 240.460,70.390 242.350,70.992 244.000 C 71.595 245.650,72.179 247.408,72.292 247.906 C 72.404 248.404,72.654 248.910,72.848 249.030 C 73.041 249.149,73.200 249.502,73.200 249.813 C 73.200 251.316,80.717 266.309,84.442 272.237 C 87.622 277.296,89.215 279.556,93.576 285.191 C 96.669 289.189,110.302 302.931,114.014 305.794 C 115.436 306.891,116.690 307.889,116.800 308.013 C 117.290 308.563,124.147 313.300,127.600 315.472 C 140.260 323.439,154.952 329.623,168.400 332.645 C 176.040 334.362,177.185 334.555,184.775 335.401 C 187.951 335.755,190.716 336.148,190.919 336.274 C 191.778 336.804,191.988 334.936,191.994 326.733 C 192.002 315.915,192.377 316.800,187.781 316.800 C 185.723 316.800,183.936 316.620,183.800 316.400 C 183.664 316.180,182.471 316.000,181.148 316.000 C 179.543 316.000,178.543 315.800,178.143 315.400 C 177.793 315.050,176.815 314.800,175.795 314.800 C 174.834 314.800,173.936 314.620,173.800 314.400 C 173.664 314.180,172.954 314.000,172.222 314.000 C 171.490 314.000,170.376 313.731,169.746 313.402 C 169.116 313.074,168.206 312.804,167.724 312.802 C 167.242 312.801,166.736 312.620,166.600 312.400 C 166.464 312.180,165.733 312.000,164.976 312.000 C 164.219 312.000,163.600 311.820,163.600 311.600 C 163.600 311.380,163.047 311.200,162.371 311.200 C 161.696 311.200,160.873 310.930,160.543 310.600 C 160.213 310.270,159.506 310.000,158.971 310.000 C 158.437 310.000,158.000 309.820,158.000 309.600 C 158.000 309.380,157.627 309.200,157.171 309.200 C 156.716 309.200,156.073 308.930,155.743 308.600 C 155.413 308.270,154.706 308.000,154.171 308.000 C 153.637 308.000,153.200 307.820,153.200 307.600 C 153.200 307.380,152.851 307.200,152.424 307.200 C 151.997 307.200,151.536 307.020,151.400 306.800 C 151.264 306.580,150.823 306.400,150.419 306.400 C 150.016 306.400,149.582 306.130,149.455 305.800 C 149.329 305.470,148.859 305.200,148.413 305.200 C 147.966 305.200,147.600 305.020,147.600 304.800 C 147.600 304.580,147.150 304.400,146.600 304.400 C 146.050 304.400,145.600 304.223,145.600 304.008 C 145.600 303.792,145.150 303.502,144.600 303.364 C 144.050 303.226,143.600 302.953,143.600 302.757 C 143.600 302.560,143.240 302.400,142.800 302.400 C 142.360 302.400,142.000 302.220,142.000 302.000 C 142.000 301.780,141.730 301.600,141.400 301.600 C 141.070 301.600,140.800 301.423,140.800 301.208 C 140.800 300.992,140.350 300.702,139.800 300.564 C 139.250 300.426,138.800 300.153,138.800 299.957 C 138.800 299.760,138.521 299.600,138.181 299.600 C 137.840 299.600,137.145 299.150,136.635 298.600 C 136.125 298.050,135.367 297.600,134.949 297.600 C 134.532 297.600,133.852 297.150,133.439 296.600 C 133.026 296.050,132.471 295.600,132.205 295.600 C 131.940 295.600,131.074 294.970,130.281 294.200 C 129.488 293.430,128.561 292.800,128.220 292.800 C 127.879 292.800,127.600 292.620,127.600 292.400 C 127.600 292.180,127.330 292.000,127.000 292.000 C 126.670 292.000,126.400 291.807,126.400 291.571 C 126.400 291.065,125.401 290.000,124.925 290.000 C 124.742 290.000,124.374 289.651,124.108 289.224 C 123.842 288.798,122.988 288.147,122.212 287.779 C 121.435 287.410,120.800 286.859,120.800 286.554 C 120.800 286.249,120.607 286.000,120.371 286.000 C 119.818 286.000,118.800 284.982,118.800 284.429 C 118.800 284.193,118.612 284.000,118.382 284.000 C 117.839 284.000,116.000 282.161,116.000 281.618 C 116.000 281.388,115.807 281.200,115.571 281.200 C 115.142 281.200,114.000 280.228,114.000 279.863 C 114.000 279.626,112.592 277.901,111.100 276.311 C 110.495 275.666,110.000 275.049,110.000 274.941 C 110.000 274.616,108.883 273.600,108.526 273.600 C 108.344 273.600,107.941 273.015,107.630 272.300 C 107.319 271.585,106.645 270.604,106.132 270.119 C 105.620 269.635,105.200 269.065,105.200 268.853 C 105.200 268.642,104.570 267.820,103.800 267.027 C 103.030 266.234,102.400 265.311,102.400 264.975 C 102.400 264.640,101.950 263.880,101.400 263.287 C 100.850 262.693,100.400 261.981,100.400 261.704 C 100.400 261.427,100.241 261.200,100.047 261.200 C 99.852 261.200,99.574 260.885,99.429 260.500 C 98.933 259.185,98.211 258.000,97.905 258.000 C 97.737 258.000,97.600 257.640,97.600 257.200 C 97.600 256.760,97.440 256.400,97.243 256.400 C 97.047 256.400,96.774 255.950,96.636 255.400 C 96.498 254.850,96.208 254.400,95.992 254.400 C 95.777 254.400,95.600 253.950,95.600 253.400 C 95.600 252.850,95.420 252.400,95.200 252.400 C 94.980 252.400,94.800 252.034,94.800 251.587 C 94.800 251.141,94.530 250.671,94.200 250.545 C 93.870 250.418,93.600 249.984,93.600 249.581 C 93.600 249.177,93.420 248.736,93.200 248.600 C 92.980 248.464,92.800 248.003,92.800 247.576 C 92.800 247.149,92.620 246.800,92.400 246.800 C 92.180 246.800,92.000 246.363,92.000 245.829 C 92.000 245.294,91.730 244.587,91.400 244.257 C 91.070 243.927,90.800 243.284,90.800 242.829 C 90.800 242.373,90.620 242.000,90.400 242.000 C 90.180 242.000,90.000 241.454,90.000 240.787 C 90.000 240.079,89.751 239.479,89.400 239.345 C 89.033 239.204,88.800 238.597,88.800 237.781 C 88.800 237.047,88.620 236.336,88.400 236.200 C 88.180 236.064,88.000 235.434,88.000 234.800 C 88.000 234.166,87.820 233.536,87.600 233.400 C 87.380 233.264,87.200 232.618,87.200 231.964 C 87.200 231.276,86.947 230.678,86.600 230.545 C 86.181 230.384,86.000 229.731,86.000 228.381 C 86.000 227.317,85.820 226.336,85.600 226.200 C 85.380 226.064,85.200 225.085,85.200 224.025 C 85.200 222.800,84.981 221.917,84.600 221.600 C 84.183 221.254,84.000 220.333,84.000 218.575 C 84.000 217.185,83.820 215.936,83.600 215.800 C 83.380 215.664,83.200 213.963,83.200 212.019 C 83.200 209.166,83.078 208.439,82.567 208.243 C 81.937 208.001,72.425 208.034,66.900 208.297 M317.300 208.265 C 316.950 208.406,316.800 209.594,316.800 212.233 C 316.800 214.478,316.638 216.000,316.400 216.000 C 316.174 216.000,316.000 217.143,316.000 218.629 C 316.000 220.432,315.812 221.446,315.400 221.857 C 315.050 222.207,314.800 223.185,314.800 224.205 C 314.800 225.166,314.620 226.064,314.400 226.200 C 314.180 226.336,314.000 227.322,314.000 228.390 C 314.000 229.459,313.810 230.397,313.579 230.474 C 313.156 230.615,312.503 232.682,312.119 235.100 C 312.005 235.815,311.752 236.400,311.556 236.400 C 311.360 236.400,311.200 237.011,311.200 237.757 C 311.200 238.595,310.970 239.203,310.600 239.345 C 310.249 239.479,310.000 240.079,310.000 240.787 C 310.000 241.454,309.820 242.000,309.600 242.000 C 309.380 242.000,309.194 242.405,309.187 242.900 C 309.180 243.395,308.910 244.149,308.587 244.576 C 308.264 245.004,308.000 245.679,308.000 246.076 C 308.000 246.474,307.820 246.800,307.600 246.800 C 307.380 246.800,307.200 247.149,307.200 247.576 C 307.200 248.003,307.020 248.464,306.800 248.600 C 306.580 248.736,306.400 249.177,306.400 249.581 C 306.400 249.984,306.130 250.418,305.800 250.545 C 305.470 250.671,305.200 251.141,305.200 251.587 C 305.200 252.034,305.020 252.400,304.800 252.400 C 304.580 252.400,304.400 252.850,304.400 253.400 C 304.400 253.950,304.223 254.400,304.008 254.400 C 303.792 254.400,303.502 254.850,303.364 255.400 C 303.226 255.950,302.953 256.400,302.757 256.400 C 302.560 256.400,302.400 256.698,302.400 257.062 C 302.400 257.426,301.950 258.314,301.400 259.036 C 300.850 259.757,300.400 260.539,300.400 260.773 C 300.400 261.008,300.220 261.200,300.000 261.200 C 299.780 261.200,299.600 261.479,299.600 261.819 C 299.600 262.160,299.150 262.855,298.600 263.365 C 298.050 263.875,297.600 264.633,297.600 265.051 C 297.600 265.468,297.150 266.148,296.600 266.561 C 296.050 266.974,295.600 267.569,295.600 267.883 C 295.600 268.197,294.970 269.048,294.200 269.774 C 293.430 270.500,292.800 271.388,292.800 271.747 C 292.800 272.106,292.620 272.400,292.400 272.400 C 292.180 272.400,292.000 272.670,292.000 273.000 C 292.000 273.330,291.807 273.600,291.571 273.600 C 291.115 273.600,290.000 274.581,290.000 274.982 C 290.000 275.193,289.228 276.096,286.700 278.840 C 286.315 279.258,286.000 279.703,286.000 279.829 C 286.000 280.221,284.878 281.200,284.429 281.200 C 284.193 281.200,284.000 281.388,284.000 281.618 C 284.000 282.161,282.161 284.000,281.618 284.000 C 281.388 284.000,281.200 284.193,281.200 284.429 C 281.200 284.982,280.182 286.000,279.629 286.000 C 279.393 286.000,279.200 286.240,279.200 286.532 C 279.200 286.825,278.705 287.318,278.100 287.627 C 277.495 287.936,276.604 288.596,276.119 289.094 C 275.635 289.592,275.127 290.000,274.991 290.000 C 274.583 290.000,273.600 291.111,273.600 291.571 C 273.600 291.807,273.330 292.000,273.000 292.000 C 272.670 292.000,272.400 292.180,272.400 292.400 C 272.400 292.620,272.121 292.800,271.780 292.800 C 271.439 292.800,270.512 293.430,269.719 294.200 C 268.926 294.970,268.060 295.600,267.795 295.600 C 267.529 295.600,266.974 296.050,266.561 296.600 C 266.148 297.150,265.468 297.600,265.051 297.600 C 264.633 297.600,263.875 298.050,263.365 298.600 C 262.855 299.150,262.160 299.600,261.819 299.600 C 261.479 299.600,261.200 299.760,261.200 299.957 C 261.200 300.153,260.750 300.426,260.200 300.564 C 259.650 300.702,259.200 300.992,259.200 301.208 C 259.200 301.423,258.930 301.600,258.600 301.600 C 258.270 301.600,258.000 301.780,258.000 302.000 C 258.000 302.220,257.640 302.400,257.200 302.400 C 256.760 302.400,256.400 302.560,256.400 302.757 C 256.400 302.953,255.950 303.226,255.400 303.364 C 254.850 303.502,254.400 303.792,254.400 304.008 C 254.400 304.223,253.950 304.400,253.400 304.400 C 252.850 304.400,252.400 304.580,252.400 304.800 C 252.400 305.020,252.034 305.200,251.587 305.200 C 251.141 305.200,250.671 305.470,250.545 305.800 C 250.418 306.130,249.984 306.400,249.581 306.400 C 249.177 306.400,248.736 306.580,248.600 306.800 C 248.464 307.020,248.003 307.200,247.576 307.200 C 247.149 307.200,246.800 307.380,246.800 307.600 C 246.800 307.820,246.363 308.000,245.829 308.000 C 245.294 308.000,244.587 308.270,244.257 308.600 C 243.927 308.930,243.284 309.200,242.829 309.200 C 242.373 309.200,242.000 309.380,242.000 309.600 C 242.000 309.820,241.563 310.000,241.029 310.000 C 240.494 310.000,239.787 310.270,239.457 310.600 C 239.127 310.930,238.304 311.200,237.629 311.200 C 236.953 311.200,236.400 311.380,236.400 311.600 C 236.400 311.820,235.781 312.000,235.024 312.000 C 234.267 312.000,233.536 312.180,233.400 312.400 C 233.264 312.620,232.748 312.800,232.253 312.800 C 231.758 312.800,231.004 313.064,230.576 313.387 C 230.149 313.710,229.035 313.980,228.100 313.987 C 227.165 313.994,226.400 314.180,226.400 314.400 C 226.400 314.620,225.513 314.800,224.429 314.800 C 223.210 314.800,222.228 315.029,221.857 315.400 C 221.457 315.800,220.457 316.000,218.852 316.000 C 217.529 316.000,216.336 316.180,216.200 316.400 C 216.064 316.621,214.269 316.800,212.195 316.800 L 208.436 316.800 208.157 318.286 C 207.871 319.813,208.247 335.580,208.578 335.911 C 209.344 336.677,225.474 334.229,234.400 331.992 C 244.888 329.363,258.771 323.609,268.370 317.912 C 270.884 316.421,272.993 315.200,273.057 315.200 C 273.409 315.200,281.952 309.044,285.200 306.451 C 292.220 300.844,300.367 292.774,305.899 285.948 C 308.113 283.217,315.200 273.392,315.200 273.054 C 315.200 272.981,316.224 271.228,317.476 269.160 C 319.551 265.732,324.800 255.580,324.800 254.995 C 324.800 254.861,325.265 253.727,325.832 252.475 C 327.269 249.308,327.449 248.865,328.211 246.600 C 328.582 245.500,329.035 244.240,329.219 243.800 C 329.545 243.021,331.248 237.211,331.975 234.400 C 332.174 233.630,332.522 232.280,332.749 231.400 C 333.833 227.195,335.040 219.828,335.618 213.884 C 335.848 211.511,336.127 209.334,336.237 209.047 C 336.542 208.253,319.112 207.534,317.300 208.265 "/>
  <path fill="#d2a3a5" fill-rule="evenodd" stroke="none" id="path2" d="M186.996 63.833 C 186.774 63.926,185.244 64.173,183.596 64.382 L 180.600 64.761 184.200 64.554 C 186.180 64.440,188.520 64.200,189.400 64.019 L 191.000 63.692 189.200 63.678 C 188.210 63.670,187.218 63.740,186.996 63.833 M211.800 64.216 C 213.780 64.499,216.300 64.728,217.400 64.723 C 218.932 64.717,218.511 64.590,215.600 64.180 C 213.510 63.885,210.990 63.657,210.000 63.672 C 208.693 63.693,209.187 63.842,211.800 64.216 M208.131 67.000 C 208.133 68.540,208.205 69.121,208.292 68.291 C 208.379 67.461,208.377 66.201,208.289 65.491 C 208.200 64.781,208.129 65.460,208.131 67.000 M177.400 65.200 L 176.200 65.505 177.400 65.513 C 178.060 65.517,179.050 65.376,179.600 65.200 L 180.600 64.880 179.600 64.887 C 179.050 64.891,178.060 65.032,177.400 65.200 M220.400 65.200 C 220.950 65.376,221.940 65.517,222.600 65.513 L 223.800 65.505 222.600 65.200 C 221.940 65.032,220.950 64.891,220.400 64.887 L 219.400 64.880 220.400 65.200 M173.000 66.000 L 172.200 66.344 173.000 66.332 C 173.440 66.326,174.250 66.176,174.800 66.000 L 175.800 65.680 174.800 65.668 C 174.250 65.662,173.440 65.811,173.000 66.000 M225.800 66.074 C 226.680 66.290,228.450 66.721,229.732 67.033 C 231.015 67.345,232.455 67.582,232.932 67.559 C 233.946 67.511,233.072 67.259,228.400 66.249 C 225.200 65.557,223.118 65.418,225.800 66.074 M168.200 67.011 C 166.066 67.715,167.665 67.713,170.200 67.009 C 171.744 66.581,171.926 66.457,171.000 66.469 C 170.340 66.477,169.080 66.721,168.200 67.011 M164.400 68.000 C 163.912 68.315,163.964 68.389,164.676 68.394 C 165.158 68.397,165.664 68.220,165.800 68.000 C 166.115 67.491,165.188 67.491,164.400 68.000 M234.400 68.000 C 234.730 68.213,235.270 68.388,235.600 68.388 C 236.133 68.388,236.133 68.345,235.600 68.000 C 235.270 67.787,234.730 67.612,234.400 67.612 C 233.867 67.612,233.867 67.655,234.400 68.000 M160.800 69.000 C 159.919 69.339,159.697 69.539,160.200 69.539 C 160.640 69.539,161.630 69.297,162.400 69.000 C 163.281 68.661,163.503 68.461,163.000 68.461 C 162.560 68.461,161.570 68.703,160.800 69.000 M238.000 69.022 C 238.990 69.343,240.398 69.801,241.130 70.039 C 241.861 70.278,242.554 70.380,242.668 70.265 C 242.783 70.150,241.625 69.684,240.095 69.228 C 236.956 68.294,235.228 68.123,238.000 69.022 M154.600 70.979 C 152.273 71.917,151.404 72.350,151.800 72.374 C 152.220 72.401,156.479 70.849,156.767 70.565 C 157.084 70.251,155.795 70.498,154.600 70.979 M243.255 70.588 C 243.616 70.949,250.158 73.175,250.336 72.998 C 250.434 72.899,250.264 72.727,249.957 72.615 C 244.327 70.553,242.740 70.073,243.255 70.588 M146.400 74.219 C 143.997 75.466,144.911 75.468,147.425 74.221 C 148.511 73.683,149.130 73.252,148.800 73.264 C 148.470 73.275,147.390 73.705,146.400 74.219 M252.600 74.209 C 255.216 75.441,255.906 75.435,253.600 74.200 C 252.610 73.670,251.530 73.243,251.200 73.251 C 250.870 73.260,251.500 73.691,252.600 74.209 M139.450 77.451 C 137.057 78.651,135.172 79.705,135.261 79.794 C 135.423 79.956,143.822 75.911,144.286 75.448 C 144.890 74.844,143.497 75.420,139.450 77.451 M255.633 75.352 C 255.725 75.435,258.590 76.929,262.000 78.672 C 268.095 81.788,275.275 86.160,280.400 89.879 C 281.830 90.916,282.730 91.425,282.400 91.010 C 281.720 90.154,270.624 82.786,267.040 80.810 C 262.115 78.095,254.804 74.597,255.633 75.352 M129.800 82.722 C 118.382 89.672,107.061 98.957,99.200 107.818 C 97.110 110.174,95.214 112.304,94.987 112.551 C 91.131 116.748,79.510 134.044,80.130 134.664 C 80.283 134.816,82.000 132.184,82.000 131.798 C 82.000 131.351,89.227 120.317,89.989 119.600 C 90.106 119.490,91.012 118.320,92.001 117.000 C 92.990 115.680,93.980 114.399,94.200 114.152 C 94.420 113.906,95.400 112.736,96.378 111.552 C 98.678 108.769,108.769 98.678,111.552 96.378 C 112.736 95.400,113.906 94.418,114.152 94.196 C 117.343 91.314,127.314 84.474,132.340 81.720 C 134.374 80.606,135.190 79.987,134.580 80.022 C 134.371 80.033,132.220 81.248,129.800 82.722 M284.800 93.191 C 285.790 94.100,287.140 95.208,287.800 95.653 C 288.525 96.142,288.287 95.807,287.200 94.809 C 286.210 93.900,284.860 92.792,284.200 92.347 C 283.475 91.858,283.713 92.193,284.800 93.191 M289.234 96.600 C 289.325 96.820,290.930 98.458,292.800 100.239 C 296.446 103.713,302.288 109.690,303.317 111.000 C 303.662 111.440,304.919 112.970,306.109 114.400 C 308.639 117.440,313.514 124.201,314.113 125.500 C 314.342 125.995,314.681 126.400,314.868 126.400 C 316.137 126.400,305.516 112.568,298.796 105.468 C 295.438 101.921,288.943 95.897,289.234 96.600 M315.267 127.100 C 315.340 127.265,316.435 129.137,317.700 131.260 C 318.965 133.384,320.000 135.304,320.000 135.527 C 320.000 135.750,320.138 135.993,320.306 136.067 C 320.793 136.278,324.500 144.144,326.628 149.480 C 327.698 152.164,328.646 154.287,328.735 154.198 C 329.202 153.731,323.030 139.755,319.887 134.162 C 318.102 130.986,315.506 126.800,315.321 126.800 C 315.218 126.800,315.193 126.935,315.267 127.100 M77.412 139.612 C 76.189 142.093,75.260 144.194,75.348 144.281 C 75.435 144.368,76.507 142.410,77.729 139.929 C 78.952 137.449,79.881 135.348,79.794 135.260 C 79.706 135.173,78.634 137.131,77.412 139.612 M74.053 146.853 C 72.935 149.546,73.187 149.798,74.373 147.173 C 74.876 146.062,75.203 145.069,75.100 144.967 C 74.998 144.865,74.527 145.714,74.053 146.853 M71.715 152.721 C 70.964 154.478,69.588 158.921,69.745 159.079 C 69.826 159.159,70.466 157.579,71.168 155.568 C 72.380 152.096,72.706 150.404,71.715 152.721 M328.816 155.100 C 328.850 155.761,331.543 163.364,331.570 162.877 C 331.607 162.239,329.213 154.800,328.972 154.800 C 328.877 154.800,328.807 154.935,328.816 155.100 M68.833 161.433 C 68.541 162.424,68.389 163.322,68.496 163.429 C 68.602 163.536,68.919 162.803,69.200 161.800 C 69.481 160.797,69.633 159.899,69.538 159.804 C 69.443 159.710,69.126 160.443,68.833 161.433 M331.634 164.200 C 331.622 164.640,331.787 165.270,332.000 165.600 C 332.514 166.395,332.514 165.396,332.000 164.200 L 331.656 163.400 331.634 164.200 M67.888 164.533 C 67.410 165.749,67.524 166.773,68.039 165.887 C 68.267 165.496,68.391 164.866,68.315 164.487 C 68.188 163.860,68.151 163.864,67.888 164.533 M332.447 167.000 C 332.428 167.440,332.681 168.610,333.010 169.600 C 333.400 170.774,333.546 170.983,333.431 170.200 C 333.148 168.271,332.485 166.118,332.447 167.000 M66.900 168.539 C 66.625 169.569,66.412 170.814,66.426 171.306 C 66.441 171.798,66.717 171.217,67.040 170.016 C 67.362 168.815,67.575 167.570,67.513 167.250 C 67.451 166.929,67.175 167.510,66.900 168.539 M333.656 172.800 C 333.656 173.350,333.811 174.160,334.000 174.600 C 334.313 175.329,334.344 175.312,334.344 174.400 C 334.344 173.850,334.189 173.040,334.000 172.600 C 333.687 171.871,333.656 171.888,333.656 172.800 M65.889 173.200 C 65.736 173.750,65.625 174.650,65.642 175.200 C 65.668 176.061,65.726 176.014,66.058 174.860 C 66.270 174.124,66.381 173.224,66.306 172.860 C 66.208 172.394,66.086 172.493,65.889 173.200 M334.606 177.400 C 335.126 182.791,336.025 190.262,336.215 190.768 C 336.331 191.080,336.196 191.499,335.914 191.698 C 335.522 191.975,335.542 192.022,336.000 191.897 C 336.330 191.807,336.600 191.568,336.600 191.367 C 336.600 190.003,335.420 180.494,334.967 178.200 C 334.531 175.995,334.454 175.825,334.606 177.400 M65.018 178.326 C 64.853 179.495,64.813 180.546,64.929 180.662 C 65.214 180.947,65.731 177.387,65.500 176.725 C 65.400 176.436,65.182 177.157,65.018 178.326 M64.311 183.600 C 63.515 191.210,63.483 192.000,63.966 192.000 C 64.230 192.000,64.336 191.820,64.201 191.601 C 64.065 191.382,64.160 189.435,64.411 187.275 C 64.662 185.115,64.803 182.819,64.725 182.174 C 64.637 181.445,64.480 181.986,64.311 183.600 M63.739 208.613 C 63.610 208.951,63.788 211.426,64.134 214.113 L 64.765 219.000 64.503 215.000 C 64.359 212.800,64.232 210.325,64.220 209.500 C 64.198 207.862,64.098 207.678,63.739 208.613 M65.900 208.289 C 66.615 208.378,67.785 208.378,68.500 208.289 C 69.215 208.201,68.630 208.128,67.200 208.128 C 65.770 208.128,65.185 208.201,65.900 208.289 M331.491 208.289 C 332.201 208.377,333.461 208.379,334.291 208.292 C 335.121 208.205,334.540 208.133,333.000 208.131 C 331.460 208.129,330.781 208.200,331.491 208.289 M336.231 209.102 C 336.017 209.777,334.952 218.720,334.576 223.000 L 334.436 224.600 334.830 222.800 C 335.269 220.797,336.750 208.675,336.581 208.470 C 336.521 208.398,336.364 208.683,336.231 209.102 M64.895 220.200 C 64.895 220.860,65.032 221.940,65.200 222.600 L 65.505 223.800 65.505 222.600 C 65.505 221.940,65.368 220.860,65.200 220.200 L 64.895 219.000 64.895 220.200 M65.668 225.200 C 65.662 225.750,65.811 226.560,66.000 227.000 L 66.344 227.800 66.332 227.000 C 66.326 226.560,66.176 225.750,66.000 225.200 L 65.680 224.200 65.668 225.200 M333.822 226.222 C 333.672 227.025,333.638 227.772,333.748 227.882 C 333.858 227.992,334.072 227.425,334.222 226.622 C 334.373 225.819,334.406 225.073,334.296 224.963 C 334.186 224.853,333.973 225.419,333.822 226.222 M66.433 228.800 C 66.422 229.350,66.667 230.610,66.979 231.600 C 67.712 233.926,67.737 232.421,67.009 229.800 C 66.660 228.541,66.446 228.171,66.433 228.800 M332.853 231.000 C 332.562 232.320,332.161 233.813,331.962 234.319 C 331.592 235.258,331.461 236.672,331.773 236.360 C 332.131 236.002,333.630 229.854,333.509 229.241 C 333.439 228.888,333.144 229.680,332.853 231.000 M67.612 234.200 C 67.612 234.640,67.787 235.270,68.000 235.600 C 68.321 236.097,68.388 236.062,68.388 235.400 C 68.388 234.960,68.213 234.330,68.000 234.000 C 67.679 233.503,67.612 233.538,67.612 234.200 M68.461 237.000 C 68.461 237.440,68.703 238.430,69.000 239.200 C 69.339 240.081,69.539 240.303,69.539 239.800 C 69.539 239.360,69.297 238.370,69.000 237.600 C 68.661 236.719,68.461 236.497,68.461 237.000 M330.440 239.840 C 329.953 241.516,329.622 242.956,329.705 243.039 C 329.789 243.122,330.272 241.835,330.780 240.180 C 331.288 238.525,331.618 237.085,331.515 236.981 C 331.411 236.877,330.927 238.164,330.440 239.840 M70.400 243.439 C 70.400 243.925,71.904 248.037,72.184 248.317 C 72.609 248.742,72.386 247.765,71.565 245.600 C 70.713 243.356,70.400 242.776,70.400 243.439 M329.054 244.043 C 328.963 244.349,328.598 245.416,328.244 246.413 C 327.233 249.259,327.545 249.286,328.642 246.448 C 329.185 245.044,329.536 243.803,329.424 243.690 C 329.311 243.578,329.144 243.736,329.054 244.043 M73.221 251.025 C 73.209 251.259,73.641 252.339,74.179 253.425 C 74.717 254.511,75.167 255.209,75.179 254.975 C 75.191 254.741,74.759 253.661,74.221 252.575 C 73.683 251.489,73.233 250.791,73.221 251.025 M325.610 252.977 C 325.165 254.016,324.800 254.950,324.800 255.053 C 324.800 255.592,319.442 265.913,317.476 269.160 C 315.047 273.173,314.859 273.581,315.800 272.800 C 316.130 272.526,316.400 272.148,316.400 271.959 C 316.400 271.770,317.006 270.667,317.747 269.508 C 320.571 265.089,327.084 251.751,326.636 251.303 C 326.517 251.184,326.056 251.937,325.610 252.977 M75.200 255.797 C 75.200 256.211,79.272 264.220,79.675 264.600 C 80.239 265.130,80.181 264.995,77.673 259.900 C 75.804 256.105,75.200 255.102,75.200 255.797 M80.000 265.388 C 80.000 266.949,94.248 287.538,96.102 288.656 C 96.376 288.821,96.108 288.336,95.507 287.578 C 89.384 279.863,83.501 271.332,81.248 266.900 C 80.486 265.400,80.000 264.812,80.000 265.388 M312.177 277.500 C 302.999 290.832,290.805 303.027,277.500 312.179 C 275.355 313.655,273.600 314.949,273.600 315.055 C 273.600 315.579,279.730 311.281,285.400 306.781 C 294.815 299.310,306.524 286.746,312.783 277.400 C 315.067 273.990,315.300 273.600,315.055 273.600 C 314.949 273.600,313.654 275.355,312.177 277.500 M97.668 290.700 C 99.467 292.795,110.501 303.632,110.667 303.466 C 110.803 303.330,96.796 289.200,96.525 289.200 C 96.445 289.200,96.960 289.875,97.668 290.700 M111.322 303.873 C 111.734 304.541,116.803 308.469,116.784 308.107 C 116.776 307.938,115.941 307.170,114.928 306.400 C 113.916 305.630,112.627 304.644,112.064 304.208 C 111.500 303.772,111.166 303.622,111.322 303.873 M117.600 308.903 C 119.086 310.446,128.412 316.641,133.588 319.523 C 134.584 320.078,135.990 320.862,136.712 321.266 C 137.434 321.670,138.145 322.000,138.292 322.000 C 138.866 322.000,137.668 321.212,134.600 319.572 C 131.017 317.657,123.547 312.959,119.600 310.138 C 118.170 309.116,117.270 308.560,117.600 308.903 M268.800 317.634 C 264.062 320.560,256.892 324.087,250.520 326.628 C 247.836 327.698,245.713 328.646,245.802 328.735 C 246.406 329.339,262.309 322.072,268.364 318.426 C 270.214 317.312,271.857 316.400,272.015 316.400 C 272.173 316.400,272.526 316.130,272.800 315.800 C 273.641 314.786,272.753 315.193,268.800 317.634 M138.800 322.153 C 138.800 322.706,153.826 329.108,154.214 328.720 C 154.301 328.632,152.624 327.871,150.486 327.029 C 146.859 325.599,142.962 323.903,140.239 322.569 C 139.011 321.967,138.800 321.907,138.800 322.153 M154.800 328.972 C 154.800 329.213,162.239 331.607,162.877 331.570 C 163.364 331.543,155.761 328.850,155.100 328.816 C 154.935 328.807,154.800 328.877,154.800 328.972 M240.400 330.219 C 238.310 330.944,236.835 331.550,237.123 331.568 C 237.758 331.607,245.200 329.215,245.200 328.972 C 245.200 328.644,244.183 328.909,240.400 330.219 M208.079 333.020 C 207.965 337.082,207.149 336.859,217.600 335.618 C 222.111 335.083,226.022 334.297,222.600 334.614 C 221.500 334.716,218.260 335.066,215.400 335.392 C 207.736 336.265,208.459 336.498,208.297 333.100 L 208.159 330.200 208.079 333.020 M164.200 332.000 C 165.396 332.514,166.395 332.514,165.600 332.000 C 165.270 331.787,164.640 331.622,164.200 331.634 L 163.400 331.656 164.200 332.000 M234.400 332.000 C 233.605 332.514,234.604 332.514,235.800 332.000 L 236.600 331.656 235.800 331.634 C 235.360 331.622,234.730 331.787,234.400 332.000 M167.600 332.873 C 168.370 333.088,169.630 333.336,170.400 333.424 C 171.498 333.550,171.369 333.459,169.800 333.000 C 168.700 332.679,167.440 332.430,167.000 332.449 C 166.542 332.468,166.798 332.649,167.600 332.873 M230.200 333.019 C 228.892 333.475,228.819 333.547,229.800 333.416 C 231.896 333.135,233.965 332.484,232.800 332.472 C 232.250 332.466,231.080 332.712,230.200 333.019 M172.600 334.000 C 173.040 334.189,173.850 334.344,174.400 334.344 C 175.312 334.344,175.329 334.313,174.600 334.000 C 174.160 333.811,173.350 333.656,172.800 333.656 C 171.888 333.656,171.871 333.687,172.600 334.000 M225.400 334.000 C 224.671 334.313,224.688 334.344,225.600 334.344 C 226.150 334.344,226.960 334.189,227.400 334.000 C 228.129 333.687,228.112 333.656,227.200 333.656 C 226.650 333.656,225.840 333.811,225.400 334.000 M178.400 334.964 C 181.307 335.487,187.585 336.293,190.360 336.499 C 191.291 336.568,191.774 336.410,191.891 336.000 C 192.020 335.543,191.975 335.522,191.698 335.914 C 191.499 336.196,191.080 336.331,190.768 336.215 C 190.456 336.098,187.770 335.731,184.800 335.400 C 176.223 334.445,175.086 334.367,178.400 334.964 "/>
  <path fill="#c47a7c" fill-rule="evenodd" stroke="none" id="path3" d="M187.300 63.487 C 187.905 63.578,188.895 63.578,189.500 63.487 C 190.105 63.395,189.610 63.320,188.400 63.320 C 187.190 63.320,186.695 63.395,187.300 63.487 M210.500 63.487 C 211.105 63.578,212.095 63.578,212.700 63.487 C 213.305 63.395,212.810 63.320,211.600 63.320 C 210.390 63.320,209.895 63.395,210.500 63.487 M182.400 64.000 L 180.600 64.280 182.200 64.293 C 183.080 64.300,184.340 64.168,185.000 64.000 C 186.600 63.593,185.019 63.593,182.400 64.000 M215.000 63.985 C 216.222 64.311,219.470 64.520,219.167 64.253 C 219.075 64.172,217.830 64.007,216.400 63.885 C 214.762 63.746,214.244 63.782,215.000 63.985 M177.200 64.800 C 176.436 65.294,177.258 65.294,178.800 64.800 L 179.800 64.480 178.800 64.446 C 178.250 64.427,177.530 64.587,177.200 64.800 M221.200 64.800 C 222.742 65.294,223.564 65.294,222.800 64.800 C 222.470 64.587,221.750 64.427,221.200 64.446 L 220.200 64.480 221.200 64.800 M172.400 65.600 C 172.070 65.813,171.260 66.015,170.600 66.048 C 169.812 66.088,169.677 66.164,170.207 66.270 C 170.651 66.359,172.001 66.166,173.207 65.842 C 174.884 65.391,175.118 65.248,174.200 65.232 C 173.540 65.221,172.730 65.387,172.400 65.600 M224.833 65.343 C 224.925 65.422,225.720 65.597,226.600 65.732 C 227.690 65.899,228.009 65.855,227.600 65.595 C 227.053 65.246,224.445 65.009,224.833 65.343 M228.900 66.276 C 229.285 66.376,229.915 66.376,230.300 66.276 C 230.685 66.175,230.370 66.093,229.600 66.093 C 228.830 66.093,228.515 66.175,228.900 66.276 M164.200 67.600 C 163.908 68.073,164.299 68.073,165.400 67.600 C 166.171 67.269,166.169 67.255,165.324 67.228 C 164.842 67.213,164.336 67.380,164.200 67.600 M235.000 67.654 C 237.542 68.472,240.521 69.213,240.668 69.065 C 240.753 68.980,239.963 68.690,238.911 68.422 C 237.860 68.153,236.587 67.768,236.081 67.567 C 235.576 67.365,234.856 67.215,234.481 67.234 C 234.107 67.253,234.340 67.442,235.000 67.654 M160.400 68.659 C 158.923 69.253,159.826 69.165,162.400 68.463 C 163.489 68.167,163.578 68.083,162.800 68.089 C 162.250 68.092,161.170 68.349,160.400 68.659 M155.000 70.400 C 154.864 70.620,154.358 70.814,153.876 70.832 C 153.372 70.850,153.229 70.954,153.539 71.078 C 153.836 71.196,154.466 71.105,154.939 70.876 C 155.413 70.646,156.070 70.370,156.400 70.261 C 156.779 70.136,156.677 70.052,156.124 70.032 C 155.642 70.014,155.136 70.180,155.000 70.400 M251.152 73.009 C 252.335 73.570,253.378 73.956,253.468 73.865 C 253.559 73.774,252.861 73.388,251.917 73.006 C 249.180 71.900,248.817 71.901,251.152 73.009 M147.200 73.400 C 145.894 74.147,146.351 74.155,148.054 73.416 C 148.794 73.094,149.130 72.831,148.800 72.830 C 148.470 72.829,147.750 73.086,147.200 73.400 M141.857 75.667 C 141.008 76.096,140.392 76.525,140.488 76.621 C 140.583 76.717,141.548 76.355,142.631 75.818 C 143.714 75.281,144.330 74.852,144.000 74.865 C 143.670 74.877,142.706 75.238,141.857 75.667 M256.400 75.309 C 258.228 76.231,259.600 76.785,259.600 76.601 C 259.600 76.349,256.348 74.799,255.825 74.802 C 255.591 74.804,255.850 75.032,256.400 75.309 M136.976 78.187 C 136.549 78.510,136.380 78.775,136.600 78.775 C 136.820 78.775,137.349 78.510,137.776 78.187 C 138.204 77.864,138.373 77.600,138.153 77.600 C 137.933 77.600,137.404 77.864,136.976 78.187 M134.400 79.633 L 133.400 80.448 134.700 79.814 C 135.415 79.465,136.000 79.094,136.000 78.990 C 136.000 78.592,135.363 78.848,134.400 79.633 M264.033 78.962 C 264.427 79.344,268.962 81.669,268.600 81.303 C 268.137 80.835,264.494 78.800,264.119 78.800 C 263.980 78.800,263.942 78.873,264.033 78.962 M129.281 82.481 C 128.556 82.929,128.047 83.380,128.150 83.483 C 128.253 83.587,129.024 83.205,129.862 82.636 C 131.654 81.418,131.198 81.297,129.281 82.481 M270.400 82.475 C 271.249 83.257,273.200 84.384,273.200 84.091 C 273.200 83.892,272.705 83.480,272.100 83.177 C 270.671 82.461,270.152 82.246,270.400 82.475 M273.633 84.530 C 273.725 84.601,274.430 85.066,275.200 85.563 L 276.600 86.466 275.400 85.435 C 274.740 84.868,274.035 84.403,273.833 84.402 C 273.632 84.401,273.542 84.458,273.633 84.530 M122.895 86.611 C 121.743 87.386,120.800 88.108,120.800 88.215 C 120.800 88.321,121.790 87.751,123.000 86.947 C 124.922 85.671,125.487 85.200,125.095 85.200 C 125.037 85.200,124.047 85.835,122.895 86.611 M276.800 86.546 C 276.800 86.656,277.340 87.130,278.000 87.600 C 278.660 88.070,279.200 88.364,279.200 88.254 C 279.200 88.144,278.660 87.670,278.000 87.200 C 277.340 86.730,276.800 86.436,276.800 86.546 M279.600 88.546 C 279.600 88.656,280.140 89.130,280.800 89.600 C 281.460 90.070,282.000 90.364,282.000 90.254 C 282.000 90.144,281.460 89.670,280.800 89.200 C 280.140 88.730,279.600 88.436,279.600 88.546 M118.056 90.013 C 116.816 91.046,117.375 91.035,118.691 90.000 C 119.250 89.560,119.549 89.206,119.354 89.213 C 119.159 89.221,118.575 89.581,118.056 90.013 M115.800 91.845 C 115.360 92.186,114.651 92.716,114.224 93.023 C 113.797 93.330,113.527 93.659,113.624 93.754 C 113.721 93.848,114.520 93.315,115.400 92.569 C 117.008 91.205,117.294 90.688,115.800 91.845 M284.400 92.088 C 284.400 92.166,285.255 92.933,286.300 93.792 C 287.345 94.651,287.840 94.940,287.400 94.434 C 286.622 93.539,284.400 91.802,284.400 92.088 M112.043 94.823 C 111.517 95.261,111.171 95.705,111.275 95.808 C 111.379 95.912,111.886 95.548,112.401 94.998 C 113.524 93.804,113.362 93.725,112.043 94.823 M294.040 100.697 C 297.252 103.810,301.471 108.212,303.415 110.479 C 307.255 114.955,308.582 116.395,307.583 115.000 C 304.575 110.803,294.566 100.251,290.200 96.674 C 289.100 95.773,290.828 97.583,294.040 100.697 M104.772 101.484 C 101.671 104.500,98.399 107.875,97.500 108.984 C 96.602 110.093,97.525 109.253,99.552 107.118 C 101.579 104.984,104.980 101.609,107.111 99.618 C 109.242 97.628,110.856 96.000,110.697 96.000 C 110.539 96.000,107.872 98.468,104.772 101.484 M92.274 115.209 C 90.821 117.263,91.098 117.258,92.752 115.200 C 93.459 114.320,93.894 113.604,93.719 113.609 C 93.543 113.613,92.893 114.333,92.274 115.209 M89.861 118.240 C 88.828 119.657,89.200 119.742,90.330 118.347 C 90.842 117.716,91.112 117.206,90.930 117.213 C 90.749 117.219,90.267 117.682,89.861 118.240 M86.887 122.500 C 85.427 124.656,85.112 125.200,85.320 125.200 C 85.412 125.200,86.144 124.210,86.947 123.000 C 87.751 121.790,88.325 120.800,88.223 120.800 C 88.122 120.800,87.520 121.565,86.887 122.500 M314.437 124.800 C 315.596 126.596,315.600 126.601,315.598 126.167 C 315.597 125.965,315.132 125.260,314.565 124.600 L 313.534 123.400 314.437 124.800 M316.492 128.171 C 316.986 128.926,317.443 129.490,317.508 129.426 C 317.707 129.227,316.219 126.805,315.896 126.803 C 315.729 126.801,315.997 127.417,316.492 128.171 M82.450 129.406 C 81.267 131.410,81.386 131.701,82.636 129.862 C 83.205 129.024,83.587 128.254,83.485 128.152 C 83.383 128.050,82.917 128.614,82.450 129.406 M319.246 132.796 C 319.739 133.673,320.208 134.326,320.287 134.246 C 320.459 134.074,318.806 131.200,318.535 131.200 C 318.433 131.200,318.752 131.918,319.246 132.796 M79.414 134.635 C 79.041 135.204,78.827 135.761,78.939 135.872 C 79.050 135.983,79.429 135.518,79.781 134.837 C 80.559 133.333,80.344 133.215,79.414 134.635 M321.620 137.240 C 322.298 138.583,322.930 139.603,323.025 139.509 C 323.213 139.321,320.850 134.800,320.564 134.800 C 320.468 134.800,320.943 135.898,321.620 137.240 M323.228 140.200 C 323.228 140.420,323.486 141.050,323.800 141.600 C 324.114 142.150,324.372 142.420,324.372 142.200 C 324.372 141.980,324.114 141.350,323.800 140.800 C 323.486 140.250,323.228 139.980,323.228 140.200 M75.628 142.036 C 75.173 142.979,74.809 143.941,74.821 144.175 C 74.833 144.409,75.281 143.714,75.818 142.631 C 76.355 141.548,76.719 140.585,76.625 140.492 C 76.532 140.399,76.083 141.094,75.628 142.036 M326.002 146.254 C 326.001 146.504,326.269 147.224,326.598 147.854 C 326.926 148.484,327.196 148.796,327.198 148.546 C 327.199 148.296,326.931 147.576,326.602 146.946 C 326.274 146.316,326.004 146.004,326.002 146.254 M73.265 147.417 C 73.009 147.978,72.807 148.654,72.816 148.919 C 72.824 149.183,73.097 148.788,73.422 148.039 C 74.105 146.465,73.961 145.890,73.265 147.417 M71.213 152.887 C 70.942 153.609,70.537 154.587,70.313 155.061 C 70.090 155.534,69.978 156.133,70.064 156.393 C 70.151 156.652,70.613 155.731,71.092 154.347 C 71.991 151.746,72.090 150.559,71.213 152.887 M328.213 151.931 C 328.363 152.224,328.631 152.944,328.809 153.531 C 329.067 154.389,329.138 154.437,329.166 153.776 C 329.185 153.324,328.917 152.604,328.570 152.176 C 328.224 151.749,328.063 151.639,328.213 151.931 M330.000 157.106 C 330.000 157.274,330.360 158.396,330.800 159.600 C 331.240 160.804,331.614 162.151,331.632 162.594 C 331.651 163.081,331.748 163.188,331.876 162.866 C 332.082 162.350,330.522 156.800,330.172 156.800 C 330.077 156.800,330.000 156.938,330.000 157.106 M68.792 159.936 C 68.307 161.473,68.006 162.972,68.124 163.266 C 68.254 163.593,68.353 163.491,68.378 163.000 C 68.401 162.560,68.776 161.136,69.211 159.834 C 69.646 158.533,69.929 157.395,69.838 157.305 C 69.748 157.215,69.278 158.399,68.792 159.936 M67.467 164.267 C 67.320 164.413,67.211 164.908,67.225 165.367 C 67.249 166.133,67.282 166.123,67.634 165.242 C 68.026 164.263,67.944 163.789,67.467 164.267 M66.600 168.000 C 66.450 168.473,66.417 168.950,66.527 169.060 C 66.637 169.170,66.850 168.873,67.000 168.400 C 67.150 167.927,67.183 167.450,67.073 167.340 C 66.963 167.230,66.750 167.527,66.600 168.000 M332.995 167.800 C 333.167 168.240,333.458 169.230,333.641 170.000 C 333.956 171.328,333.966 171.310,333.818 169.652 C 333.733 168.690,333.442 167.700,333.173 167.452 C 332.793 167.102,332.753 167.180,332.995 167.800 M65.845 171.000 C 65.477 173.135,65.172 175.900,65.360 175.400 C 65.819 174.178,66.475 170.426,66.312 169.953 C 66.207 169.649,65.997 170.120,65.845 171.000 M334.240 173.066 C 334.608 174.599,334.800 174.744,334.800 173.490 C 334.800 172.917,334.613 172.332,334.384 172.190 C 334.111 172.021,334.062 172.323,334.240 173.066 M335.027 177.400 C 335.179 178.060,335.451 179.680,335.630 181.000 L 335.957 183.400 335.802 180.507 C 335.717 178.916,335.446 177.296,335.199 176.907 C 334.832 176.330,334.800 176.420,335.027 177.400 M64.649 177.415 C 64.512 177.773,64.418 178.546,64.440 179.133 C 64.473 179.991,64.552 179.895,64.846 178.640 C 65.222 177.039,65.095 176.253,64.649 177.415 M63.840 183.840 C 63.690 185.303,63.649 186.582,63.748 186.682 C 63.848 186.781,64.057 185.671,64.213 184.213 C 64.369 182.756,64.411 181.477,64.305 181.372 C 64.199 181.266,63.990 182.377,63.840 183.840 M336.294 187.000 C 336.414 188.760,336.577 190.275,336.656 190.367 C 336.941 190.696,336.713 185.778,336.398 184.800 C 336.213 184.223,336.169 185.154,336.294 187.000 M63.314 189.000 C 63.317 190.100,63.395 190.503,63.487 189.895 C 63.579 189.286,63.577 188.386,63.482 187.895 C 63.387 187.403,63.311 187.900,63.314 189.000 M63.314 211.000 C 63.317 212.100,63.395 212.503,63.487 211.895 C 63.579 211.286,63.577 210.386,63.482 209.895 C 63.387 209.403,63.311 209.900,63.314 211.000 M336.468 211.400 C 336.426 212.280,336.304 213.720,336.197 214.600 L 336.003 216.200 336.422 214.865 C 336.652 214.131,336.774 212.691,336.693 211.665 C 336.546 209.819,336.543 209.817,336.468 211.400 M63.693 214.400 C 63.693 215.170,63.775 215.485,63.876 215.100 C 63.976 214.715,63.976 214.085,63.876 213.700 C 63.775 213.315,63.693 213.630,63.693 214.400 M64.101 217.400 C 64.105 218.280,64.187 218.593,64.283 218.095 C 64.379 217.598,64.375 216.878,64.275 216.495 C 64.175 216.113,64.096 216.520,64.101 217.400 M335.477 219.300 C 335.349 220.675,335.132 222.250,334.995 222.800 C 334.782 223.653,334.811 223.696,335.196 223.093 C 335.653 222.377,336.288 216.800,335.913 216.800 C 335.801 216.800,335.605 217.925,335.477 219.300 M64.406 221.033 C 64.409 221.675,64.596 222.470,64.821 222.800 C 65.114 223.230,65.154 222.946,64.962 221.800 C 64.630 219.816,64.398 219.496,64.406 221.033 M65.376 226.000 C 65.679 228.387,66.304 230.729,66.336 229.600 C 66.352 229.050,66.102 227.700,65.781 226.600 C 65.343 225.097,65.242 224.948,65.376 226.000 M334.454 226.067 C 334.425 226.434,334.284 227.064,334.141 227.467 C 333.941 228.033,333.995 228.096,334.375 227.746 C 334.646 227.497,334.787 226.867,334.688 226.346 C 334.590 225.826,334.484 225.700,334.454 226.067 M333.533 230.200 C 333.393 231.080,333.168 232.160,333.034 232.600 C 332.899 233.040,333.071 232.792,333.416 232.050 C 333.761 231.307,333.986 230.227,333.915 229.650 C 333.812 228.803,333.738 228.910,333.533 230.200 M67.228 234.676 C 67.213 235.158,67.380 235.664,67.600 235.800 C 68.073 236.092,68.073 235.701,67.600 234.600 C 67.269 233.829,67.255 233.831,67.228 234.676 M68.047 237.000 C 68.028 237.440,68.287 238.520,68.622 239.400 C 69.239 241.017,69.164 240.173,68.463 237.600 C 68.247 236.805,68.067 236.546,68.047 237.000 M331.501 237.800 C 330.806 241.098,330.795 241.336,331.410 239.673 C 331.761 238.723,331.982 237.643,331.901 237.273 C 331.810 236.856,331.658 237.056,331.501 237.800 M329.632 244.006 C 329.614 244.119,329.246 245.199,328.813 246.406 C 328.264 247.934,328.203 248.365,328.613 247.824 C 328.936 247.396,329.200 246.757,329.200 246.404 C 329.200 246.050,329.400 245.560,329.645 245.315 C 329.890 245.070,329.994 244.629,329.877 244.335 C 329.759 244.041,329.649 243.893,329.632 244.006 M72.830 251.200 C 72.828 251.776,73.957 254.066,73.986 253.546 C 73.994 253.406,73.737 252.686,73.416 251.946 C 73.094 251.206,72.831 250.870,72.830 251.200 M74.802 255.825 C 74.799 256.437,76.423 259.710,76.628 259.506 C 76.722 259.411,76.350 258.449,75.801 257.367 C 75.252 256.285,74.803 255.591,74.802 255.825 M323.665 258.617 C 322.995 260.088,323.123 260.402,323.847 259.065 C 324.186 258.440,324.388 257.854,324.296 257.763 C 324.205 257.671,323.921 258.056,323.665 258.617 M321.604 262.873 C 320.903 264.263,320.503 265.220,320.715 265.000 C 321.356 264.335,323.251 260.717,323.058 260.525 C 322.960 260.426,322.305 261.483,321.604 262.873 M78.809 264.300 C 78.814 264.465,79.185 265.050,79.633 265.600 L 80.448 266.600 79.814 265.300 C 79.211 264.065,78.789 263.645,78.809 264.300 M319.212 267.265 C 318.700 268.176,318.476 268.800,318.715 268.652 C 319.193 268.357,320.481 265.948,320.273 265.740 C 320.201 265.668,319.723 266.354,319.212 267.265 M80.406 266.953 C 80.399 267.369,81.985 270.000,82.243 270.000 C 82.341 270.000,82.153 269.505,81.825 268.900 C 80.956 267.296,80.413 266.550,80.406 266.953 M315.519 273.436 C 314.484 275.066,313.723 276.400,313.827 276.400 C 314.097 276.400,317.704 270.770,317.538 270.607 C 317.462 270.532,316.553 271.805,315.519 273.436 M87.200 278.000 C 87.670 278.660,88.144 279.200,88.254 279.200 C 88.364 279.200,88.070 278.660,87.600 278.000 C 87.130 277.340,86.656 276.800,86.546 276.800 C 86.436 276.800,86.730 277.340,87.200 278.000 M89.200 280.800 C 89.670 281.460,90.144 282.000,90.254 282.000 C 90.364 282.000,90.070 281.460,89.600 280.800 C 89.130 280.140,88.656 279.600,88.546 279.600 C 88.436 279.600,88.730 280.140,89.200 280.800 M309.248 282.400 C 308.541 283.280,308.106 283.996,308.281 283.991 C 308.596 283.983,311.001 280.800,310.693 280.800 C 310.605 280.800,309.955 281.520,309.248 282.400 M91.583 283.900 C 92.326 284.835,93.006 285.600,93.094 285.600 C 93.377 285.600,91.663 283.349,90.935 282.764 C 90.548 282.454,90.840 282.965,91.583 283.900 M305.428 287.300 C 304.146 288.895,303.712 289.570,304.464 288.800 C 305.915 287.315,308.209 284.400,307.927 284.400 C 307.835 284.400,306.711 285.705,305.428 287.300 M96.397 289.815 C 96.910 290.490,100.901 294.809,102.251 296.151 C 106.887 300.759,113.103 306.328,114.819 307.410 C 115.578 307.889,114.549 306.948,111.400 304.286 C 110.080 303.171,106.030 299.282,102.400 295.644 C 98.770 292.007,96.069 289.384,96.397 289.815 M298.822 294.454 C 294.869 298.583,293.995 299.960,297.674 296.263 C 301.750 292.166,303.364 290.400,302.983 290.454 C 302.772 290.484,300.900 292.284,298.822 294.454 M292.480 300.856 C 291.315 301.977,290.415 302.948,290.481 303.014 C 290.546 303.080,291.639 302.159,292.910 300.967 C 294.180 299.775,295.080 298.804,294.910 298.809 C 294.739 298.813,293.646 299.735,292.480 300.856 M287.318 305.333 C 284.254 307.922,283.695 308.536,285.800 307.000 C 287.478 305.775,290.344 303.197,290.000 303.221 C 289.890 303.229,288.683 304.179,287.318 305.333 M282.200 309.494 L 280.600 310.913 282.200 309.788 C 284.258 308.341,284.160 308.426,283.967 308.237 C 283.875 308.148,283.080 308.713,282.200 309.494 M118.000 309.746 C 118.000 309.856,118.540 310.330,119.200 310.800 C 119.860 311.270,120.400 311.564,120.400 311.454 C 120.400 311.344,119.860 310.870,119.200 310.400 C 118.540 309.930,118.000 309.636,118.000 309.746 M120.800 311.746 C 120.800 311.856,121.340 312.330,122.000 312.800 C 122.660 313.270,123.200 313.564,123.200 313.454 C 123.200 313.344,122.660 312.870,122.000 312.400 C 121.340 311.930,120.800 311.636,120.800 311.746 M123.600 313.786 C 123.600 314.099,126.050 315.683,126.240 315.493 C 126.347 315.386,125.796 314.923,125.017 314.463 C 124.238 314.003,123.600 313.699,123.600 313.786 M273.200 315.633 C 271.550 316.714,270.348 317.599,270.530 317.599 C 270.955 317.600,276.400 314.083,276.400 313.808 C 276.400 313.523,276.548 313.439,273.200 315.633 M126.803 315.896 C 126.805 316.219,129.227 317.707,129.426 317.508 C 129.490 317.443,128.926 316.986,128.171 316.492 C 127.417 315.997,126.801 315.729,126.803 315.896 M131.776 319.013 C 132.204 319.336,132.733 319.600,132.953 319.600 C 133.173 319.600,133.004 319.336,132.576 319.013 C 132.149 318.690,131.620 318.425,131.400 318.425 C 131.180 318.425,131.349 318.690,131.776 319.013 M267.000 319.390 C 266.120 319.932,265.525 320.381,265.677 320.388 C 266.024 320.403,268.800 318.779,268.800 318.560 C 268.800 318.300,268.676 318.357,267.000 319.390 M134.800 320.597 C 134.800 320.868,138.049 322.484,138.230 322.303 C 138.314 322.219,137.576 321.759,136.591 321.281 C 135.606 320.802,134.800 320.494,134.800 320.597 M263.206 321.418 C 262.220 321.958,261.624 322.400,261.883 322.400 C 262.380 322.400,265.200 320.836,265.200 320.560 C 265.200 320.329,265.175 320.340,263.206 321.418 M140.400 323.399 C 140.400 323.589,143.589 325.200,143.964 325.200 C 144.316 325.200,142.682 324.199,141.500 323.690 C 140.895 323.430,140.400 323.299,140.400 323.399 M258.400 323.800 C 257.850 324.114,257.580 324.372,257.800 324.372 C 258.020 324.372,258.650 324.114,259.200 323.800 C 259.750 323.486,260.020 323.228,259.800 323.228 C 259.580 323.228,258.950 323.486,258.400 323.800 M144.800 325.425 C 144.800 325.584,146.660 326.456,149.352 327.558 C 149.985 327.818,150.576 327.958,150.664 327.869 C 150.752 327.781,149.469 327.157,147.812 326.482 C 146.156 325.807,144.800 325.332,144.800 325.425 M152.176 328.613 C 152.604 328.936,153.324 329.179,153.776 329.154 C 154.580 329.108,154.580 329.103,153.800 328.915 C 153.360 328.809,152.829 328.560,152.620 328.361 C 152.411 328.163,152.051 328.006,151.820 328.013 C 151.589 328.020,151.749 328.290,152.176 328.613 M246.800 328.625 C 245.834 328.991,245.655 329.162,246.224 329.177 C 246.676 329.190,247.396 328.936,247.824 328.613 C 248.735 327.923,248.653 327.924,246.800 328.625 M158.000 330.600 C 158.550 330.914,159.360 331.170,159.800 331.168 C 160.240 331.166,159.880 330.905,159.000 330.588 C 156.996 329.866,156.722 329.870,158.000 330.600 M240.200 330.836 C 239.100 331.255,237.840 331.612,237.400 331.630 C 236.916 331.650,236.810 331.747,237.133 331.876 C 237.712 332.107,241.962 330.915,242.580 330.349 C 243.141 329.834,242.483 329.969,240.200 330.836 M160.990 331.584 C 161.132 331.813,161.717 332.000,162.290 332.000 C 163.544 332.000,163.399 331.808,161.866 331.440 C 161.123 331.262,160.821 331.311,160.990 331.584 M167.946 333.378 C 168.686 333.720,169.856 333.977,170.546 333.950 C 171.715 333.903,171.692 333.879,170.200 333.589 C 169.320 333.418,168.150 333.160,167.600 333.017 C 166.962 332.851,167.088 332.981,167.946 333.378 M231.859 333.074 C 231.708 333.225,230.823 333.472,229.893 333.624 C 228.251 333.892,228.242 333.901,229.600 333.932 C 230.962 333.963,234.031 332.897,232.767 332.832 C 232.418 332.815,232.010 332.923,231.859 333.074 M172.204 334.406 C 172.338 334.623,173.007 334.800,173.690 334.800 C 175.201 334.800,175.049 334.600,173.280 334.263 C 172.455 334.106,172.052 334.160,172.204 334.406 M226.400 334.400 L 225.400 334.720 226.476 334.760 C 227.068 334.782,227.664 334.620,227.800 334.400 C 228.081 333.945,227.820 333.945,226.400 334.400 M177.200 335.182 C 177.530 335.405,178.145 335.591,178.567 335.594 C 179.590 335.602,179.271 335.373,177.800 335.044 C 176.924 334.848,176.762 334.885,177.200 335.182 M221.600 335.200 C 220.776 335.464,220.741 335.526,221.400 335.554 C 221.840 335.573,222.470 335.413,222.800 335.200 C 223.501 334.747,223.014 334.747,221.600 335.200 M180.500 335.887 C 181.105 335.978,182.095 335.978,182.700 335.887 C 183.305 335.795,182.810 335.720,181.600 335.720 C 180.390 335.720,179.895 335.795,180.500 335.887 M217.300 335.887 C 217.905 335.978,218.895 335.978,219.500 335.887 C 220.105 335.795,219.610 335.720,218.400 335.720 C 217.190 335.720,216.695 335.795,217.300 335.887 M184.800 336.398 C 185.778 336.713,190.696 336.941,190.367 336.656 C 190.275 336.577,188.760 336.414,187.000 336.294 C 185.154 336.169,184.223 336.213,184.800 336.398 M212.000 336.400 L 209.400 336.662 211.800 336.691 C 213.120 336.707,214.650 336.576,215.200 336.400 C 216.401 336.015,215.817 336.015,212.000 336.400 "/>
  <path fill="#c48484" fill-rule="evenodd" stroke="none" id="path4" d="M106.575 100.100 L 105.400 101.400 106.700 100.225 C 107.912 99.130,108.184 98.800,107.875 98.800 C 107.806 98.800,107.221 99.385,106.575 100.100 M99.775 106.900 L 98.600 108.200 99.900 107.025 C 100.615 106.379,101.200 105.794,101.200 105.725 C 101.200 105.416,100.870 105.688,99.775 106.900 "/>
 </g>
</svg>
