<svg height="392.156862745098" width="400" id="svg" xmlns="http://www.w3.org/2000/svg" xmlns:xlink="http://www.w3.org/1999/xlink" viewBox="0, 0, 400,392.156862745098" version="1.1">
 <g id="svgg">
  <path stroke="none" d="M89.419 112.446 C 89.099 112.572,88.601 112.911,88.312 113.200 C 88.023 113.489,87.545 113.725,87.249 113.725 C 86.953 113.725,86.481 114.046,86.199 114.438 C 85.917 114.829,85.373 115.266,84.991 115.409 C 84.609 115.552,84.179 115.981,84.037 116.364 C 83.894 116.746,83.457 117.289,83.065 117.571 C 82.673 117.853,82.353 118.326,82.353 118.622 C 82.353 118.918,82.044 119.468,81.667 119.846 C 80.600 120.913,80.600 271.636,81.667 272.703 C 82.044 273.081,82.353 273.631,82.353 273.927 C 82.353 274.223,82.673 274.696,83.065 274.978 C 83.457 275.260,83.894 275.803,84.037 276.185 C 84.179 276.568,84.609 276.997,84.991 277.140 C 85.373 277.283,85.917 277.720,86.199 278.111 C 86.481 278.503,86.953 278.824,87.249 278.824 C 87.545 278.824,88.096 279.132,88.473 279.510 C 89.124 280.160,94.970 280.196,200.196 280.196 C 305.422 280.196,311.268 280.160,311.919 279.510 C 312.296 279.132,312.847 278.824,313.143 278.824 C 313.439 278.824,313.912 278.503,314.193 278.111 C 314.475 277.720,315.019 277.283,315.401 277.140 C 315.783 276.997,316.213 276.568,316.356 276.185 C 316.498 275.803,316.935 275.260,317.327 274.978 C 317.719 274.696,318.039 274.223,318.039 273.927 C 318.039 273.631,318.348 273.081,318.725 272.703 C 319.374 272.054,319.412 267.887,319.412 196.275 C 319.412 124.662,319.374 120.495,318.725 119.846 C 318.348 119.468,318.039 118.918,318.039 118.622 C 318.039 118.326,317.719 117.853,317.327 117.571 C 316.935 117.289,316.498 116.746,316.356 116.364 C 316.213 115.981,315.783 115.552,315.401 115.409 C 315.019 115.266,314.475 114.829,314.193 114.438 C 313.912 114.046,313.439 113.725,313.143 113.725 C 312.847 113.725,312.296 113.417,311.919 113.039 C 311.233 112.354,91.141 111.767,89.419 112.446 M310.647 118.137 C 311.711 118.764,313.001 120.053,313.627 121.118 C 314.015 121.776,314.118 137.520,314.118 196.275 C 314.118 255.029,314.015 270.773,313.627 271.431 C 313.001 272.496,311.711 273.785,310.647 274.412 C 309.986 274.801,287.185 274.902,200.196 274.902 C 113.207 274.902,90.406 274.801,89.745 274.412 C 88.681 273.785,87.391 272.496,86.765 271.431 C 86.046 270.210,86.046 122.339,86.765 121.118 C 87.353 120.119,88.639 118.802,89.654 118.160 C 90.759 117.461,309.460 117.438,310.647 118.137 M104.804 126.158 C 104.319 126.252,103.922 126.493,103.922 126.694 C 103.922 126.895,103.648 127.059,103.314 127.059 C 100.994 127.059,95.686 132.343,95.686 134.654 C 95.686 134.970,95.466 135.302,95.196 135.392 C 94.807 135.522,94.706 148.048,94.706 196.275 C 94.706 244.501,94.807 257.027,95.196 257.157 C 95.466 257.247,95.686 257.579,95.686 257.895 C 95.686 260.186,100.991 265.490,103.281 265.490 C 103.597 265.490,103.930 265.711,104.020 265.980 C 104.150 266.371,123.734 266.471,200.196 266.471 C 276.658 266.471,296.242 266.371,296.373 265.980 C 296.462 265.711,296.795 265.490,297.111 265.490 C 299.401 265.490,304.706 260.186,304.706 257.895 C 304.706 257.579,304.926 257.247,305.196 257.157 C 305.916 256.917,305.916 135.632,305.196 135.392 C 304.926 135.302,304.706 134.970,304.706 134.654 C 304.706 132.363,299.401 127.059,297.111 127.059 C 296.795 127.059,296.462 126.838,296.373 126.569 C 296.215 126.095,107.219 125.689,104.804 126.158 M297.675 134.114 L 300.196 136.659 300.196 196.275 L 300.196 255.890 297.674 258.435 L 295.153 260.980 200.224 260.980 L 105.294 260.980 102.745 258.431 L 100.196 255.882 100.196 196.275 L 100.196 136.667 102.598 134.265 C 103.919 132.944,105.243 131.766,105.539 131.647 C 105.836 131.529,148.620 131.463,200.616 131.500 L 295.153 131.569 297.675 134.114 M199.405 147.195 C 194.889 149.772,194.213 159.349,198.269 163.288 L 199.728 164.706 220.746 164.731 C 245.271 164.759,247.608 164.898,249.128 166.419 C 250.665 167.956,250.866 169.177,249.741 170.144 C 249.237 170.578,248.399 171.296,247.881 171.741 C 247.363 172.185,246.769 172.549,246.561 172.549 C 246.023 172.549,243.137 175.502,243.137 176.051 C 243.137 176.646,239.391 180.392,238.796 180.392 C 238.202 180.392,235.294 183.300,235.294 183.894 C 235.294 184.489,231.548 188.235,230.953 188.235 C 230.358 188.235,227.451 191.143,227.451 191.737 C 227.451 192.332,223.705 196.078,223.110 196.078 C 222.515 196.078,219.608 198.986,219.608 199.580 C 219.608 200.176,215.862 203.922,215.267 203.922 C 214.672 203.922,211.765 206.829,211.765 207.424 C 211.765 208.019,208.019 211.765,207.424 211.765 C 206.829 211.765,203.922 214.672,203.922 215.267 C 203.922 215.862,200.176 219.608,199.580 219.608 C 198.915 219.608,196.237 222.399,195.911 223.431 C 195.759 223.917,195.509 224.314,195.357 224.314 C 195.205 224.314,194.765 224.900,194.379 225.616 C 193.993 226.332,193.115 227.250,192.427 227.656 C 191.007 228.494,189.836 229.765,189.817 230.490 C 189.810 230.760,189.627 230.980,189.412 230.980 C 188.809 230.980,188.947 232.466,189.621 233.235 C 189.951 233.613,191.070 234.830,192.106 235.941 C 193.142 237.052,194.233 238.552,194.531 239.274 C 195.042 240.517,196.317 241.919,196.961 241.948 C 197.123 241.955,197.608 242.314,198.039 242.745 C 198.525 243.231,199.346 243.529,200.196 243.529 C 201.046 243.529,201.867 243.231,202.353 242.745 C 202.784 242.314,203.270 241.955,203.431 241.948 C 203.893 241.927,205.490 240.502,205.490 240.110 C 205.490 239.530,207.837 237.310,208.755 237.019 C 209.224 236.871,209.838 236.423,210.120 236.022 C 210.402 235.622,210.887 235.294,211.199 235.294 C 211.510 235.294,211.765 235.039,211.765 234.728 C 211.765 234.417,212.074 233.932,212.451 233.650 C 212.828 233.368,213.464 232.494,213.864 231.707 C 214.293 230.862,215.176 229.979,216.021 229.550 C 216.807 229.150,217.682 228.515,217.963 228.137 C 218.245 227.760,218.731 227.451,219.042 227.451 C 219.353 227.451,219.608 227.196,219.608 226.885 C 219.608 226.574,219.917 226.088,220.294 225.807 C 220.672 225.525,221.307 224.650,221.707 223.864 C 222.136 223.019,223.019 222.136,223.864 221.707 C 224.650 221.307,225.525 220.672,225.807 220.294 C 226.088 219.917,226.574 219.608,226.885 219.608 C 227.196 219.608,227.451 219.353,227.451 219.042 C 227.451 218.731,227.760 218.245,228.137 217.963 C 228.515 217.682,229.150 216.807,229.550 216.021 C 229.979 215.176,230.862 214.293,231.707 213.864 C 232.494 213.464,233.368 212.828,233.650 212.451 C 233.932 212.074,234.417 211.765,234.728 211.765 C 235.039 211.765,235.294 211.510,235.294 211.199 C 235.294 210.887,235.603 210.402,235.980 210.120 C 236.358 209.838,236.994 208.964,237.393 208.177 C 237.822 207.332,238.705 206.450,239.550 206.021 C 240.337 205.621,241.211 204.985,241.493 204.608 C 241.775 204.230,242.260 203.922,242.571 203.922 C 242.883 203.922,243.137 203.667,243.137 203.356 C 243.137 203.044,243.446 202.559,243.824 202.277 C 244.201 201.995,244.837 201.121,245.236 200.334 C 245.655 199.509,246.557 198.597,247.368 198.177 C 248.141 197.778,249.093 197.142,249.484 196.765 C 249.876 196.387,250.373 196.078,250.588 196.078 C 250.804 196.078,250.980 195.820,250.980 195.504 C 250.980 195.188,251.333 194.741,251.765 194.510 C 252.196 194.279,252.549 193.849,252.549 193.553 C 252.549 192.866,254.900 190.196,255.505 190.196 C 255.757 190.196,256.440 189.755,257.022 189.216 C 257.604 188.676,258.247 188.235,258.452 188.235 C 258.656 188.235,258.824 187.977,258.824 187.661 C 258.824 187.345,259.176 186.898,259.608 186.667 C 260.039 186.436,260.392 185.998,260.392 185.694 C 260.392 185.390,260.981 184.499,261.701 183.713 L 263.011 182.284 264.741 182.789 C 265.692 183.068,266.559 183.405,266.667 183.539 C 266.775 183.673,267.149 183.888,267.500 184.017 C 268.603 184.423,268.707 186.325,268.894 209.510 C 268.994 221.966,269.211 232.157,269.377 232.157 C 269.543 232.157,269.918 232.881,270.210 233.767 C 270.502 234.653,270.985 235.471,271.283 235.585 C 271.581 235.700,271.985 236.215,272.181 236.730 C 272.377 237.246,272.849 237.783,273.229 237.925 C 273.610 238.067,274.152 238.504,274.434 238.896 C 274.716 239.287,275.189 239.608,275.484 239.608 C 275.780 239.608,276.289 239.875,276.616 240.201 C 277.509 241.095,279.376 241.353,280.052 240.676 C 280.367 240.361,280.970 239.993,281.391 239.858 C 281.812 239.722,282.775 239.082,283.529 238.434 C 284.284 237.787,285.014 237.256,285.150 237.256 C 285.287 237.255,285.502 236.946,285.629 236.569 C 285.892 235.786,286.731 234.413,287.132 234.110 C 287.281 233.997,287.579 233.441,287.795 232.872 C 288.272 231.616,288.477 153.919,288.006 152.745 C 287.571 151.664,284.882 149.127,283.817 148.795 C 283.335 148.645,282.837 148.361,282.710 148.164 C 282.583 147.967,281.525 147.551,280.357 147.241 C 277.554 146.495,200.708 146.452,199.405 147.195 M280.527 151.275 C 282.478 152.358,282.719 152.893,282.733 156.176 C 282.740 157.933,282.911 159.216,283.137 159.216 C 283.353 159.216,283.529 160.010,283.529 160.980 C 283.529 161.951,283.353 162.745,283.137 162.745 C 282.879 162.745,282.745 174.430,282.745 197.014 C 282.745 233.284,282.803 232.116,280.927 233.981 C 279.543 235.356,278.770 235.654,277.887 235.154 C 276.881 234.585,275.716 233.272,275.699 232.689 C 275.692 232.442,275.422 232.139,275.098 232.015 C 274.584 231.818,274.509 228.755,274.507 207.757 C 274.504 184.818,274.200 176.840,273.319 176.536 C 273.111 176.464,272.941 176.213,272.941 175.979 C 272.941 173.934,270.711 173.729,268.703 175.588 C 266.238 177.871,266.106 177.952,263.699 178.652 C 262.453 179.014,261.078 179.642,260.643 180.047 C 260.208 180.453,259.706 180.784,259.528 180.784 C 259.349 180.784,258.897 181.446,258.523 182.255 C 258.149 183.064,257.534 184.068,257.157 184.486 C 256.779 184.904,256.471 185.392,256.471 185.570 C 256.471 185.749,255.809 186.201,255.000 186.575 C 254.191 186.949,253.187 187.564,252.769 187.941 C 252.351 188.319,251.863 188.627,251.684 188.627 C 251.506 188.627,251.054 189.289,250.680 190.098 C 250.306 190.907,249.691 191.911,249.314 192.329 C 248.936 192.747,248.627 193.204,248.627 193.346 C 248.627 193.487,247.971 193.939,247.168 194.350 C 244.283 195.828,242.890 197.217,241.430 200.069 C 241.010 200.891,240.107 201.794,239.284 202.215 C 236.445 203.668,235.040 205.072,233.587 207.912 C 233.167 208.734,232.263 209.637,231.441 210.058 C 228.602 211.511,227.197 212.916,225.744 215.755 C 225.323 216.577,224.420 217.480,223.598 217.901 C 220.759 219.354,219.354 220.759,217.901 223.598 C 217.480 224.420,216.577 225.323,215.755 225.744 C 212.925 227.192,211.508 228.606,210.074 231.411 C 209.364 232.801,207.649 234.118,206.550 234.118 C 206.229 234.118,205.865 234.382,205.741 234.706 C 205.616 235.029,205.276 235.294,204.985 235.294 C 204.270 235.294,202.889 236.935,202.185 238.622 C 201.868 239.380,201.335 240.000,201.000 240.000 C 200.666 240.000,200.389 240.221,200.386 240.490 C 200.382 240.820,200.286 240.842,200.092 240.560 C 199.934 240.328,199.539 240.042,199.216 239.923 C 198.892 239.804,198.387 238.890,198.094 237.892 C 197.801 236.895,197.415 236.078,197.238 236.078 C 197.061 236.078,196.792 235.681,196.641 235.196 C 196.491 234.711,195.773 233.732,195.047 233.021 L 193.727 231.729 195.798 229.688 C 197.141 228.365,198.067 227.037,198.432 225.913 C 198.983 224.213,200.436 222.353,201.214 222.353 C 203.052 222.353,206.667 218.738,206.667 216.900 C 206.667 216.388,208.545 214.510,209.057 214.510 C 210.895 214.510,214.510 210.895,214.510 209.057 C 214.510 208.545,216.388 206.667,216.900 206.667 C 218.738 206.667,222.353 203.052,222.353 201.214 C 222.353 200.702,224.232 198.824,224.743 198.824 C 226.581 198.824,230.196 195.209,230.196 193.371 C 230.196 192.859,232.075 190.980,232.586 190.980 C 234.424 190.980,238.039 187.365,238.039 185.527 C 238.039 185.016,239.918 183.137,240.429 183.137 C 242.267 183.137,245.882 179.522,245.882 177.684 C 245.882 176.961,247.795 175.367,248.974 175.108 C 250.153 174.849,252.941 172.538,252.941 171.819 C 252.941 171.604,253.250 171.119,253.627 170.742 C 254.927 169.441,254.445 164.189,252.884 162.627 L 251.629 161.373 225.856 161.264 L 200.083 161.155 199.828 159.793 C 199.687 159.044,199.413 158.431,199.217 158.431 C 198.840 158.431,198.173 154.068,198.348 152.745 C 198.644 150.498,196.550 150.606,239.743 150.597 C 276.685 150.589,279.372 150.633,280.527 151.275 M396.961 153.222 C 397.554 153.312,398.525 153.312,399.118 153.222 C 399.711 153.132,399.225 153.059,398.039 153.059 C 396.853 153.059,396.368 153.132,396.961 153.222 " id="path0" fill="#acacac" fill-rule="evenodd"/>
  <path stroke="none" d="M89.654 118.160 C 88.639 118.802,87.353 120.119,86.765 121.118 C 86.046 122.339,86.046 270.210,86.765 271.431 C 87.391 272.496,88.681 273.785,89.745 274.412 C 90.968 275.132,309.424 275.132,310.647 274.412 C 311.711 273.785,313.001 272.496,313.627 271.431 C 314.015 270.773,314.118 255.029,314.118 196.275 C 314.118 137.520,314.015 121.776,313.627 121.118 C 313.001 120.053,311.711 118.764,310.647 118.137 C 309.460 117.438,90.759 117.461,89.654 118.160 M296.373 126.569 C 296.462 126.838,296.795 127.059,297.111 127.059 C 299.401 127.059,304.706 132.363,304.706 134.654 C 304.706 134.970,304.926 135.302,305.196 135.392 C 305.585 135.522,305.686 148.048,305.686 196.275 C 305.686 244.501,305.585 257.027,305.196 257.157 C 304.926 257.247,304.706 257.579,304.706 257.895 C 304.706 260.186,299.401 265.490,297.111 265.490 C 296.795 265.490,296.462 265.711,296.373 265.980 C 296.242 266.371,276.658 266.471,200.196 266.471 C 123.734 266.471,104.150 266.371,104.020 265.980 C 103.930 265.711,103.597 265.490,103.281 265.490 C 100.991 265.490,95.686 260.186,95.686 257.895 C 95.686 257.579,95.466 257.247,95.196 257.157 C 94.807 257.027,94.706 244.501,94.706 196.275 C 94.706 148.048,94.807 135.522,95.196 135.392 C 95.466 135.302,95.686 134.970,95.686 134.654 C 95.686 132.343,100.994 127.059,103.314 127.059 C 103.648 127.059,103.922 126.895,103.922 126.694 C 103.922 125.777,296.067 125.652,296.373 126.569 M199.324 151.283 C 198.844 151.656,198.405 152.314,198.348 152.745 C 198.173 154.068,198.840 158.431,199.217 158.431 C 199.413 158.431,199.687 159.044,199.828 159.793 L 200.083 161.155 225.856 161.264 L 251.629 161.373 252.884 162.627 C 254.445 164.189,254.927 169.441,253.627 170.742 C 253.250 171.119,252.941 171.604,252.941 171.819 C 252.941 172.538,250.153 174.849,248.974 175.108 C 247.795 175.367,245.882 176.961,245.882 177.684 C 245.882 179.522,242.267 183.137,240.429 183.137 C 239.918 183.137,238.039 185.016,238.039 185.527 C 238.039 187.365,234.424 190.980,232.586 190.980 C 232.075 190.980,230.196 192.859,230.196 193.371 C 230.196 195.209,226.581 198.824,224.743 198.824 C 224.232 198.824,222.353 200.702,222.353 201.214 C 222.353 203.052,218.738 206.667,216.900 206.667 C 216.388 206.667,214.510 208.545,214.510 209.057 C 214.510 210.895,210.895 214.510,209.057 214.510 C 208.545 214.510,206.667 216.388,206.667 216.900 C 206.667 218.738,203.052 222.353,201.214 222.353 C 200.436 222.353,198.983 224.213,198.432 225.913 C 198.067 227.037,197.141 228.365,195.798 229.688 L 193.727 231.729 195.047 233.021 C 195.773 233.732,196.491 234.711,196.641 235.196 C 196.792 235.681,197.061 236.078,197.238 236.078 C 197.415 236.078,197.801 236.895,198.094 237.892 C 198.387 238.890,198.892 239.804,199.216 239.923 C 199.539 240.042,199.934 240.328,200.092 240.560 C 200.286 240.842,200.382 240.820,200.386 240.490 C 200.389 240.221,200.666 240.000,201.000 240.000 C 201.335 240.000,201.868 239.380,202.185 238.622 C 202.889 236.935,204.270 235.294,204.985 235.294 C 205.276 235.294,205.616 235.029,205.741 234.706 C 205.865 234.382,206.229 234.118,206.550 234.118 C 207.649 234.118,209.364 232.801,210.074 231.411 C 211.508 228.606,212.925 227.192,215.755 225.744 C 216.577 225.323,217.480 224.420,217.901 223.598 C 219.354 220.759,220.759 219.354,223.598 217.901 C 224.420 217.480,225.323 216.577,225.744 215.755 C 227.197 212.916,228.602 211.511,231.441 210.058 C 232.263 209.637,233.167 208.734,233.587 207.912 C 235.040 205.072,236.445 203.668,239.284 202.215 C 240.107 201.794,241.010 200.891,241.430 200.069 C 242.890 197.217,244.283 195.828,247.168 194.350 C 247.971 193.939,248.627 193.487,248.627 193.346 C 248.627 193.204,248.936 192.747,249.314 192.329 C 249.691 191.911,250.306 190.907,250.680 190.098 C 251.054 189.289,251.506 188.627,251.684 188.627 C 251.863 188.627,252.351 188.319,252.769 187.941 C 253.187 187.564,254.191 186.949,255.000 186.575 C 255.809 186.201,256.471 185.749,256.471 185.570 C 256.471 185.392,256.779 184.904,257.157 184.486 C 257.534 184.068,258.149 183.064,258.523 182.255 C 258.897 181.446,259.349 180.784,259.528 180.784 C 259.706 180.784,260.208 180.453,260.643 180.047 C 261.078 179.642,262.453 179.014,263.699 178.652 C 266.106 177.952,266.238 177.871,268.703 175.588 C 270.711 173.729,272.941 173.934,272.941 175.979 C 272.941 176.213,273.111 176.464,273.319 176.536 C 274.200 176.840,274.504 184.818,274.507 207.757 C 274.509 228.755,274.584 231.818,275.098 232.015 C 275.422 232.139,275.692 232.442,275.699 232.689 C 275.716 233.272,276.881 234.585,277.887 235.154 C 278.770 235.654,279.543 235.356,280.927 233.981 C 282.803 232.116,282.745 233.284,282.745 197.014 C 282.745 174.430,282.879 162.745,283.137 162.745 C 283.353 162.745,283.529 161.951,283.529 160.980 C 283.529 160.010,283.353 159.216,283.137 159.216 C 282.911 159.216,282.740 157.933,282.733 156.176 C 282.719 152.893,282.478 152.358,280.527 151.275 C 278.629 150.221,200.681 150.229,199.324 151.283 " id="path1" fill="#f8f8f8" fill-rule="evenodd"/>
  <path stroke="none" d="M125.201 4.203 C 125.798 4.293,126.680 4.291,127.162 4.198 C 127.645 4.105,127.157 4.031,126.078 4.034 C 125.000 4.037,124.605 4.113,125.201 4.203 M273.045 4.203 C 273.641 4.293,274.523 4.291,275.005 4.198 C 275.488 4.105,275.000 4.031,273.922 4.034 C 272.843 4.037,272.449 4.113,273.045 4.203 M108.534 12.042 C 109.022 12.136,109.728 12.132,110.103 12.034 C 110.478 11.936,110.078 11.859,109.216 11.864 C 108.353 11.868,108.046 11.948,108.534 12.042 M290.103 12.042 C 290.590 12.136,291.296 12.132,291.671 12.034 C 292.046 11.936,291.647 11.859,290.784 11.864 C 289.922 11.868,289.615 11.948,290.103 12.042 M93.824 19.878 C 94.201 19.977,94.819 19.977,95.196 19.878 C 95.574 19.780,95.265 19.699,94.510 19.699 C 93.755 19.699,93.446 19.780,93.824 19.878 M304.804 19.878 C 305.181 19.977,305.799 19.977,306.176 19.878 C 306.554 19.780,306.245 19.699,305.490 19.699 C 304.735 19.699,304.426 19.780,304.804 19.878 M72.456 35.571 C 72.943 35.665,73.649 35.662,74.024 35.564 C 74.399 35.465,74.000 35.389,73.137 35.393 C 72.275 35.397,71.968 35.478,72.456 35.571 M326.181 35.571 C 326.669 35.665,327.375 35.662,327.750 35.564 C 328.125 35.465,327.725 35.389,326.863 35.393 C 326.000 35.397,325.693 35.478,326.181 35.571 M66.766 41.765 C 66.770 42.627,66.850 42.934,66.944 42.446 C 67.038 41.959,67.034 41.253,66.936 40.878 C 66.838 40.503,66.761 40.902,66.766 41.765 M47.157 59.094 C 47.534 59.192,48.152 59.192,48.529 59.094 C 48.907 58.995,48.598 58.915,47.843 58.915 C 47.088 58.915,46.779 58.995,47.157 59.094 M350.887 59.101 C 351.375 59.195,352.081 59.191,352.456 59.093 C 352.830 58.995,352.431 58.918,351.569 58.922 C 350.706 58.927,350.399 59.007,350.887 59.101 M43.228 63.529 C 43.228 64.284,43.309 64.593,43.408 64.216 C 43.506 63.838,43.506 63.221,43.408 62.843 C 43.309 62.466,43.228 62.775,43.228 63.529 M41.083 66.944 C 41.571 67.038,42.277 67.034,42.652 66.936 C 43.027 66.838,42.627 66.761,41.765 66.766 C 40.902 66.770,40.595 66.850,41.083 66.944 M357.554 66.944 C 358.041 67.038,358.747 67.034,359.122 66.936 C 359.497 66.838,359.098 66.761,358.235 66.766 C 357.373 66.770,357.066 66.850,357.554 66.944 M35.393 73.137 C 35.397 74.000,35.478 74.307,35.571 73.819 C 35.665 73.331,35.662 72.625,35.564 72.250 C 35.465 71.875,35.389 72.275,35.393 73.137 M25.397 90.473 C 25.885 90.567,26.590 90.564,26.965 90.466 C 27.340 90.367,26.941 90.291,26.078 90.295 C 25.216 90.299,24.909 90.380,25.397 90.473 M373.240 90.473 C 373.728 90.567,374.434 90.564,374.808 90.466 C 375.183 90.367,374.784 90.291,373.922 90.295 C 373.059 90.299,372.752 90.380,373.240 90.473 M19.720 97.059 C 19.723 98.137,19.799 98.532,19.889 97.936 C 19.979 97.340,19.977 96.457,19.884 95.975 C 19.791 95.493,19.717 95.980,19.720 97.059 M17.554 106.160 C 18.041 106.254,18.747 106.250,19.122 106.152 C 19.497 106.054,19.098 105.977,18.235 105.981 C 17.373 105.986,17.066 106.066,17.554 106.160 M381.083 106.160 C 381.571 106.254,382.277 106.250,382.652 106.152 C 383.027 106.054,382.627 105.977,381.765 105.981 C 380.902 105.986,380.595 106.066,381.083 106.160 M87.256 108.524 C 86.610 108.620,85.992 108.815,85.884 108.957 C 85.775 109.099,84.770 109.528,83.649 109.910 C 81.063 110.792,79.420 112.436,78.538 115.022 C 78.156 116.142,77.667 117.185,77.451 117.339 C 76.908 117.726,76.908 274.823,77.451 275.210 C 77.667 275.364,78.156 276.407,78.538 277.527 C 79.420 280.113,81.063 281.757,83.649 282.639 C 84.770 283.021,85.812 283.510,85.966 283.725 C 86.152 283.985,124.677 284.118,200.196 284.118 C 275.715 284.118,314.241 283.985,314.426 283.725 C 314.580 283.510,315.623 283.021,316.743 282.639 C 319.329 281.757,320.972 280.113,321.854 277.527 C 322.236 276.407,322.725 275.364,322.941 275.210 C 323.484 274.823,323.484 117.726,322.941 117.339 C 322.725 117.185,322.236 116.142,321.854 115.022 C 320.972 112.436,319.329 110.792,316.743 109.910 C 315.623 109.528,314.580 109.039,314.426 108.824 C 314.150 108.436,89.835 108.140,87.256 108.524 M11.877 112.745 C 11.880 113.824,11.956 114.218,12.046 113.622 C 12.136 113.026,12.134 112.144,12.041 111.661 C 11.948 111.179,11.874 111.667,11.877 112.745 M311.919 113.039 C 312.296 113.417,312.847 113.725,313.143 113.725 C 313.439 113.725,313.912 114.046,314.193 114.438 C 314.475 114.829,315.019 115.266,315.401 115.409 C 315.783 115.552,316.213 115.981,316.356 116.364 C 316.498 116.746,316.935 117.289,317.327 117.571 C 317.719 117.853,318.039 118.326,318.039 118.622 C 318.039 118.918,318.348 119.468,318.725 119.846 C 319.792 120.913,319.792 271.636,318.725 272.703 C 318.348 273.081,318.039 273.631,318.039 273.927 C 318.039 274.223,317.719 274.696,317.327 274.978 C 316.935 275.260,316.498 275.803,316.356 276.185 C 316.213 276.568,315.783 276.997,315.401 277.140 C 315.019 277.283,314.475 277.720,314.193 278.111 C 313.912 278.503,313.439 278.824,313.143 278.824 C 312.847 278.824,312.296 279.132,311.919 279.510 C 310.851 280.577,89.541 280.577,88.473 279.510 C 88.096 279.132,87.545 278.824,87.249 278.824 C 86.953 278.824,86.481 278.503,86.199 278.111 C 85.917 277.720,85.373 277.283,84.991 277.140 C 84.609 276.997,84.179 276.568,84.037 276.185 C 83.894 275.803,83.457 275.260,83.065 274.978 C 82.673 274.696,82.353 274.223,82.353 273.927 C 82.353 273.631,82.044 273.081,81.667 272.703 C 80.600 271.636,80.600 120.913,81.667 119.846 C 82.044 119.468,82.353 118.918,82.353 118.622 C 82.353 118.326,82.673 117.853,83.065 117.571 C 83.457 117.289,83.894 116.746,84.037 116.364 C 84.179 115.981,84.609 115.552,84.991 115.409 C 85.373 115.266,85.917 114.829,86.199 114.438 C 86.481 114.046,86.953 113.725,87.249 113.725 C 87.545 113.725,88.023 113.489,88.312 113.200 C 88.601 112.911,89.099 112.572,89.419 112.446 C 91.141 111.767,311.233 112.354,311.919 113.039 M4.034 132.353 C 4.037 133.431,4.113 133.826,4.203 133.230 C 4.293 132.634,4.291 131.751,4.198 131.269 C 4.105 130.787,4.031 131.275,4.034 132.353 M105.539 131.647 C 105.243 131.766,103.919 132.944,102.598 134.265 L 100.196 136.667 100.196 196.275 L 100.196 255.882 102.745 258.431 L 105.294 260.980 200.224 260.980 L 295.153 260.980 297.674 258.435 L 300.196 255.890 300.196 196.275 L 300.196 136.659 297.675 134.114 L 295.153 131.569 200.616 131.500 C 148.620 131.463,105.836 131.529,105.539 131.647 M295.509 136.332 L 296.471 137.369 296.471 196.275 L 296.471 255.180 295.509 256.217 L 294.547 257.255 200.268 257.255 L 105.989 257.255 104.955 256.221 L 103.922 255.187 103.922 196.275 L 103.922 137.362 104.955 136.328 L 105.989 135.294 200.268 135.294 L 294.547 135.294 295.509 136.332 M199.702 141.827 C 199.065 142.087,196.863 144.286,196.863 144.662 C 196.863 144.820,196.357 145.468,195.738 146.102 C 192.903 149.009,192.888 162.631,195.716 165.460 C 197.611 167.354,198.933 167.451,222.960 167.451 C 236.459 167.451,245.098 167.594,245.098 167.818 C 245.098 168.020,245.672 168.241,246.373 168.308 C 247.717 168.438,247.984 169.116,246.785 169.359 C 246.397 169.438,245.990 169.623,245.882 169.771 C 245.775 169.919,244.859 170.351,243.847 170.730 C 242.231 171.336,241.924 171.643,241.318 173.259 C 240.939 174.270,240.508 175.186,240.360 175.294 C 240.212 175.402,240.024 175.841,239.943 176.270 C 239.861 176.699,239.444 177.116,239.015 177.198 C 238.586 177.279,238.147 177.467,238.039 177.615 C 237.931 177.762,237.015 178.194,236.004 178.573 C 234.388 179.179,234.081 179.486,233.475 181.102 C 233.096 182.114,232.664 183.029,232.516 183.137 C 232.369 183.245,232.181 183.684,232.100 184.113 C 232.018 184.542,231.601 184.960,231.172 185.041 C 230.743 185.122,230.304 185.310,230.196 185.458 C 230.088 185.606,229.172 186.037,228.161 186.416 C 226.545 187.022,226.238 187.329,225.632 188.945 C 225.253 189.957,224.821 190.873,224.673 190.980 C 224.525 191.088,224.338 191.527,224.257 191.956 C 224.175 192.385,223.758 192.803,223.329 192.884 C 222.900 192.965,222.461 193.153,222.353 193.301 C 222.245 193.449,221.329 193.880,220.318 194.259 C 218.702 194.865,218.395 195.172,217.789 196.788 C 217.409 197.800,216.978 198.716,216.830 198.824 C 216.682 198.931,216.495 199.371,216.413 199.799 C 216.332 200.228,215.915 200.646,215.486 200.727 C 215.057 200.808,214.618 200.996,214.510 201.144 C 214.402 201.292,213.486 201.723,212.474 202.102 C 210.859 202.708,210.551 203.015,209.946 204.631 C 209.566 205.643,209.135 206.559,208.987 206.667 C 208.839 206.775,208.652 207.214,208.570 207.643 C 208.489 208.071,208.071 208.489,207.643 208.570 C 207.214 208.652,206.775 208.839,206.667 208.987 C 206.559 209.135,205.643 209.566,204.631 209.946 C 203.015 210.551,202.708 210.859,202.102 212.474 C 201.723 213.486,201.292 214.402,201.144 214.510 C 200.996 214.618,200.808 215.057,200.727 215.486 C 200.646 215.915,200.228 216.332,199.799 216.413 C 199.371 216.495,198.931 216.682,198.824 216.830 C 198.716 216.978,197.792 217.413,196.770 217.796 C 195.101 218.421,194.843 218.688,194.227 220.423 C 193.850 221.484,193.406 222.353,193.241 222.353 C 193.076 222.353,192.936 222.662,192.929 223.039 C 192.909 224.147,192.058 224.947,190.590 225.238 C 186.729 226.003,184.691 234.159,187.627 237.095 C 187.964 237.432,188.422 238.047,188.644 238.462 C 188.866 238.877,189.262 239.218,189.524 239.220 C 190.184 239.226,192.389 241.580,192.714 242.627 C 192.861 243.101,193.309 243.593,193.709 243.720 C 194.110 243.847,194.529 244.191,194.642 244.484 C 195.299 246.198,204.349 246.033,205.996 244.277 C 206.382 243.866,206.855 243.529,207.048 243.529 C 207.240 243.529,207.521 243.132,207.672 242.647 C 208.053 241.419,210.246 239.225,211.097 239.220 C 212.013 239.214,215.685 235.543,215.690 234.627 C 215.696 233.742,218.092 231.373,218.982 231.373 C 219.865 231.373,223.528 227.679,223.534 226.783 C 223.539 225.899,225.936 223.529,226.825 223.529 C 227.708 223.529,231.371 219.836,231.377 218.940 C 231.382 218.056,233.779 215.686,234.668 215.686 C 235.551 215.686,239.215 211.993,239.220 211.097 C 239.225 210.213,241.622 207.843,242.511 207.843 C 243.394 207.843,247.058 204.149,247.063 203.254 C 247.069 202.316,249.337 200.181,250.671 199.858 C 251.985 199.540,254.443 197.068,254.780 195.726 C 255.111 194.407,257.188 192.337,258.499 192.019 C 259.893 191.681,261.992 189.547,262.607 187.843 C 262.880 187.088,263.111 186.765,263.120 187.124 C 263.130 187.484,263.318 187.838,263.540 187.912 C 264.859 188.352,265.089 192.072,265.093 213.039 C 265.096 226.566,265.234 233.725,265.490 233.725 C 265.706 233.725,265.882 234.135,265.882 234.635 C 265.882 235.993,267.034 239.608,267.466 239.608 C 267.674 239.608,267.843 239.850,267.843 240.146 C 267.843 240.985,270.376 242.943,272.238 243.543 C 273.164 243.841,274.048 244.269,274.201 244.493 C 274.567 245.028,283.090 245.010,283.455 244.474 C 283.604 244.256,284.559 243.765,285.577 243.383 C 287.896 242.514,289.530 241.010,290.215 239.114 C 290.507 238.307,290.869 237.647,291.019 237.647 C 291.985 237.647,292.157 230.853,292.157 192.621 C 292.157 153.000,292.041 149.020,290.889 149.020 C 290.713 149.020,290.401 148.578,290.196 148.039 C 289.991 147.500,289.593 147.059,289.313 147.059 C 289.032 147.059,288.500 146.706,288.130 146.275 C 287.761 145.843,287.137 145.490,286.744 145.490 C 286.352 145.490,285.654 145.140,285.195 144.712 C 284.735 144.284,283.599 143.634,282.670 143.268 C 281.741 142.902,280.854 142.414,280.701 142.184 C 280.414 141.755,200.738 141.403,199.702 141.827 M280.357 147.241 C 281.525 147.551,282.583 147.967,282.710 148.164 C 282.837 148.361,283.335 148.645,283.817 148.795 C 284.882 149.127,287.571 151.664,288.006 152.745 C 288.477 153.919,288.272 231.616,287.795 232.872 C 287.579 233.441,287.281 233.997,287.132 234.110 C 286.731 234.413,285.892 235.786,285.629 236.569 C 285.502 236.946,285.287 237.255,285.150 237.256 C 285.014 237.256,284.284 237.787,283.529 238.434 C 282.775 239.082,281.812 239.722,281.391 239.858 C 280.970 239.993,280.367 240.361,280.052 240.676 C 279.376 241.353,277.509 241.095,276.616 240.201 C 276.289 239.875,275.780 239.608,275.484 239.608 C 275.189 239.608,274.716 239.287,274.434 238.896 C 274.152 238.504,273.610 238.067,273.229 237.925 C 272.849 237.783,272.377 237.246,272.181 236.730 C 271.985 236.215,271.581 235.700,271.283 235.585 C 270.985 235.471,270.502 234.653,270.210 233.767 C 269.918 232.881,269.543 232.157,269.377 232.157 C 269.211 232.157,268.994 221.966,268.894 209.510 C 268.707 186.325,268.603 184.423,267.500 184.017 C 267.149 183.888,266.775 183.673,266.667 183.539 C 266.559 183.405,265.692 183.068,264.741 182.789 L 263.011 182.284 261.701 183.713 C 260.981 184.499,260.392 185.390,260.392 185.694 C 260.392 185.998,260.039 186.436,259.608 186.667 C 259.176 186.898,258.824 187.345,258.824 187.661 C 258.824 187.977,258.656 188.235,258.452 188.235 C 258.247 188.235,257.604 188.676,257.022 189.216 C 256.440 189.755,255.757 190.196,255.505 190.196 C 254.900 190.196,252.549 192.866,252.549 193.553 C 252.549 193.849,252.196 194.279,251.765 194.510 C 251.333 194.741,250.980 195.188,250.980 195.504 C 250.980 195.820,250.804 196.078,250.588 196.078 C 250.373 196.078,249.876 196.387,249.484 196.765 C 249.093 197.142,248.141 197.778,247.368 198.177 C 246.557 198.597,245.655 199.509,245.236 200.334 C 244.837 201.121,244.201 201.995,243.824 202.277 C 243.446 202.559,243.137 203.044,243.137 203.356 C 243.137 203.667,242.883 203.922,242.571 203.922 C 242.260 203.922,241.775 204.230,241.493 204.608 C 241.211 204.985,240.337 205.621,239.550 206.021 C 238.705 206.450,237.822 207.332,237.393 208.177 C 236.994 208.964,236.358 209.838,235.980 210.120 C 235.603 210.402,235.294 210.887,235.294 211.199 C 235.294 211.510,235.039 211.765,234.728 211.765 C 234.417 211.765,233.932 212.074,233.650 212.451 C 233.368 212.828,232.494 213.464,231.707 213.864 C 230.862 214.293,229.979 215.176,229.550 216.021 C 229.150 216.807,228.515 217.682,228.137 217.963 C 227.760 218.245,227.451 218.731,227.451 219.042 C 227.451 219.353,227.196 219.608,226.885 219.608 C 226.574 219.608,226.088 219.917,225.807 220.294 C 225.525 220.672,224.650 221.307,223.864 221.707 C 223.019 222.136,222.136 223.019,221.707 223.864 C 221.307 224.650,220.672 225.525,220.294 225.807 C 219.917 226.088,219.608 226.574,219.608 226.885 C 219.608 227.196,219.353 227.451,219.042 227.451 C 218.731 227.451,218.245 227.760,217.963 228.137 C 217.682 228.515,216.807 229.150,216.021 229.550 C 215.176 229.979,214.293 230.862,213.864 231.707 C 213.464 232.494,212.828 233.368,212.451 233.650 C 212.074 233.932,211.765 234.417,211.765 234.728 C 211.765 235.039,211.510 235.294,211.199 235.294 C 210.887 235.294,210.402 235.622,210.120 236.022 C 209.838 236.423,209.224 236.871,208.755 237.019 C 207.837 237.310,205.490 239.530,205.490 240.110 C 205.490 240.502,203.893 241.927,203.431 241.948 C 203.270 241.955,202.784 242.314,202.353 242.745 C 201.867 243.231,201.046 243.529,200.196 243.529 C 199.346 243.529,198.525 243.231,198.039 242.745 C 197.608 242.314,197.123 241.955,196.961 241.948 C 196.317 241.919,195.042 240.517,194.531 239.274 C 194.233 238.552,193.142 237.052,192.106 235.941 C 191.070 234.830,189.951 233.613,189.621 233.235 C 188.947 232.466,188.809 230.980,189.412 230.980 C 189.627 230.980,189.810 230.760,189.817 230.490 C 189.836 229.765,191.007 228.494,192.427 227.656 C 193.115 227.250,193.993 226.332,194.379 225.616 C 194.765 224.900,195.205 224.314,195.357 224.314 C 195.509 224.314,195.759 223.917,195.911 223.431 C 196.237 222.399,198.915 219.608,199.580 219.608 C 200.176 219.608,203.922 215.862,203.922 215.267 C 203.922 214.672,206.829 211.765,207.424 211.765 C 208.019 211.765,211.765 208.019,211.765 207.424 C 211.765 206.829,214.672 203.922,215.267 203.922 C 215.862 203.922,219.608 200.176,219.608 199.580 C 219.608 198.986,222.515 196.078,223.110 196.078 C 223.705 196.078,227.451 192.332,227.451 191.737 C 227.451 191.143,230.358 188.235,230.953 188.235 C 231.548 188.235,235.294 184.489,235.294 183.894 C 235.294 183.300,238.202 180.392,238.796 180.392 C 239.391 180.392,243.137 176.646,243.137 176.051 C 243.137 175.502,246.023 172.549,246.561 172.549 C 246.769 172.549,247.363 172.185,247.881 171.741 C 248.399 171.296,249.237 170.578,249.741 170.144 C 250.866 169.177,250.665 167.956,249.128 166.419 C 247.608 164.898,245.271 164.759,220.746 164.731 L 199.728 164.706 198.269 163.288 C 194.213 159.349,194.889 149.772,199.405 147.195 C 200.708 146.452,277.554 146.495,280.357 147.241 M4.034 259.804 C 4.037 260.882,4.113 261.277,4.203 260.681 C 4.293 260.085,4.291 259.202,4.198 258.720 C 4.105 258.238,4.031 258.725,4.034 259.804 M11.877 279.412 C 11.880 280.490,11.956 280.885,12.046 280.289 C 12.136 279.693,12.134 278.810,12.041 278.328 C 11.948 277.846,11.874 278.333,11.877 279.412 M19.720 295.098 C 19.723 296.176,19.799 296.571,19.889 295.975 C 19.979 295.379,19.977 294.497,19.884 294.014 C 19.791 293.532,19.717 294.020,19.720 295.098 M35.393 319.020 C 35.397 319.882,35.478 320.189,35.571 319.701 C 35.665 319.214,35.662 318.508,35.564 318.133 C 35.465 317.758,35.389 318.157,35.393 319.020 M43.236 328.039 C 43.241 328.902,43.321 329.209,43.415 328.721 C 43.508 328.233,43.505 327.527,43.407 327.152 C 43.309 326.777,43.232 327.176,43.236 328.039 M66.766 350.392 C 66.770 351.255,66.850 351.562,66.944 351.074 C 67.038 350.586,67.034 349.880,66.936 349.505 C 66.838 349.130,66.761 349.529,66.766 350.392 " id="path2" fill="#848484" fill-rule="evenodd"/>
  <path stroke="none" d="M137.255 1.961 L 137.255 3.922 132.451 3.980 C 129.809 4.012,124.970 4.060,121.697 4.087 C 114.335 4.149,114.336 4.148,113.944 8.644 L 113.672 11.765 112.228 11.810 C 111.434 11.835,108.363 11.891,105.403 11.935 C 98.705 12.035,98.642 12.075,98.258 16.487 C 98.037 19.018,97.861 19.615,97.326 19.645 C 96.963 19.666,94.222 19.753,91.234 19.839 C 83.685 20.057,82.763 20.649,82.750 25.294 L 82.743 27.647 79.225 27.656 C 74.847 27.668,74.786 27.727,74.643 32.053 L 74.530 35.490 71.026 35.490 C 66.733 35.490,66.847 35.375,66.934 39.645 L 67.005 43.137 65.365 43.208 C 64.463 43.246,62.815 43.291,61.702 43.306 C 59.082 43.341,59.063 43.370,58.968 47.306 C 58.871 51.361,59.204 51.028,55.149 51.125 C 51.060 51.224,51.224 51.060,51.125 55.149 C 51.027 59.224,51.283 58.971,47.222 59.010 C 43.402 59.046,42.984 59.335,43.329 61.697 C 43.450 62.522,43.435 64.054,43.296 65.100 L 43.044 67.001 39.598 66.932 C 35.377 66.847,35.475 66.750,35.560 70.984 L 35.630 74.444 32.345 74.718 C 27.404 75.129,27.702 74.297,27.485 88.306 L 27.451 90.534 23.958 90.463 C 19.668 90.376,19.808 90.229,19.785 94.839 C 19.775 96.923,19.731 100.336,19.687 102.424 L 19.608 106.220 16.115 106.149 C 11.825 106.062,11.965 105.916,11.942 110.526 C 11.932 112.609,11.887 115.920,11.844 117.883 L 11.765 121.452 8.550 121.700 C 4.088 122.044,4.126 121.987,4.080 128.544 C 4.060 131.502,4.016 136.525,3.982 139.706 L 3.922 145.490 1.961 145.490 L 0.000 145.490 0.000 192.353 L 0.000 239.216 1.961 239.216 L 3.922 239.216 3.982 248.725 C 4.136 272.851,3.577 270.215,8.607 270.506 L 11.765 270.689 11.844 274.266 C 11.887 276.233,11.932 279.548,11.942 281.631 C 11.965 286.223,11.804 286.047,16.111 286.215 L 19.608 286.353 19.687 289.941 C 19.731 291.915,19.775 295.234,19.785 297.318 C 19.808 301.909,19.648 301.733,23.954 301.902 L 27.451 302.039 27.485 304.059 C 27.722 317.931,27.426 317.126,32.439 317.513 L 35.628 317.759 35.559 321.196 C 35.475 325.388,35.355 325.263,39.617 325.430 L 43.092 325.567 43.345 326.721 C 43.485 327.355,43.480 328.735,43.336 329.786 C 42.898 332.969,43.316 333.333,47.410 333.333 L 50.871 333.333 51.107 335.321 C 51.236 336.415,51.243 337.805,51.122 338.411 C 50.666 340.688,51.396 341.176,55.253 341.176 L 58.714 341.176 58.950 343.164 C 59.079 344.258,59.086 345.648,58.965 346.254 C 58.503 348.565,59.218 349.020,63.320 349.020 L 67.005 349.020 66.934 352.512 C 66.847 356.771,66.705 356.622,71.111 356.863 L 74.706 357.059 74.748 360.317 C 74.801 364.386,74.895 364.477,79.193 364.645 L 82.661 364.781 82.814 367.490 C 83.062 371.880,84.396 372.451,94.581 372.524 L 97.985 372.549 98.258 375.670 C 98.654 380.210,98.542 380.150,106.874 380.332 L 113.679 380.480 113.948 383.557 C 114.357 388.255,113.702 388.014,126.511 388.170 L 137.255 388.301 137.255 390.229 L 137.255 392.157 200.000 392.157 L 262.745 392.157 262.745 390.224 L 262.745 388.291 273.519 388.165 C 286.371 388.015,285.795 388.231,286.158 383.433 L 286.382 380.468 293.180 380.332 C 301.501 380.166,301.498 380.168,301.847 375.552 L 302.074 372.549 305.645 372.528 C 315.486 372.470,316.851 371.885,317.222 367.571 L 317.451 364.902 321.050 364.702 C 325.442 364.457,325.264 364.634,325.431 360.360 L 325.568 356.863 328.835 356.863 C 333.128 356.863,333.333 356.656,333.333 352.339 L 333.333 349.048 337.157 348.936 L 340.980 348.824 341.092 345.014 L 341.205 341.205 345.014 341.092 L 348.824 340.980 348.936 337.171 L 349.048 333.361 352.857 333.249 L 356.667 333.137 356.779 329.314 L 356.891 325.490 360.182 325.490 C 364.496 325.490,364.706 325.282,364.706 321.009 L 364.706 317.760 367.709 317.533 C 372.328 317.184,372.322 317.195,372.490 308.813 L 372.627 301.961 375.893 301.961 C 380.558 301.961,380.392 302.273,380.392 293.501 L 380.392 286.275 383.697 286.275 C 388.405 286.275,388.235 286.589,388.235 277.857 L 388.235 270.671 391.361 270.529 C 396.230 270.308,395.863 271.612,395.994 254.104 L 396.105 239.216 398.053 239.216 L 400.000 239.216 400.000 196.275 L 400.000 153.333 398.057 153.333 L 396.113 153.333 395.998 138.249 C 395.863 120.681,396.243 122.070,391.474 121.702 L 388.282 121.456 388.160 114.093 C 388.019 105.501,388.318 106.059,383.908 106.149 L 380.438 106.219 380.317 98.631 C 380.176 89.792,380.477 90.373,376.085 90.462 L 372.635 90.531 372.490 83.538 C 372.313 74.999,372.379 75.125,367.865 74.731 L 364.782 74.463 364.646 70.989 C 364.479 66.723,364.610 66.847,360.355 66.934 L 356.863 67.005 356.863 63.320 C 356.863 58.976,356.535 58.579,353.315 59.022 C 352.264 59.167,350.868 59.167,350.212 59.023 L 349.020 58.761 349.020 55.277 C 349.020 51.394,348.535 50.666,346.254 51.122 C 345.648 51.243,344.258 51.236,343.164 51.107 L 341.176 50.871 341.176 47.410 C 341.176 43.553,340.688 42.823,338.411 43.279 C 337.805 43.400,336.431 43.395,335.358 43.268 L 333.408 43.037 333.272 39.590 C 333.106 35.357,333.231 35.475,329.021 35.560 L 325.566 35.629 325.430 32.148 C 325.261 27.806,325.180 27.725,320.888 27.587 L 317.451 27.477 317.229 24.703 C 316.914 20.776,316.427 20.372,311.502 19.953 C 309.382 19.772,307.336 19.721,306.957 19.840 C 306.577 19.958,305.322 19.937,304.168 19.793 L 302.069 19.531 301.816 16.539 C 301.443 12.120,301.309 12.035,294.624 11.935 C 291.650 11.891,288.580 11.835,287.803 11.810 L 286.390 11.765 286.133 8.734 C 285.749 4.184,285.689 4.148,278.332 4.087 C 275.044 4.060,270.191 4.012,267.549 3.980 L 262.745 3.922 262.745 1.961 L 262.745 0.000 200.000 0.000 L 137.255 0.000 137.255 1.961 M314.426 108.824 C 314.580 109.039,315.623 109.528,316.743 109.910 C 319.329 110.792,320.972 112.436,321.854 115.022 C 322.236 116.142,322.725 117.185,322.941 117.339 C 323.200 117.524,323.333 144.285,323.333 196.275 C 323.333 248.264,323.200 275.025,322.941 275.210 C 322.725 275.364,322.236 276.407,321.854 277.527 C 320.972 280.113,319.329 281.757,316.743 282.639 C 315.623 283.021,314.580 283.510,314.426 283.725 C 314.038 284.269,86.354 284.269,85.966 283.725 C 85.812 283.510,84.770 283.021,83.649 282.639 C 81.063 281.757,79.420 280.113,78.538 277.527 C 78.156 276.407,77.667 275.364,77.451 275.210 C 76.908 274.823,76.908 117.726,77.451 117.339 C 77.667 117.185,78.156 116.142,78.538 115.022 C 79.420 112.436,81.063 110.792,83.649 109.910 C 84.770 109.528,85.775 109.099,85.884 108.957 C 85.992 108.815,86.610 108.620,87.256 108.524 C 89.835 108.140,314.150 108.436,314.426 108.824 M104.955 136.328 L 103.922 137.362 103.922 196.275 L 103.922 255.187 104.955 256.221 L 105.989 257.255 200.268 257.255 L 294.547 257.255 295.509 256.217 L 296.471 255.180 296.471 196.275 L 296.471 137.369 295.509 136.332 L 294.547 135.294 200.268 135.294 L 105.989 135.294 104.955 136.328 M280.701 142.184 C 280.854 142.414,281.741 142.902,282.670 143.268 C 283.599 143.634,284.735 144.284,285.195 144.712 C 285.654 145.140,286.352 145.490,286.744 145.490 C 287.137 145.490,287.761 145.843,288.130 146.275 C 288.500 146.706,289.032 147.059,289.313 147.059 C 289.593 147.059,289.991 147.500,290.196 148.039 C 290.401 148.578,290.713 149.020,290.889 149.020 C 292.041 149.020,292.157 153.000,292.157 192.621 C 292.157 230.853,291.985 237.647,291.019 237.647 C 290.869 237.647,290.507 238.307,290.215 239.114 C 289.530 241.010,287.896 242.514,285.577 243.383 C 284.559 243.765,283.604 244.256,283.455 244.474 C 283.090 245.010,274.567 245.028,274.201 244.493 C 274.048 244.269,273.164 243.841,272.238 243.543 C 270.376 242.943,267.843 240.985,267.843 240.146 C 267.843 239.850,267.674 239.608,267.466 239.608 C 267.034 239.608,265.882 235.993,265.882 234.635 C 265.882 234.135,265.706 233.725,265.490 233.725 C 265.234 233.725,265.096 226.566,265.093 213.039 C 265.089 192.072,264.859 188.352,263.540 187.912 C 263.318 187.838,263.130 187.484,263.120 187.124 C 263.111 186.765,262.880 187.088,262.607 187.843 C 261.992 189.547,259.893 191.681,258.499 192.019 C 257.188 192.337,255.111 194.407,254.780 195.726 C 254.443 197.068,251.985 199.540,250.671 199.858 C 249.337 200.181,247.069 202.316,247.063 203.254 C 247.058 204.149,243.394 207.843,242.511 207.843 C 241.622 207.843,239.225 210.213,239.220 211.097 C 239.215 211.993,235.551 215.686,234.668 215.686 C 233.779 215.686,231.382 218.056,231.377 218.940 C 231.371 219.836,227.708 223.529,226.825 223.529 C 225.936 223.529,223.539 225.899,223.534 226.783 C 223.528 227.679,219.865 231.373,218.982 231.373 C 218.092 231.373,215.696 233.742,215.690 234.627 C 215.685 235.543,212.013 239.214,211.097 239.220 C 210.246 239.225,208.053 241.419,207.672 242.647 C 207.521 243.132,207.240 243.529,207.048 243.529 C 206.855 243.529,206.382 243.866,205.996 244.277 C 204.349 246.033,195.299 246.198,194.642 244.484 C 194.529 244.191,194.110 243.847,193.709 243.720 C 193.309 243.593,192.861 243.101,192.714 242.627 C 192.389 241.580,190.184 239.226,189.524 239.220 C 189.262 239.218,188.866 238.877,188.644 238.462 C 188.422 238.047,187.964 237.432,187.627 237.095 C 184.691 234.159,186.729 226.003,190.590 225.238 C 192.058 224.947,192.909 224.147,192.929 223.039 C 192.936 222.662,193.076 222.353,193.241 222.353 C 193.406 222.353,193.850 221.484,194.227 220.423 C 194.843 218.688,195.101 218.421,196.770 217.796 C 197.792 217.413,198.716 216.978,198.824 216.830 C 198.931 216.682,199.371 216.495,199.799 216.413 C 200.228 216.332,200.646 215.915,200.727 215.486 C 200.808 215.057,200.996 214.618,201.144 214.510 C 201.292 214.402,201.723 213.486,202.102 212.474 C 202.708 210.859,203.015 210.551,204.631 209.946 C 205.643 209.566,206.559 209.135,206.667 208.987 C 206.775 208.839,207.214 208.652,207.643 208.570 C 208.071 208.489,208.489 208.071,208.570 207.643 C 208.652 207.214,208.839 206.775,208.987 206.667 C 209.135 206.559,209.566 205.643,209.946 204.631 C 210.551 203.015,210.859 202.708,212.474 202.102 C 213.486 201.723,214.402 201.292,214.510 201.144 C 214.618 200.996,215.057 200.808,215.486 200.727 C 215.915 200.646,216.332 200.228,216.413 199.799 C 216.495 199.371,216.682 198.931,216.830 198.824 C 216.978 198.716,217.409 197.800,217.789 196.788 C 218.395 195.172,218.702 194.865,220.318 194.259 C 221.329 193.880,222.245 193.449,222.353 193.301 C 222.461 193.153,222.900 192.965,223.329 192.884 C 223.758 192.803,224.175 192.385,224.257 191.956 C 224.338 191.527,224.525 191.088,224.673 190.980 C 224.821 190.873,225.253 189.957,225.632 188.945 C 226.238 187.329,226.545 187.022,228.161 186.416 C 229.172 186.037,230.088 185.606,230.196 185.458 C 230.304 185.310,230.743 185.122,231.172 185.041 C 231.601 184.960,232.018 184.542,232.100 184.113 C 232.181 183.684,232.369 183.245,232.516 183.137 C 232.664 183.029,233.096 182.114,233.475 181.102 C 234.081 179.486,234.388 179.179,236.004 178.573 C 237.015 178.194,237.931 177.762,238.039 177.615 C 238.147 177.467,238.586 177.279,239.015 177.198 C 239.444 177.116,239.861 176.699,239.943 176.270 C 240.024 175.841,240.212 175.402,240.360 175.294 C 240.508 175.186,240.939 174.270,241.318 173.259 C 241.924 171.643,242.231 171.336,243.847 170.730 C 244.859 170.351,245.775 169.919,245.882 169.771 C 245.990 169.623,246.397 169.438,246.785 169.359 C 247.984 169.116,247.717 168.438,246.373 168.308 C 245.672 168.241,245.098 168.020,245.098 167.818 C 245.098 167.594,236.459 167.451,222.960 167.451 C 198.933 167.451,197.611 167.354,195.716 165.460 C 192.888 162.631,192.903 149.009,195.738 146.102 C 196.357 145.468,196.863 144.820,196.863 144.662 C 196.863 144.286,199.065 142.087,199.702 141.827 C 200.738 141.403,280.414 141.755,280.701 142.184 " id="path3" fill="#54545c" fill-rule="evenodd"/>
  <path stroke="none" d="" id="path4" fill="#7c68b0" fill-rule="evenodd"/>
 </g>
</svg>
