<svg width="400" viewBox="0, 0, 400,400" version="1.1" xmlns:xlink="http://www.w3.org/1999/xlink" id="svg" xmlns="http://www.w3.org/2000/svg" height="400">
 <g id="svgg">
  <path d="M131.207 194.696 C 130.881 194.824,130.373 195.170,130.079 195.464 C 129.784 195.759,129.286 196.000,128.971 196.000 C 128.512 196.000,128.400 196.827,128.400 200.200 C 128.400 203.573,128.512 204.400,128.971 204.400 C 129.286 204.400,129.858 204.715,130.243 205.100 C 131.201 206.058,268.734 206.409,269.687 205.456 C 269.990 205.153,270.634 204.780,271.119 204.626 C 271.952 204.361,272.000 204.122,272.000 200.200 C 272.000 196.278,271.952 196.039,271.119 195.774 C 270.634 195.620,269.991 195.248,269.690 194.947 C 269.127 194.385,132.631 194.137,131.207 194.696 " fill-rule="evenodd" id="path0" fill="#fcfcfc" stroke="none"/>
  <path d="M132.400 2.000 L 132.400 4.000 129.300 4.087 C 127.595 4.134,124.185 4.179,121.723 4.187 C 116.169 4.203,116.188 4.188,116.238 8.623 L 116.276 12.000 112.438 12.081 C 110.327 12.125,106.861 12.170,104.736 12.181 C 100.034 12.204,100.183 12.062,100.272 16.438 L 100.345 20.000 97.072 20.052 C 95.273 20.081,91.874 20.126,89.520 20.152 C 84.255 20.211,84.257 20.210,84.225 24.557 L 84.200 27.923 81.711 28.192 C 80.343 28.340,79.054 28.357,78.849 28.230 C 78.643 28.103,76.643 28.154,74.405 28.343 C 69.202 28.783,68.748 29.159,68.427 33.284 L 68.200 36.200 65.284 36.427 C 61.353 36.733,60.718 37.368,60.420 41.291 L 60.200 44.200 56.844 44.270 C 52.502 44.360,52.315 44.547,52.250 48.864 L 52.200 52.200 48.864 52.250 C 44.520 52.315,44.315 52.520,44.250 56.864 L 44.200 60.200 41.017 60.313 C 36.833 60.462,36.568 60.722,36.210 65.021 L 35.928 68.400 33.664 68.406 C 29.077 68.418,28.457 69.407,28.236 77.059 C 28.148 80.107,28.058 82.960,28.035 83.400 C 27.998 84.132,27.706 84.202,24.593 84.225 C 20.205 84.257,20.211 84.249,20.152 89.520 C 20.126 91.874,20.081 95.273,20.052 97.072 L 20.000 100.345 16.438 100.272 C 12.062 100.183,12.204 100.034,12.181 104.736 C 12.170 106.861,12.125 110.327,12.081 112.438 L 12.000 116.276 8.623 116.238 C 4.188 116.188,4.203 116.169,4.187 121.723 C 4.179 124.185,4.134 127.595,4.087 129.300 L 4.000 132.400 2.000 132.400 L 0.000 132.400 0.000 200.200 L 0.000 268.000 2.000 268.000 L 4.000 268.000 4.087 270.900 C 4.134 272.495,4.179 275.815,4.187 278.277 C 4.203 283.767,4.195 283.756,8.620 283.941 L 12.000 284.082 12.081 287.741 C 12.125 289.753,12.170 293.139,12.181 295.264 C 12.204 299.948,12.041 299.768,16.433 299.940 L 20.000 300.080 20.052 303.140 C 20.081 304.823,20.126 308.126,20.152 310.480 C 20.211 315.734,20.230 315.758,24.579 315.939 L 27.918 316.079 28.187 318.235 C 28.335 319.421,28.358 320.709,28.237 321.096 C 28.116 321.483,28.167 323.569,28.352 325.732 C 28.782 330.781,29.181 331.254,33.284 331.573 L 36.200 331.800 36.427 334.716 C 36.732 338.636,37.399 339.317,41.141 339.529 L 43.887 339.684 44.129 343.113 C 44.435 347.446,44.656 347.678,48.724 347.913 L 51.889 348.096 52.138 351.327 C 52.458 355.478,52.686 355.695,56.943 355.919 L 60.315 356.096 60.471 358.850 C 60.683 362.602,61.361 363.268,65.284 363.573 L 68.200 363.800 68.427 366.716 C 68.788 371.364,70.018 371.896,80.600 371.977 L 84.200 372.005 84.225 375.407 C 84.258 379.995,83.845 379.777,92.791 379.924 L 100.343 380.048 100.272 383.586 C 100.181 388.089,99.589 387.780,108.570 387.923 L 116.275 388.046 116.237 391.400 C 116.186 395.987,115.786 395.776,124.819 395.924 L 132.400 396.048 132.400 398.024 L 132.400 400.000 200.200 400.000 L 268.000 400.000 268.000 398.024 L 268.000 396.048 275.568 395.924 C 284.384 395.779,283.762 396.103,283.940 391.567 L 284.080 388.000 291.626 388.000 C 300.471 388.000,300.000 388.267,300.000 383.251 L 300.000 380.048 307.568 379.924 C 316.384 379.779,315.762 380.103,315.940 375.567 L 316.080 372.000 319.740 371.978 C 329.765 371.919,331.254 371.293,331.526 367.019 C 331.724 363.908,331.894 363.744,335.116 363.521 C 338.533 363.284,339.256 362.538,339.566 358.923 L 339.800 356.200 343.100 355.985 C 347.415 355.705,347.750 355.376,347.938 351.229 L 348.081 348.081 351.229 347.938 C 355.376 347.750,355.705 347.415,355.985 343.100 L 356.200 339.800 358.923 339.566 C 362.573 339.253,363.303 338.531,363.526 335.019 C 363.724 331.908,363.894 331.744,367.116 331.521 C 371.288 331.232,371.920 329.702,371.978 319.740 L 372.000 316.080 375.567 315.940 C 380.103 315.762,379.779 316.384,379.924 307.568 L 380.048 300.000 383.396 300.000 C 388.170 300.000,388.000 300.316,388.000 291.411 L 388.000 284.080 391.567 283.940 C 396.103 283.762,395.779 284.384,395.924 275.568 L 396.048 268.000 398.024 268.000 L 400.000 268.000 400.000 200.200 L 400.000 132.400 398.024 132.400 L 396.048 132.400 395.924 124.819 C 395.776 115.786,395.987 116.186,391.400 116.237 L 388.046 116.275 387.923 108.570 C 387.780 99.589,388.089 100.181,383.586 100.272 L 380.048 100.343 379.924 92.791 C 379.777 83.845,379.995 84.258,375.407 84.225 L 372.005 84.200 371.977 80.600 C 371.896 70.018,371.364 68.788,366.716 68.427 L 363.800 68.200 363.573 65.284 C 363.268 61.361,362.602 60.683,358.850 60.471 L 356.096 60.315 355.919 56.943 C 355.695 52.686,355.478 52.458,351.327 52.138 L 348.096 51.889 347.913 48.724 C 347.678 44.656,347.446 44.435,343.113 44.129 L 339.684 43.887 339.529 41.141 C 339.317 37.399,338.636 36.732,334.716 36.427 L 331.800 36.200 331.573 33.284 C 331.254 29.181,330.781 28.782,325.732 28.352 C 323.569 28.167,321.483 28.116,321.096 28.237 C 320.709 28.358,319.421 28.335,318.235 28.187 L 316.079 27.918 315.939 24.579 C 315.758 20.230,315.734 20.211,310.480 20.152 C 308.126 20.126,304.823 20.081,303.140 20.052 L 300.080 20.000 299.940 16.433 C 299.768 12.041,299.948 12.204,295.264 12.181 C 293.139 12.170,289.753 12.125,287.741 12.081 L 284.082 12.000 283.941 8.620 C 283.756 4.195,283.767 4.203,278.277 4.187 C 275.815 4.179,272.495 4.134,270.900 4.087 L 268.000 4.000 268.000 2.000 L 268.000 0.000 200.200 0.000 L 132.400 0.000 132.400 2.000 M272.184 190.449 C 273.843 190.695,275.200 191.036,275.200 191.205 C 275.200 191.375,275.687 191.636,276.283 191.785 C 277.484 192.087,280.399 194.717,280.400 195.500 C 280.400 195.775,280.580 196.000,280.800 196.000 C 281.041 196.000,281.200 197.667,281.200 200.200 C 281.200 202.733,281.041 204.400,280.800 204.400 C 280.580 204.400,280.400 204.625,280.400 204.900 C 280.399 205.683,277.484 208.313,276.283 208.615 C 275.687 208.764,275.200 209.025,275.200 209.195 C 275.200 210.272,267.249 210.400,200.161 210.400 C 132.891 210.400,125.600 210.282,125.600 209.191 C 125.600 209.031,125.039 208.788,124.354 208.651 C 123.660 208.512,122.374 207.668,121.454 206.748 L 119.800 205.094 119.800 200.200 L 119.800 195.306 121.427 193.679 C 122.322 192.784,123.582 191.922,124.227 191.764 C 124.872 191.606,125.490 191.345,125.600 191.183 C 125.710 191.021,126.790 190.711,128.000 190.492 C 131.267 189.902,268.234 189.861,272.184 190.449 " fill-rule="evenodd" id="path1" fill="#54545c" stroke="none"/>
  <path d="" fill-rule="evenodd" id="path2" fill="#d4100ac" stroke="none"/>
  <path d="M123.300 4.287 C 123.905 4.378,124.895 4.378,125.500 4.287 C 126.105 4.195,125.610 4.120,124.400 4.120 C 123.190 4.120,122.695 4.195,123.300 4.287 M274.500 4.287 C 275.105 4.378,276.095 4.378,276.700 4.287 C 277.305 4.195,276.810 4.120,275.600 4.120 C 274.390 4.120,273.895 4.195,274.500 4.287 M106.105 12.287 C 106.714 12.379,107.614 12.377,108.105 12.282 C 108.597 12.187,108.100 12.111,107.000 12.114 C 105.900 12.117,105.497 12.195,106.105 12.287 M292.105 12.287 C 292.714 12.379,293.614 12.377,294.105 12.282 C 294.597 12.187,294.100 12.111,293.000 12.114 C 291.900 12.117,291.497 12.195,292.105 12.287 M100.101 18.600 C 100.105 19.480,100.187 19.793,100.283 19.295 C 100.379 18.798,100.375 18.078,100.275 17.695 C 100.175 17.313,100.096 17.720,100.101 18.600 M92.100 20.276 C 92.485 20.376,93.115 20.376,93.500 20.276 C 93.885 20.175,93.570 20.093,92.800 20.093 C 92.030 20.093,91.715 20.175,92.100 20.276 M306.500 20.276 C 306.885 20.376,307.515 20.376,307.900 20.276 C 308.285 20.175,307.970 20.093,307.200 20.093 C 306.430 20.093,306.115 20.175,306.500 20.276 M79.505 28.283 C 80.002 28.379,80.722 28.375,81.105 28.275 C 81.487 28.175,81.080 28.096,80.200 28.101 C 79.320 28.105,79.007 28.187,79.505 28.283 M319.105 28.283 C 319.602 28.379,320.322 28.375,320.705 28.275 C 321.087 28.175,320.680 28.096,319.800 28.101 C 318.920 28.105,318.607 28.187,319.105 28.283 M28.101 80.200 C 28.105 81.080,28.187 81.393,28.283 80.895 C 28.379 80.398,28.375 79.678,28.275 79.295 C 28.175 78.913,28.096 79.320,28.101 80.200 M20.093 92.800 C 20.093 93.570,20.175 93.885,20.276 93.500 C 20.376 93.115,20.376 92.485,20.276 92.100 C 20.175 91.715,20.093 92.030,20.093 92.800 M17.905 100.283 C 18.402 100.379,19.122 100.375,19.505 100.275 C 19.887 100.175,19.480 100.096,18.600 100.101 C 17.720 100.105,17.407 100.187,17.905 100.283 M380.705 100.283 C 381.202 100.379,381.922 100.375,382.305 100.275 C 382.687 100.175,382.280 100.096,381.400 100.101 C 380.520 100.105,380.207 100.187,380.705 100.283 M12.114 107.000 C 12.117 108.100,12.195 108.503,12.287 107.895 C 12.379 107.286,12.377 106.386,12.282 105.895 C 12.187 105.403,12.111 105.900,12.114 107.000 M4.120 124.400 C 4.120 125.610,4.195 126.105,4.287 125.500 C 4.378 124.895,4.378 123.905,4.287 123.300 C 4.195 122.695,4.120 123.190,4.120 124.400 M129.212 190.468 C 127.789 190.671,126.529 190.965,126.412 191.121 C 126.295 191.277,125.480 191.656,124.600 191.963 C 123.720 192.271,122.370 193.152,121.600 193.921 L 120.200 195.320 120.200 200.200 L 120.200 205.080 121.600 206.479 C 122.370 207.248,123.720 208.129,124.600 208.437 C 125.480 208.744,126.291 209.116,126.402 209.263 C 127.723 211.011,274.000 210.987,274.000 209.239 C 274.000 209.093,274.825 208.731,275.833 208.433 C 276.842 208.136,277.761 207.646,277.876 207.346 C 277.991 207.046,278.316 206.800,278.597 206.800 C 279.688 206.800,280.400 204.192,280.400 200.200 C 280.400 196.208,279.688 193.600,278.597 193.600 C 278.316 193.600,277.991 193.354,277.876 193.054 C 277.761 192.754,276.842 192.264,275.833 191.967 C 274.825 191.669,274.000 191.307,274.000 191.161 C 274.000 190.018,136.957 189.362,129.212 190.468 M268.467 193.100 C 268.540 193.265,269.556 193.726,270.726 194.126 C 274.114 195.282,274.400 195.754,274.400 200.200 C 274.400 204.646,274.114 205.118,270.726 206.274 C 269.556 206.674,268.540 207.135,268.467 207.300 C 268.289 207.701,132.000 207.688,132.000 207.287 C 132.000 207.115,131.197 206.738,130.216 206.448 C 129.234 206.158,128.037 205.579,127.554 205.160 C 127.072 204.742,126.525 204.400,126.339 204.400 C 126.152 204.400,126.000 202.510,126.000 200.200 C 126.000 197.890,126.152 196.000,126.339 196.000 C 126.525 196.000,127.072 195.658,127.554 195.240 C 128.037 194.821,129.234 194.242,130.216 193.952 C 131.197 193.662,132.000 193.285,132.000 193.113 C 132.000 192.712,268.289 192.699,268.467 193.100 M4.120 275.600 C 4.120 276.810,4.195 277.305,4.287 276.700 C 4.378 276.095,4.378 275.105,4.287 274.500 C 4.195 273.895,4.120 274.390,4.120 275.600 M12.114 293.000 C 12.117 294.100,12.195 294.503,12.287 293.895 C 12.379 293.286,12.377 292.386,12.282 291.895 C 12.187 291.403,12.111 291.900,12.114 293.000 M20.093 307.200 C 20.093 307.970,20.175 308.285,20.276 307.900 C 20.376 307.515,20.376 306.885,20.276 306.500 C 20.175 306.115,20.093 306.430,20.093 307.200 M28.101 319.800 C 28.105 320.680,28.187 320.993,28.283 320.495 C 28.379 319.998,28.375 319.278,28.275 318.895 C 28.175 318.513,28.096 318.920,28.101 319.800 M100.101 381.400 C 100.105 382.280,100.187 382.593,100.283 382.095 C 100.379 381.598,100.375 380.878,100.275 380.495 C 100.175 380.113,100.096 380.520,100.101 381.400 " fill-rule="evenodd" id="path3" fill="#7cacac" stroke="none"/>
  <path d="M274.000 191.200 C 274.000 191.420,274.270 191.600,274.600 191.600 C 274.930 191.600,275.200 191.420,275.200 191.200 C 275.200 190.980,274.930 190.800,274.600 190.800 C 274.270 190.800,274.000 190.980,274.000 191.200 M123.232 192.106 C 122.699 192.378,122.190 192.870,122.101 193.200 C 121.965 193.705,122.001 193.711,122.333 193.235 C 122.550 192.924,123.239 192.444,123.864 192.167 C 124.489 191.891,124.820 191.653,124.600 191.638 C 124.380 191.624,123.764 191.834,123.232 192.106 M276.536 192.139 C 277.161 192.431,277.833 192.924,278.030 193.235 C 278.230 193.551,278.390 193.601,278.394 193.349 C 278.402 192.742,277.614 192.150,276.400 191.853 C 275.512 191.635,275.528 191.668,276.536 192.139 M120.349 194.660 C 118.892 196.412,119.580 205.835,121.200 206.314 C 121.550 206.418,121.467 206.236,121.000 205.878 C 119.800 204.958,119.780 195.442,120.976 194.568 C 121.404 194.255,121.561 194.000,121.325 194.000 C 121.090 194.000,120.651 194.297,120.349 194.660 M279.795 195.049 C 280.212 195.849,280.395 197.421,280.395 200.200 C 280.395 202.979,280.212 204.551,279.795 205.351 C 279.260 206.377,279.260 206.448,279.797 206.002 C 280.129 205.727,280.400 205.254,280.400 204.951 C 280.400 204.648,280.580 204.400,280.800 204.400 C 281.041 204.400,281.200 202.733,281.200 200.200 C 281.200 197.667,281.041 196.000,280.800 196.000 C 280.580 196.000,280.400 195.752,280.400 195.449 C 280.400 195.146,280.129 194.673,279.797 194.398 C 279.260 193.952,279.260 194.023,279.795 195.049 M122.006 207.051 C 121.998 207.658,122.786 208.250,124.000 208.547 C 124.888 208.765,124.872 208.732,123.864 208.261 C 123.239 207.969,122.567 207.476,122.370 207.165 C 122.170 206.849,122.010 206.799,122.006 207.051 M278.000 207.132 C 278.000 207.388,277.415 207.866,276.700 208.195 C 275.763 208.625,275.679 208.725,276.400 208.553 C 277.580 208.271,278.669 207.336,278.276 206.943 C 278.124 206.791,278.000 206.876,278.000 207.132 M274.000 209.200 C 274.000 209.420,274.270 209.600,274.600 209.600 C 274.930 209.600,275.200 209.420,275.200 209.200 C 275.200 208.980,274.930 208.800,274.600 208.800 C 274.270 208.800,274.000 208.980,274.000 209.200 " fill-rule="evenodd" id="path4" fill="#7c54b0" stroke="none"/>
 </g>
</svg>
