<svg id="svg" version="1.1" xmlns="http://www.w3.org/2000/svg" viewBox="0, 0, 400,392.156862745098" width="400" xmlns:xlink="http://www.w3.org/1999/xlink" height="392.156862745098">
 <g id="svgg">
  <path fill-rule="evenodd" id="path0" fill="#acacac" d="M199.223 120.282 C 198.903 120.412,198.405 120.755,198.116 121.043 C 197.827 121.332,197.349 121.569,197.053 121.569 C 196.757 121.569,196.284 121.889,196.003 122.281 C 195.721 122.672,195.177 123.110,194.795 123.252 C 194.413 123.395,193.983 123.824,193.840 124.207 C 193.698 124.589,193.261 125.133,192.869 125.414 C 192.477 125.696,192.157 126.169,192.157 126.465 C 192.157 126.761,191.848 127.312,191.471 127.689 C 190.832 128.328,190.777 130.323,190.679 156.556 C 190.580 182.857,190.528 184.753,189.894 184.993 C 189.521 185.135,189.005 185.458,188.747 185.713 C 188.489 185.967,187.475 186.412,186.492 186.703 C 185.510 186.993,184.706 187.368,184.706 187.537 C 184.706 187.705,172.266 187.843,157.062 187.843 C 122.751 187.843,125.098 187.224,125.098 196.275 C 125.098 205.325,122.751 204.706,157.062 204.706 C 172.266 204.706,184.706 204.844,184.706 205.012 C 184.706 205.181,185.510 205.556,186.492 205.846 C 187.475 206.137,188.489 206.582,188.747 206.836 C 189.005 207.091,189.521 207.414,189.894 207.556 C 190.528 207.796,190.580 209.692,190.679 235.993 C 190.777 262.226,190.832 264.221,191.471 264.860 C 191.848 265.237,192.157 265.788,192.157 266.084 C 192.157 266.380,192.477 266.853,192.869 267.135 C 193.261 267.416,193.698 267.960,193.840 268.342 C 193.983 268.725,194.413 269.154,194.795 269.297 C 195.177 269.439,195.721 269.877,196.003 270.268 C 196.284 270.660,196.757 270.980,197.053 270.980 C 197.349 270.980,197.891 271.280,198.258 271.647 C 198.624 272.014,199.497 272.314,200.196 272.314 C 200.896 272.314,201.768 272.014,202.134 271.647 C 202.501 271.280,203.043 270.980,203.339 270.980 C 203.635 270.980,204.108 270.660,204.390 270.268 C 204.671 269.877,205.215 269.439,205.597 269.297 C 205.979 269.154,206.409 268.725,206.552 268.342 C 206.694 267.960,207.132 267.416,207.523 267.135 C 207.915 266.853,208.235 266.380,208.235 266.084 C 208.235 265.788,208.544 265.237,208.922 264.860 C 209.560 264.221,209.615 262.226,209.713 235.993 C 209.812 209.692,209.864 207.796,210.498 207.556 C 210.871 207.414,211.387 207.091,211.645 206.836 C 211.903 206.582,212.917 206.137,213.900 205.846 C 214.882 205.556,215.686 205.181,215.686 205.012 C 215.686 204.844,228.208 204.706,243.513 204.706 C 274.551 204.706,273.460 204.799,274.544 202.059 C 274.821 201.358,275.192 200.784,275.367 200.784 C 275.543 200.784,275.686 198.755,275.686 196.275 C 275.686 193.794,275.543 191.765,275.367 191.765 C 275.192 191.765,274.821 191.191,274.544 190.490 C 273.460 187.750,274.551 187.843,243.513 187.843 C 228.208 187.843,215.686 187.705,215.686 187.537 C 215.686 187.368,214.882 186.993,213.900 186.703 C 212.917 186.412,211.903 185.967,211.645 185.713 C 211.387 185.458,210.871 185.135,210.498 184.993 C 209.864 184.753,209.812 182.857,209.713 156.556 C 209.615 130.323,209.560 128.328,208.922 127.689 C 208.544 127.312,208.235 126.761,208.235 126.465 C 208.235 126.169,207.915 125.696,207.523 125.414 C 207.132 125.133,206.694 124.589,206.552 124.207 C 206.409 123.824,205.979 123.395,205.597 123.252 C 205.215 123.110,204.671 122.672,204.390 122.281 C 204.108 121.889,203.635 121.569,203.339 121.569 C 203.043 121.569,202.545 121.313,202.232 121.000 C 201.550 120.318,200.028 119.955,199.223 120.282 M202.816 128.020 L 204.314 129.570 204.314 157.334 L 204.314 185.098 205.837 186.621 C 206.675 187.459,208.042 188.367,208.876 188.639 C 209.710 188.911,210.518 189.328,210.672 189.567 C 210.870 189.874,219.740 190.057,241.185 190.196 L 271.418 190.392 272.171 191.373 C 272.798 192.189,272.924 193.009,272.924 196.275 C 272.924 199.540,272.798 200.360,272.171 201.176 L 271.418 202.157 241.185 202.353 C 219.740 202.492,210.870 202.675,210.672 202.982 C 210.518 203.221,209.710 203.638,208.876 203.910 C 208.042 204.182,206.675 205.090,205.837 205.928 L 204.314 207.451 204.314 235.238 L 204.314 263.025 202.296 265.043 C 200.048 267.291,200.268 267.315,197.576 264.529 L 196.078 262.979 196.078 235.215 L 196.078 207.451 194.555 205.928 C 193.717 205.090,192.350 204.182,191.516 203.910 C 190.682 203.638,189.874 203.221,189.720 202.982 C 189.521 202.674,180.804 202.516,159.464 202.435 L 129.487 202.321 128.469 201.303 C 126.914 199.748,126.914 192.801,128.469 191.246 L 129.487 190.228 159.464 190.114 C 180.804 190.033,189.521 189.875,189.720 189.567 C 189.874 189.328,190.682 188.911,191.516 188.639 C 192.350 188.367,193.717 187.459,194.555 186.621 L 196.078 185.098 196.078 157.311 L 196.078 129.524 198.096 127.506 C 200.344 125.258,200.124 125.234,202.816 128.020 M396.961 153.222 C 397.554 153.312,398.525 153.312,399.118 153.222 C 399.711 153.132,399.225 153.059,398.039 153.059 C 396.853 153.059,396.368 153.132,396.961 153.222 " stroke="none"/>
  <path fill-rule="evenodd" id="path1" fill="#fcfcfc" d="M198.096 127.506 L 196.078 129.524 196.078 157.311 L 196.078 185.098 194.555 186.621 C 193.717 187.459,192.350 188.367,191.516 188.639 C 190.682 188.911,189.874 189.328,189.720 189.567 C 189.521 189.875,180.804 190.033,159.464 190.114 L 129.487 190.228 128.469 191.246 C 126.914 192.801,126.914 199.748,128.469 201.303 L 129.487 202.321 159.464 202.435 C 180.804 202.516,189.521 202.674,189.720 202.982 C 189.874 203.221,190.682 203.638,191.516 203.910 C 192.350 204.182,193.717 205.090,194.555 205.928 L 196.078 207.451 196.078 235.215 L 196.078 262.979 197.576 264.529 C 200.268 267.315,200.048 267.291,202.296 265.043 L 204.314 263.025 204.314 235.238 L 204.314 207.451 205.837 205.928 C 206.675 205.090,208.042 204.182,208.876 203.910 C 209.710 203.638,210.518 203.221,210.672 202.982 C 210.870 202.675,219.740 202.492,241.185 202.353 L 271.418 202.157 272.171 201.176 C 272.798 200.360,272.924 199.540,272.924 196.275 C 272.924 193.009,272.798 192.189,272.171 191.373 L 271.418 190.392 241.185 190.196 C 219.740 190.057,210.870 189.874,210.672 189.567 C 210.518 189.328,209.710 188.911,208.876 188.639 C 208.042 188.367,206.675 187.459,205.837 186.621 L 204.314 185.098 204.314 157.334 L 204.314 129.570 202.816 128.020 C 200.124 125.234,200.344 125.258,198.096 127.506 " stroke="none"/>
  <path fill-rule="evenodd" id="path2" fill="#848484" d="M125.201 4.203 C 125.798 4.293,126.680 4.291,127.162 4.198 C 127.645 4.105,127.157 4.031,126.078 4.034 C 125.000 4.037,124.605 4.113,125.201 4.203 M273.045 4.203 C 273.641 4.293,274.523 4.291,275.005 4.198 C 275.488 4.105,275.000 4.031,273.922 4.034 C 272.843 4.037,272.449 4.113,273.045 4.203 M108.534 12.042 C 109.022 12.136,109.728 12.132,110.103 12.034 C 110.478 11.936,110.078 11.859,109.216 11.864 C 108.353 11.868,108.046 11.948,108.534 12.042 M290.103 12.042 C 290.590 12.136,291.296 12.132,291.671 12.034 C 292.046 11.936,291.647 11.859,290.784 11.864 C 289.922 11.868,289.615 11.948,290.103 12.042 M93.824 19.878 C 94.201 19.977,94.819 19.977,95.196 19.878 C 95.574 19.780,95.265 19.699,94.510 19.699 C 93.755 19.699,93.446 19.780,93.824 19.878 M304.804 19.878 C 305.181 19.977,305.799 19.977,306.176 19.878 C 306.554 19.780,306.245 19.699,305.490 19.699 C 304.735 19.699,304.426 19.780,304.804 19.878 M72.456 35.571 C 72.943 35.665,73.649 35.662,74.024 35.564 C 74.399 35.465,74.000 35.389,73.137 35.393 C 72.275 35.397,71.968 35.478,72.456 35.571 M326.181 35.571 C 326.669 35.665,327.375 35.662,327.750 35.564 C 328.125 35.465,327.725 35.389,326.863 35.393 C 326.000 35.397,325.693 35.478,326.181 35.571 M66.766 41.765 C 66.770 42.627,66.850 42.934,66.944 42.446 C 67.038 41.959,67.034 41.253,66.936 40.878 C 66.838 40.503,66.761 40.902,66.766 41.765 M47.157 59.094 C 47.534 59.192,48.152 59.192,48.529 59.094 C 48.907 58.995,48.598 58.915,47.843 58.915 C 47.088 58.915,46.779 58.995,47.157 59.094 M350.887 59.101 C 351.375 59.195,352.081 59.191,352.456 59.093 C 352.830 58.995,352.431 58.918,351.569 58.922 C 350.706 58.927,350.399 59.007,350.887 59.101 M43.228 63.529 C 43.228 64.284,43.309 64.593,43.408 64.216 C 43.506 63.838,43.506 63.221,43.408 62.843 C 43.309 62.466,43.228 62.775,43.228 63.529 M41.083 66.944 C 41.571 67.038,42.277 67.034,42.652 66.936 C 43.027 66.838,42.627 66.761,41.765 66.766 C 40.902 66.770,40.595 66.850,41.083 66.944 M357.554 66.944 C 358.041 67.038,358.747 67.034,359.122 66.936 C 359.497 66.838,359.098 66.761,358.235 66.766 C 357.373 66.770,357.066 66.850,357.554 66.944 M35.393 73.137 C 35.397 74.000,35.478 74.307,35.571 73.819 C 35.665 73.331,35.662 72.625,35.564 72.250 C 35.465 71.875,35.389 72.275,35.393 73.137 M25.397 90.473 C 25.885 90.567,26.590 90.564,26.965 90.466 C 27.340 90.367,26.941 90.291,26.078 90.295 C 25.216 90.299,24.909 90.380,25.397 90.473 M373.240 90.473 C 373.728 90.567,374.434 90.564,374.808 90.466 C 375.183 90.367,374.784 90.291,373.922 90.295 C 373.059 90.299,372.752 90.380,373.240 90.473 M19.720 97.059 C 19.723 98.137,19.799 98.532,19.889 97.936 C 19.979 97.340,19.977 96.457,19.884 95.975 C 19.791 95.493,19.717 95.980,19.720 97.059 M17.554 106.160 C 18.041 106.254,18.747 106.250,19.122 106.152 C 19.497 106.054,19.098 105.977,18.235 105.981 C 17.373 105.986,17.066 106.066,17.554 106.160 M381.083 106.160 C 381.571 106.254,382.277 106.250,382.652 106.152 C 383.027 106.054,382.627 105.977,381.765 105.981 C 380.902 105.986,380.595 106.066,381.083 106.160 M11.877 112.745 C 11.880 113.824,11.956 114.218,12.046 113.622 C 12.136 113.026,12.134 112.144,12.041 111.661 C 11.948 111.179,11.874 111.667,11.877 112.745 M197.060 116.344 C 196.414 116.452,195.796 116.658,195.688 116.800 C 195.579 116.942,194.574 117.371,193.453 117.753 C 190.867 118.635,189.224 120.279,188.342 122.865 C 187.960 123.985,187.471 125.028,187.255 125.182 C 187.001 125.363,186.823 135.912,186.751 155.080 L 186.638 184.698 185.672 184.941 C 185.141 185.074,184.706 185.336,184.706 185.523 C 184.706 185.711,171.674 185.911,155.588 185.971 C 131.764 186.059,126.279 186.177,125.419 186.619 C 123.640 187.534,123.333 188.954,123.333 196.275 C 123.333 203.595,123.640 205.015,125.419 205.930 C 126.279 206.372,131.764 206.490,155.588 206.578 C 171.674 206.638,184.706 206.838,184.706 207.026 C 184.706 207.213,185.141 207.475,185.672 207.608 L 186.638 207.851 186.751 237.469 C 186.823 256.637,187.001 267.186,187.255 267.367 C 187.471 267.521,187.960 268.564,188.342 269.684 C 189.224 272.270,190.867 273.914,193.453 274.796 C 194.574 275.178,195.616 275.667,195.770 275.882 C 195.926 276.101,197.880 276.275,200.196 276.275 C 202.512 276.275,204.466 276.101,204.622 275.882 C 204.776 275.667,205.819 275.178,206.939 274.796 C 209.525 273.914,211.169 272.270,212.050 269.684 C 212.432 268.564,212.922 267.521,213.137 267.367 C 213.391 267.186,213.569 256.637,213.642 237.469 L 213.754 207.851 214.720 207.608 C 215.251 207.475,215.686 207.209,215.686 207.016 C 215.686 206.815,227.658 206.667,243.944 206.667 C 276.876 206.667,276.863 206.668,276.863 202.961 C 276.863 202.626,277.039 202.353,277.255 202.353 C 277.499 202.353,277.647 200.065,277.647 196.275 C 277.647 192.484,277.499 190.196,277.255 190.196 C 277.039 190.196,276.863 189.923,276.863 189.588 C 276.863 185.881,276.876 185.882,243.944 185.882 C 227.658 185.882,215.686 185.734,215.686 185.533 C 215.686 185.340,215.251 185.074,214.720 184.941 L 213.754 184.698 213.642 155.080 C 213.569 135.912,213.391 125.363,213.137 125.182 C 212.922 125.028,212.432 123.985,212.050 122.865 C 211.169 120.279,209.525 118.635,206.939 117.753 C 205.819 117.371,204.801 116.923,204.679 116.758 C 204.402 116.386,198.664 116.073,197.060 116.344 M202.232 121.000 C 202.545 121.313,203.043 121.569,203.339 121.569 C 203.635 121.569,204.108 121.889,204.390 122.281 C 204.671 122.672,205.215 123.110,205.597 123.252 C 205.979 123.395,206.409 123.824,206.552 124.207 C 206.694 124.589,207.132 125.133,207.523 125.414 C 207.915 125.696,208.235 126.169,208.235 126.465 C 208.235 126.761,208.544 127.312,208.922 127.689 C 209.560 128.328,209.615 130.323,209.713 156.556 C 209.812 182.857,209.864 184.753,210.498 184.993 C 210.871 185.135,211.387 185.458,211.645 185.713 C 211.903 185.967,212.917 186.412,213.900 186.703 C 214.882 186.993,215.686 187.368,215.686 187.537 C 215.686 187.705,228.208 187.843,243.513 187.843 C 274.551 187.843,273.460 187.750,274.544 190.490 C 274.821 191.191,275.192 191.765,275.367 191.765 C 275.543 191.765,275.686 193.794,275.686 196.275 C 275.686 198.755,275.543 200.784,275.367 200.784 C 275.192 200.784,274.821 201.358,274.544 202.059 C 273.460 204.799,274.551 204.706,243.513 204.706 C 228.208 204.706,215.686 204.844,215.686 205.012 C 215.686 205.181,214.882 205.556,213.900 205.846 C 212.917 206.137,211.903 206.582,211.645 206.836 C 211.387 207.091,210.871 207.414,210.498 207.556 C 209.864 207.796,209.812 209.692,209.713 235.993 C 209.615 262.226,209.560 264.221,208.922 264.860 C 208.544 265.237,208.235 265.788,208.235 266.084 C 208.235 266.380,207.915 266.853,207.523 267.135 C 207.132 267.416,206.694 267.960,206.552 268.342 C 206.409 268.725,205.979 269.154,205.597 269.297 C 205.215 269.439,204.671 269.877,204.390 270.268 C 204.108 270.660,203.635 270.980,203.339 270.980 C 203.043 270.980,202.501 271.280,202.134 271.647 C 201.768 272.014,200.896 272.314,200.196 272.314 C 199.497 272.314,198.624 272.014,198.258 271.647 C 197.891 271.280,197.349 270.980,197.053 270.980 C 196.757 270.980,196.284 270.660,196.003 270.268 C 195.721 269.877,195.177 269.439,194.795 269.297 C 194.413 269.154,193.983 268.725,193.840 268.342 C 193.698 267.960,193.261 267.416,192.869 267.135 C 192.477 266.853,192.157 266.380,192.157 266.084 C 192.157 265.788,191.848 265.237,191.471 264.860 C 190.832 264.221,190.777 262.226,190.679 235.993 C 190.580 209.692,190.528 207.796,189.894 207.556 C 189.521 207.414,189.005 207.091,188.747 206.836 C 188.489 206.582,187.475 206.137,186.492 205.846 C 185.510 205.556,184.706 205.181,184.706 205.012 C 184.706 204.844,172.266 204.706,157.062 204.706 C 122.751 204.706,125.098 205.325,125.098 196.275 C 125.098 187.224,122.751 187.843,157.062 187.843 C 172.266 187.843,184.706 187.705,184.706 187.537 C 184.706 187.368,185.510 186.993,186.492 186.703 C 187.475 186.412,188.489 185.967,188.747 185.713 C 189.005 185.458,189.521 185.135,189.894 184.993 C 190.528 184.753,190.580 182.857,190.679 156.556 C 190.777 130.323,190.832 128.328,191.471 127.689 C 191.848 127.312,192.157 126.761,192.157 126.465 C 192.157 126.169,192.477 125.696,192.869 125.414 C 193.261 125.133,193.698 124.589,193.840 124.207 C 193.983 123.824,194.413 123.395,194.795 123.252 C 195.177 123.110,195.721 122.672,196.003 122.281 C 196.284 121.889,196.757 121.569,197.053 121.569 C 197.349 121.569,197.827 121.332,198.116 121.043 C 199.263 119.896,201.109 119.877,202.232 121.000 M4.034 132.353 C 4.037 133.431,4.113 133.826,4.203 133.230 C 4.293 132.634,4.291 131.751,4.198 131.269 C 4.105 130.787,4.031 131.275,4.034 132.353 M4.034 259.804 C 4.037 260.882,4.113 261.277,4.203 260.681 C 4.293 260.085,4.291 259.202,4.198 258.720 C 4.105 258.238,4.031 258.725,4.034 259.804 M11.877 279.412 C 11.880 280.490,11.956 280.885,12.046 280.289 C 12.136 279.693,12.134 278.810,12.041 278.328 C 11.948 277.846,11.874 278.333,11.877 279.412 M19.720 295.098 C 19.723 296.176,19.799 296.571,19.889 295.975 C 19.979 295.379,19.977 294.497,19.884 294.014 C 19.791 293.532,19.717 294.020,19.720 295.098 M35.393 319.020 C 35.397 319.882,35.478 320.189,35.571 319.701 C 35.665 319.214,35.662 318.508,35.564 318.133 C 35.465 317.758,35.389 318.157,35.393 319.020 M43.236 328.039 C 43.241 328.902,43.321 329.209,43.415 328.721 C 43.508 328.233,43.505 327.527,43.407 327.152 C 43.309 326.777,43.232 327.176,43.236 328.039 M66.766 350.392 C 66.770 351.255,66.850 351.562,66.944 351.074 C 67.038 350.586,67.034 349.880,66.936 349.505 C 66.838 349.130,66.761 349.529,66.766 350.392 " stroke="none"/>
  <path fill-rule="evenodd" id="path3" fill="#54545c" d="M137.255 1.961 L 137.255 3.922 132.451 3.980 C 129.809 4.012,124.970 4.060,121.697 4.087 C 114.335 4.149,114.336 4.148,113.944 8.644 L 113.672 11.765 112.228 11.810 C 111.434 11.835,108.363 11.891,105.403 11.935 C 98.705 12.035,98.642 12.075,98.258 16.487 C 98.037 19.018,97.861 19.615,97.326 19.645 C 96.963 19.666,94.222 19.753,91.234 19.839 C 83.685 20.057,82.763 20.649,82.750 25.294 L 82.743 27.647 79.225 27.656 C 74.847 27.668,74.786 27.727,74.643 32.053 L 74.530 35.490 71.026 35.490 C 66.733 35.490,66.847 35.375,66.934 39.645 L 67.005 43.137 65.365 43.208 C 64.463 43.246,62.815 43.291,61.702 43.306 C 59.082 43.341,59.063 43.370,58.968 47.306 C 58.871 51.361,59.204 51.028,55.149 51.125 C 51.060 51.224,51.224 51.060,51.125 55.149 C 51.027 59.224,51.283 58.971,47.222 59.010 C 43.402 59.046,42.984 59.335,43.329 61.697 C 43.450 62.522,43.435 64.054,43.296 65.100 L 43.044 67.001 39.598 66.932 C 35.377 66.847,35.475 66.750,35.560 70.984 L 35.630 74.444 32.345 74.718 C 27.404 75.129,27.702 74.297,27.485 88.306 L 27.451 90.534 23.958 90.463 C 19.668 90.376,19.808 90.229,19.785 94.839 C 19.775 96.923,19.731 100.336,19.687 102.424 L 19.608 106.220 16.115 106.149 C 11.825 106.062,11.965 105.916,11.942 110.526 C 11.932 112.609,11.887 115.920,11.844 117.883 L 11.765 121.452 8.550 121.700 C 4.088 122.044,4.126 121.987,4.080 128.544 C 4.060 131.502,4.016 136.525,3.982 139.706 L 3.922 145.490 1.961 145.490 L 0.000 145.490 0.000 192.353 L 0.000 239.216 1.961 239.216 L 3.922 239.216 3.982 248.725 C 4.136 272.851,3.577 270.215,8.607 270.506 L 11.765 270.689 11.844 274.266 C 11.887 276.233,11.932 279.548,11.942 281.631 C 11.965 286.223,11.804 286.047,16.111 286.215 L 19.608 286.353 19.687 289.941 C 19.731 291.915,19.775 295.234,19.785 297.318 C 19.808 301.909,19.648 301.733,23.954 301.902 L 27.451 302.039 27.485 304.059 C 27.722 317.931,27.426 317.126,32.439 317.513 L 35.628 317.759 35.559 321.196 C 35.475 325.388,35.355 325.263,39.617 325.430 L 43.092 325.567 43.345 326.721 C 43.485 327.355,43.480 328.735,43.336 329.786 C 42.898 332.969,43.316 333.333,47.410 333.333 L 50.871 333.333 51.107 335.321 C 51.236 336.415,51.243 337.805,51.122 338.411 C 50.666 340.688,51.396 341.176,55.253 341.176 L 58.714 341.176 58.950 343.164 C 59.079 344.258,59.086 345.648,58.965 346.254 C 58.503 348.565,59.218 349.020,63.320 349.020 L 67.005 349.020 66.934 352.512 C 66.847 356.771,66.705 356.622,71.111 356.863 L 74.706 357.059 74.748 360.317 C 74.801 364.386,74.895 364.477,79.193 364.645 L 82.661 364.781 82.814 367.490 C 83.062 371.880,84.396 372.451,94.581 372.524 L 97.985 372.549 98.258 375.670 C 98.654 380.210,98.542 380.150,106.874 380.332 L 113.679 380.480 113.948 383.557 C 114.357 388.255,113.702 388.014,126.511 388.170 L 137.255 388.301 137.255 390.229 L 137.255 392.157 200.000 392.157 L 262.745 392.157 262.745 390.224 L 262.745 388.291 273.519 388.165 C 286.371 388.015,285.795 388.231,286.158 383.433 L 286.382 380.468 293.180 380.332 C 301.501 380.166,301.498 380.168,301.847 375.552 L 302.074 372.549 305.645 372.528 C 315.486 372.470,316.851 371.885,317.222 367.571 L 317.451 364.902 321.050 364.702 C 325.442 364.457,325.264 364.634,325.431 360.360 L 325.568 356.863 328.835 356.863 C 333.128 356.863,333.333 356.656,333.333 352.339 L 333.333 349.048 337.157 348.936 L 340.980 348.824 341.092 345.014 L 341.205 341.205 345.014 341.092 L 348.824 340.980 348.936 337.171 L 349.048 333.361 352.857 333.249 L 356.667 333.137 356.779 329.314 L 356.891 325.490 360.182 325.490 C 364.496 325.490,364.706 325.282,364.706 321.009 L 364.706 317.760 367.709 317.533 C 372.328 317.184,372.322 317.195,372.490 308.813 L 372.627 301.961 375.893 301.961 C 380.558 301.961,380.392 302.273,380.392 293.501 L 380.392 286.275 383.697 286.275 C 388.405 286.275,388.235 286.589,388.235 277.857 L 388.235 270.671 391.361 270.529 C 396.230 270.308,395.863 271.612,395.994 254.104 L 396.105 239.216 398.053 239.216 L 400.000 239.216 400.000 196.275 L 400.000 153.333 398.057 153.333 L 396.113 153.333 395.998 138.249 C 395.863 120.681,396.243 122.070,391.474 121.702 L 388.282 121.456 388.160 114.093 C 388.019 105.501,388.318 106.059,383.908 106.149 L 380.438 106.219 380.317 98.631 C 380.176 89.792,380.477 90.373,376.085 90.462 L 372.635 90.531 372.490 83.538 C 372.313 74.999,372.379 75.125,367.865 74.731 L 364.782 74.463 364.646 70.989 C 364.479 66.723,364.610 66.847,360.355 66.934 L 356.863 67.005 356.863 63.320 C 356.863 58.976,356.535 58.579,353.315 59.022 C 352.264 59.167,350.868 59.167,350.212 59.023 L 349.020 58.761 349.020 55.277 C 349.020 51.394,348.535 50.666,346.254 51.122 C 345.648 51.243,344.258 51.236,343.164 51.107 L 341.176 50.871 341.176 47.410 C 341.176 43.553,340.688 42.823,338.411 43.279 C 337.805 43.400,336.431 43.395,335.358 43.268 L 333.408 43.037 333.272 39.590 C 333.106 35.357,333.231 35.475,329.021 35.560 L 325.566 35.629 325.430 32.148 C 325.261 27.806,325.180 27.725,320.888 27.587 L 317.451 27.477 317.229 24.703 C 316.914 20.776,316.427 20.372,311.502 19.953 C 309.382 19.772,307.336 19.721,306.957 19.840 C 306.577 19.958,305.322 19.937,304.168 19.793 L 302.069 19.531 301.816 16.539 C 301.443 12.120,301.309 12.035,294.624 11.935 C 291.650 11.891,288.580 11.835,287.803 11.810 L 286.390 11.765 286.133 8.734 C 285.749 4.184,285.689 4.148,278.332 4.087 C 275.044 4.060,270.191 4.012,267.549 3.980 L 262.745 3.922 262.745 1.961 L 262.745 0.000 200.000 0.000 L 137.255 0.000 137.255 1.961 M204.679 116.758 C 204.801 116.923,205.819 117.371,206.939 117.753 C 209.525 118.635,211.169 120.279,212.050 122.865 C 212.432 123.985,212.922 125.028,213.137 125.182 C 213.391 125.363,213.569 135.912,213.642 155.080 L 213.754 184.698 214.720 184.941 C 215.251 185.074,215.686 185.340,215.686 185.533 C 215.686 185.734,227.658 185.882,243.944 185.882 C 276.876 185.882,276.863 185.881,276.863 189.588 C 276.863 189.923,277.039 190.196,277.255 190.196 C 277.499 190.196,277.647 192.484,277.647 196.275 C 277.647 200.065,277.499 202.353,277.255 202.353 C 277.039 202.353,276.863 202.626,276.863 202.961 C 276.863 206.668,276.876 206.667,243.944 206.667 C 227.658 206.667,215.686 206.815,215.686 207.016 C 215.686 207.209,215.251 207.475,214.720 207.608 L 213.754 207.851 213.642 237.469 C 213.569 256.637,213.391 267.186,213.137 267.367 C 212.922 267.521,212.432 268.564,212.050 269.684 C 211.169 272.270,209.525 273.914,206.939 274.796 C 205.819 275.178,204.776 275.667,204.622 275.882 C 204.466 276.101,202.512 276.275,200.196 276.275 C 197.880 276.275,195.926 276.101,195.770 275.882 C 195.616 275.667,194.574 275.178,193.453 274.796 C 190.867 273.914,189.224 272.270,188.342 269.684 C 187.960 268.564,187.471 267.521,187.255 267.367 C 187.001 267.186,186.823 256.637,186.751 237.469 L 186.638 207.851 185.672 207.608 C 185.141 207.475,184.706 207.213,184.706 207.026 C 184.706 206.838,171.674 206.638,155.588 206.578 C 131.764 206.490,126.279 206.372,125.419 205.930 C 123.640 205.015,123.333 203.595,123.333 196.275 C 123.333 188.954,123.640 187.534,125.419 186.619 C 126.279 186.177,131.764 186.059,155.588 185.971 C 171.674 185.911,184.706 185.711,184.706 185.523 C 184.706 185.336,185.141 185.074,185.672 184.941 L 186.638 184.698 186.751 155.080 C 186.823 135.912,187.001 125.363,187.255 125.182 C 187.471 125.028,187.960 123.985,188.342 122.865 C 189.224 120.279,190.867 118.635,193.453 117.753 C 194.574 117.371,195.579 116.942,195.688 116.800 C 196.218 116.104,204.166 116.067,204.679 116.758 " stroke="none"/>
  <path fill-rule="evenodd" id="path4" fill="#7c68b0" d="" stroke="none"/>
 </g>
</svg>
